<?xml version="1.0" standalone="no"?>
<svg height="806.346" preserveAspectRatio="none" viewBox="0.000 0.000 908.894 806.346" width="908.894" x="0.000" xmlns="http://www.w3.org/2000/svg" xmlns:svg="http://www.w3.org/2000/svg" xmlns:xlink="http://www.w3.org/1999/xlink" y="0.000">
<svg width="908.894" height="806.346" viewBox="19.682 1721.698 908.894 806.34595" preserveAspectRatio="none" xmlns="http://www.w3.org/2000/svg"><defs><clipPath id="iPRwwSCgclipPath1"><path fill="#000000" stroke="none" d="M 0 0 L 908.894 0 L 908.894 806.347 L 0 806.347 Z"/></clipPath><clipPath id="iPRwwSCgclip-0"><path fill="#000000" stroke="none" d="M 457 262 L 888.895 262 L 888.895 378 L 457 378 Z M 457 262"/></clipPath><clipPath id="iPRwwSCgclip-1"><path fill="#000000" stroke="none" d="M 789 252 L 888.895 252 L 888.895 387 L 789 387 Z M 789 252"/></clipPath><clipPath id="iPRwwSCgclip-2"><path fill="#000000" stroke="none" d="M 20 198 L 220 198 L 220 434 L 20 434 Z M 20 198"/></clipPath><clipPath id="iPRwwSCgclip-3"><path fill="#000000" stroke="none" d="M 20 388 L 219 388 L 219 610 L 20 610 Z M 20 388"/></clipPath><clipPath id="iPRwwSCgclip-4"><path fill="#000000" stroke="none" d="M 54 569 L 283 569 L 283 786.348 L 54 786.348 Z M 54 569"/></clipPath><clipPath id="iPRwwSCgclip-5"><path fill="#000000" stroke="none" d="M 435 415 L 888.895 415 L 888.895 579 L 435 579 Z M 435 415"/></clipPath><clipPath id="iPRwwSCgclip-6"><path fill="#000000" stroke="none" d="M 44 20 L 278 20 L 278 242 L 44 242 Z M 44 20"/></clipPath><clipPath id="iPRwwSCgclip-7"><path fill="#000000" stroke="none" d="M 20 292 L 888.895 292 L 888.895 519 L 20 519 Z M 20 292"/></clipPath></defs><g transform="matrix(1 0 0 1 19.6821 1721.6976)"><g clip-path="url(#iPRwwSCgclipPath1)"><path fill="#98c0f0" stroke="none" d="M 577.582 466.414 C 576.656 483.723 569.414 501.188 562.871 516.551 C 556.328 531.91 547.746 546.844 538.316 558.59 C 528.883 570.336 517.535 579.859 506.277 587.023 C 495.023 594.188 483.129 599.731 470.777 601.578 C 458.426 603.426 444.59 601.688 432.16 598.109 C 419.734 594.527 407.152 588.68 396.207 580.098 C 385.266 571.52 375.316 559.734 366.492 546.617 C 357.672 533.504 349.313 517.855 343.277 501.41 C 337.242 484.969 332.727 465.996 330.277 447.961 C 327.824 429.926 327.09 411.27 328.57 393.195 C 330.051 375.117 334.082 356.008 339.164 339.5 C 344.246 322.996 351.188 307.492 359.063 294.164 C 366.934 280.84 375.969 269.043 386.406 259.539 C 396.844 250.039 409.523 241.797 421.695 237.152 C 433.863 232.508 446.91 230.754 459.422 231.676 C 471.934 232.594 484.977 236.41 496.762 242.676 C 508.547 248.938 520.281 258.293 530.141 269.262 C 539.996 280.23 548.453 293.719 555.91 308.484 C 563.363 323.246 570.574 340.512 574.867 357.844 C 579.16 375.18 581.356 392.938 581.668 412.484 C 581.984 432.031 578.305 463.738 576.746 475.133 C 575.191 486.531 574.332 481.98 572.32 480.871 M 581.75 396.516 C 585.586 413.516 582.93 433.395 580.539 451.207 C 578.148 469.016 573.141 487.484 567.41 503.375 C 561.68 519.266 554.531 533.477 546.152 546.551 C 537.77 559.625 527.781 573.363 517.129 581.82 C 506.477 590.281 494.531 594.281 482.242 597.305 C 469.953 600.324 455.66 601.828 443.391 599.941 C 431.121 598.055 419.855 592.879 408.621 585.988 C 397.391 579.098 386.012 570.285 375.988 558.598 C 365.965 546.906 355.625 531.344 348.484 515.848 C 341.344 500.352 336.328 483.055 333.145 465.621 C 329.961 448.191 329.27 429.445 329.379 411.254 C 329.488 393.063 330.184 373.809 333.797 356.469 C 337.41 339.133 343.535 321.816 351.055 307.23 C 358.57 292.641 369.145 279.773 378.898 268.938 C 388.652 258.102 398.293 248.207 409.574 242.219 C 420.859 236.227 434.051 233.551 446.598 233 C 459.145 232.445 472.664 234.258 484.859 238.898 C 497.051 243.539 509.172 251.285 519.75 260.848 C 530.328 270.41 539.754 282.73 548.32 296.273 C 556.887 309.816 566.039 325.426 571.145 342.109 C 576.25 358.793 577.731 387.168 578.961 396.379 C 580.188 405.594 580.215 397.375 578.516 397.395"/><g transform="matrix(0.027 1 -1 0.027 455.127 416.8108)"><path fill="none" stroke="#000000" stroke-miterlimit="10" stroke-width="4" d="M -19.553 -125.424 C -2.809 -128.55 17.723 -125.535 35.635 -123.149 C 53.547 -120.759 71.913 -116.795 87.923 -111.105 C 103.934 -105.411 118.892 -97.663 131.697 -88.993 C 144.499 -80.323 156.263 -70.021 164.745 -59.077 C 173.227 -48.137 179.254 -35.674 182.589 -23.338 C 185.924 -11.001 186.916 2.603 184.755 14.932 C 182.59 27.256 177.289 39.136 169.619 50.617 C 161.95 62.097 150.715 74.419 138.731 83.81 C 126.751 93.202 113.092 100.68 97.731 106.965 C 82.37 113.249 64.248 118.342 46.576 121.517 C 28.901 124.696 9.881 126.425 -8.308 126.036 C -26.496 125.642 -45.383 123.327 -62.556 119.172 C -79.729 115.013 -96.879 108.441 -111.341 101.086 C -125.806 93.734 -138.844 84.991 -149.345 75.056 C -159.843 65.124 -168.436 53.251 -174.337 41.482 C -180.242 29.714 -184.136 16.964 -184.763 4.439 C -185.389 -8.082 -182.875 -21.654 -178.105 -33.647 C -173.336 -45.639 -165.929 -57.107 -156.152 -67.507 C -146.375 -77.903 -133.472 -87.918 -119.445 -96.028 C -105.417 -104.137 -91.986 -111.142 -71.991 -116.161 C -52 -121.183 -15.146 -125.032 0.509 -126.148 C 16.164 -127.261 21.701 -125.002 21.932 -122.847 M 71.438 -114.979 C 88.379 -111.913 104.436 -102.729 118.66 -94.97 C 132.884 -87.215 146.941 -78.488 156.779 -68.437 C 166.621 -58.386 173.168 -46.526 177.699 -34.665 C 182.235 -22.808 184.487 -9.743 183.979 2.712 C 183.475 15.171 180.257 28.318 174.658 40.077 C 169.059 51.84 160.924 63.07 150.379 73.277 C 139.834 83.485 125.765 93.82 111.391 101.33 C 97.012 108.844 81.178 114.264 64.115 118.346 C 47.052 122.429 27.42 125.41 9.003 125.831 C -9.411 126.248 -28.907 124.077 -46.379 120.859 C -63.851 117.645 -80.275 112.686 -95.832 106.543 C -111.389 100.401 -127.264 93.023 -139.72 84.003 C -152.175 74.983 -163.002 63.933 -170.558 52.416 C -178.114 40.904 -183.068 27.336 -185.057 14.912 C -187.05 2.487 -185.768 -9.838 -182.506 -22.137 C -179.248 -34.435 -173.998 -47.899 -165.491 -58.88 C -156.987 -69.858 -144.346 -79.294 -131.478 -88.005 C -118.61 -96.716 -103.987 -105.169 -88.283 -111.143 C -72.578 -117.122 -55.363 -121.61 -37.252 -123.867 C -19.144 -126.128 2.09 -125.797 20.377 -124.706 C 38.66 -123.614 63.819 -119.115 72.459 -117.327 C 81.098 -115.543 73.643 -116.217 72.212 -113.986"/></g><path fill="#26a169" stroke="none" d="M 466.797 420.027 C 474.902 420.762 482.926 427.703 489.613 434.254 C 496.305 440.805 502.859 449.637 506.945 459.336 C 511.031 469.035 513.77 481.5 514.137 492.445 C 514.5 503.391 512.543 514.82 509.145 525.012 C 505.746 535.199 500.016 546.258 493.746 553.574 C 487.477 560.895 479.789 566.328 471.527 568.93 C 463.262 571.527 452.695 571.234 444.168 569.176 C 435.641 567.113 427.313 563.023 420.363 556.566 C 413.41 550.109 406.551 540.148 402.461 530.426 C 398.367 520.703 395.914 509.246 395.805 498.23 C 395.695 487.215 398.363 474.539 401.801 464.336 C 405.242 454.133 409.922 444.109 416.438 437.016 C 422.957 429.918 431.785 424.395 440.902 421.77 C 450.02 419.145 465.508 420.617 471.137 421.27 C 476.766 421.918 475.094 424.41 474.676 425.68 M 477.414 425.465 C 485.293 428.316 494.477 436.52 500.313 444.785 C 506.145 453.047 510.426 464.789 512.414 475.043 C 514.402 485.301 513.461 495.539 512.234 506.328 C 511.008 517.113 509.582 530.82 505.059 539.766 C 500.535 548.711 492.914 554.879 485.09 560.008 C 477.266 565.133 466.84 569.746 458.113 570.523 C 449.387 571.305 440.547 568.699 432.727 564.68 C 424.902 560.664 416.848 554.543 411.176 546.422 C 405.508 538.297 401.027 526.461 398.707 515.953 C 396.387 505.445 395.828 493.984 397.266 483.371 C 398.703 472.758 402.344 461.305 407.324 452.281 C 412.309 443.254 419.918 434.582 427.164 429.223 C 434.406 423.863 442.387 420.633 450.785 420.121 C 459.184 419.609 473.277 424.984 477.547 426.152 C 481.82 427.316 476.852 425.891 476.418 427.121"/><g transform="matrix(1 0 0 1 455.402 495.2388)"><path fill="none" stroke="#000000" stroke-miterlimit="10" stroke-width="4" d="M -22.242 -68.84 C -15.031 -73.821 -5.691 -76.204 2.887 -75.657 C 11.469 -75.11 21.625 -70.735 29.243 -65.567 C 36.864 -60.395 43.7 -53.493 48.606 -44.645 C 53.512 -35.793 57.508 -23.243 58.672 -12.469 C 59.836 -1.696 58.149 9.382 55.586 19.999 C 53.02 30.617 48.864 42.835 43.286 51.238 C 37.703 59.64 29.727 66.242 22.106 70.414 C 14.485 74.589 6.008 77.093 -2.445 76.289 C -10.894 75.488 -21.183 70.835 -28.605 65.593 C -36.031 60.351 -42.015 53.499 -46.984 44.835 C -51.953 36.175 -56.785 24.601 -58.414 13.621 C -60.043 2.64 -59.027 -10.516 -56.754 -21.051 C -54.484 -31.59 -52.117 -40.805 -44.793 -49.598 C -37.465 -58.395 -19.785 -69.649 -12.804 -73.821 C -5.82 -77.997 -3.195 -75.887 -2.902 -74.637 M -0.449 -76.856 C 7.711 -78.254 16.567 -74.626 24.02 -70.086 C 31.473 -65.547 38.59 -58.493 44.27 -49.622 C 49.95 -40.747 56.063 -27.918 58.098 -16.848 C 60.133 -5.778 58.125 6.16 56.477 16.808 C 54.825 27.453 53.399 38.722 48.196 47.027 C 42.996 55.332 33.219 61.89 25.27 66.632 C 17.321 71.374 8.754 75.148 0.5 75.488 C -7.75 75.828 -16.386 73.257 -24.242 68.667 C -32.101 64.082 -41.109 56.117 -46.644 47.964 C -52.175 39.812 -55.847 30.218 -57.445 19.757 C -59.039 9.296 -57.804 -4.032 -56.215 -14.797 C -54.629 -25.567 -53.05 -36.278 -47.918 -44.852 C -42.789 -53.426 -33.257 -61.227 -25.437 -66.239 C -17.617 -71.251 -4.965 -73.543 -0.992 -74.915 C 2.985 -76.29 -1.386 -75.668 -1.59 -74.485"/></g><path fill="#f4c111" stroke="none" d="M 471.309 259.008 C 479.492 260.461 487.523 267.641 494.156 274.816 C 500.789 281.992 507.82 292.434 511.105 302.063 C 514.391 311.688 515.082 322.082 513.871 332.574 C 512.66 343.066 508.918 356.27 503.84 365.016 C 498.762 373.762 491.09 380.313 483.391 385.047 C 475.695 389.777 466.355 393.367 457.648 393.41 C 448.941 393.449 439.059 390.305 431.152 385.293 C 423.242 380.281 415.34 372.133 410.199 363.34 C 405.059 354.547 401.535 342.965 400.305 332.535 C 399.074 322.105 399.625 310.598 402.816 300.77 C 406.004 290.941 412.777 280.641 419.438 273.57 C 426.094 266.5 433.266 260.301 442.766 258.348 C 452.266 256.395 469.855 260.613 476.434 261.855 C 483.012 263.102 482.613 264.855 482.234 265.813 M 468.988 259.34 C 477.285 260.668 485.906 267.02 492.98 273.77 C 500.055 280.516 507.762 290.207 511.438 299.832 C 515.113 309.457 516.199 321.191 515.031 331.527 C 513.867 341.863 509.379 353.164 504.438 361.844 C 499.492 370.52 493.145 378.258 485.367 383.59 C 477.594 388.926 466.766 393.484 457.785 393.84 C 448.805 394.195 439.145 390.27 431.488 385.719 C 423.828 381.164 417.219 374.781 411.828 366.523 C 406.441 358.266 400.711 346.586 399.152 336.172 C 397.59 325.758 399.375 314.242 402.469 304.039 C 405.566 293.84 411.477 282.199 417.727 274.973 C 423.977 267.742 431.523 263.617 439.969 260.676 C 448.414 257.734 463.371 257.605 468.391 257.32 C 473.406 257.039 470.375 257.523 470.07 258.973"/><g transform="matrix(1 0 0 1 456.958 325.2578)"><path fill="none" stroke="#000000" stroke-miterlimit="10" stroke-width="4" d="M 7.714 -67.871 C 16.335 -67.23 26.644 -60.441 33.972 -53.988 C 41.3 -47.539 47.71 -38.598 51.687 -29.164 C 55.667 -19.73 58.124 -7.836 57.839 2.609 C 57.55 13.055 54.483 24.355 49.964 33.508 C 45.444 42.664 38.312 51.648 30.722 57.535 C 23.128 63.422 13.093 67.93 4.413 68.836 C -4.271 69.738 -13.364 67.281 -21.376 62.961 C -29.392 58.641 -37.88 51.125 -43.665 42.914 C -49.446 34.703 -54.134 23.773 -56.071 13.695 C -58.009 3.617 -57.731 -7.457 -55.286 -17.551 C -52.841 -27.648 -47.595 -39.062 -41.399 -46.879 C -35.204 -54.699 -26.646 -61.086 -18.126 -64.469 C -9.606 -67.852 4.757 -67.121 9.726 -67.172 C 14.69 -67.223 11.929 -65.789 11.683 -64.777 M 16.378 -64.957 C 24.706 -63.348 33.929 -57.242 40.112 -50.23 C 46.3 -43.219 50.48 -32.812 53.495 -22.879 C 56.507 -12.945 59.253 -1.32 58.198 9.371 C 57.147 20.063 52.901 32.566 47.179 41.266 C 41.456 49.961 31.765 56.918 23.862 61.559 C 15.956 66.199 8.585 69.215 -0.251 69.109 C -9.083 69.004 -21.138 66.215 -29.142 60.922 C -37.149 55.629 -43.446 46.516 -48.282 37.348 C -53.118 28.18 -57.536 16.477 -58.157 5.91 C -58.778 -4.656 -55.392 -16.586 -52.009 -26.055 C -48.622 -35.523 -44.497 -44.016 -37.841 -50.898 C -31.188 -57.781 -20.806 -64.727 -12.079 -67.359 C -3.349 -69.992 9.78 -67.172 14.53 -66.695 C 19.276 -66.223 16.593 -65.762 16.409 -64.512"/></g><g><g transform="matrix(1 0 0 1 432.3008 515.8203)"><g><path fill="#000000" stroke="none" d="M 0.297 -0.313 L 0.406 -0.469 L 0.328 -0.469 L 0.328 -0.516 L 0.531 -0.516 L 0.531 -0.469 L 0.469 -0.469 L 0.328 -0.281 L 0.484 -0.047 L 0.547 -0.047 L 0.547 0 L 0.313 0 L 0.313 -0.047 L 0.375 -0.047 L 0.266 -0.203 L 0.156 -0.047 L 0.219 -0.047 L 0.219 0 L 0.016 0 L 0.016 -0.047 L 0.094 -0.047 L 0.234 -0.25 L 0.078 -0.469 L 0.016 -0.469 L 0.016 -0.516 L 0.25 -0.516 L 0.25 -0.469 L 0.188 -0.469 Z M 0.297 -0.313"/></g></g></g><g clip-path="url(#iPRwwSCgclip-0)"><g transform="matrix(1 0 0 1 -19.6821 -1721.6976)"><path fill="none" stroke="#000000" stroke-miterlimit="10" stroke-width="4" d="M 533.874 2040.901 C 626.53 2040.944 720.807 2040.182 880.499 2041.307 M 533.342 2041.311 C 654.678 2042.76 775.674 2042.737 881.823 2042.264"/></g></g><g clip-path="url(#iPRwwSCgclip-1)"><g transform="matrix(1 0 0 1 -19.6821 -1721.6976)"><path fill="none" stroke="#000000" stroke-miterlimit="10" stroke-width="4" d="M 868.694 2051.295 C 870.432 2048.272 874.479 2044.393 880.174 2041.182 M 867.991 2051.834 C 872.502 2048.155 876.565 2044.409 881.92 2042.444 M 881.1 2042.717 C 878.581 2037.666 875.198 2035.522 865.698 2031.135 M 881.475 2042.436 C 875.053 2037.073 869.764 2034.573 867.065 2031.358"/></g></g><g><g transform="matrix(1 0 0 1 729.1446 295.7266)"><g><path fill="#000000" stroke="none" d="M 13.766 -20.391 L 12.25 -20.391 C 12.238 -21.172 12.016 -21.766 11.578 -22.172 C 11.148 -22.578 10.523 -22.781 9.703 -22.781 C 8.629 -22.781 7.875 -22.484 7.438 -21.891 C 7 -21.305 6.781 -20.258 6.781 -18.75 L 6.781 -16.609 L 11.422 -16.609 L 11.422 -14.938 L 6.781 -14.938 L 6.781 -1.656 L 10.469 -1.656 L 10.469 0 L 1.156 0 L 1.156 -1.656 L 3.906 -1.656 L 3.906 -14.938 L 1.156 -14.938 L 1.156 -16.609 L 3.906 -16.609 L 3.906 -18.688 C 3.906 -20.539 4.383 -21.941 5.344 -22.891 C 6.313 -23.836 7.727 -24.313 9.594 -24.313 C 10.289 -24.313 10.988 -24.25 11.688 -24.125 C 12.383 -24 13.078 -23.805 13.766 -23.547 Z M 13.766 -20.391"/></g></g><g transform="matrix(1 0 0 1 741.1446 295.7266)"><g><path fill="#000000" stroke="none" d="M 9.625 -1.094 C 11.164 -1.094 12.328 -1.703 13.109 -2.922 C 13.898 -4.141 14.297 -5.938 14.297 -8.313 C 14.297 -10.688 13.898 -12.477 13.109 -13.688 C 12.328 -14.906 11.164 -15.516 9.625 -15.516 C 8.082 -15.516 6.914 -14.906 6.125 -13.688 C 5.344 -12.477 4.953 -10.688 4.953 -8.313 C 4.953 -5.938 5.348 -4.141 6.141 -2.922 C 6.93 -1.703 8.094 -1.094 9.625 -1.094 Z M 9.625 0.453 C 7.207 0.453 5.266 -0.344 3.797 -1.938 C 2.328 -3.539 1.594 -5.664 1.594 -8.313 C 1.594 -10.957 2.32 -13.078 3.781 -14.672 C 5.25 -16.266 7.195 -17.063 9.625 -17.063 C 12.051 -17.063 13.992 -16.266 15.453 -14.672 C 16.922 -13.078 17.656 -10.957 17.656 -8.313 C 17.656 -5.664 16.922 -3.539 15.453 -1.938 C 13.992 -0.344 12.051 0.453 9.625 0.453 Z M 9.625 0.453"/></g></g><g transform="matrix(1 0 0 1 760.1446 295.7266)"><g><path fill="#000000" stroke="none" d="M 15.297 -16.641 L 15.297 -12.484 L 13.641 -12.484 C 13.586 -13.305 13.359 -13.922 12.953 -14.328 C 12.547 -14.734 11.953 -14.938 11.172 -14.938 C 9.754 -14.938 8.664 -14.445 7.906 -13.469 C 7.156 -12.488 6.781 -11.082 6.781 -9.25 L 6.781 -1.656 L 10.109 -1.656 L 10.109 0 L 1.313 0 L 1.313 -1.656 L 3.906 -1.656 L 3.906 -14.969 L 1.156 -14.969 L 1.156 -16.609 L 6.781 -16.609 L 6.781 -13.656 C 7.344 -14.813 8.066 -15.664 8.953 -16.219 C 9.836 -16.781 10.914 -17.063 12.188 -17.063 C 12.656 -17.063 13.145 -17.023 13.656 -16.953 C 14.176 -16.879 14.723 -16.773 15.297 -16.641 Z M 15.297 -16.641"/></g></g><g transform="matrix(1 0 0 1 775.1446 295.7266)"><g><path fill="#000000" stroke="none" d="M 15.359 -16.609 L 19.609 -3.641 L 23.359 -14.938 L 20.953 -14.938 L 20.953 -16.609 L 26.969 -16.609 L 26.969 -14.938 L 25.125 -14.938 L 20.188 0 L 17.797 0 L 13.703 -12.422 L 9.594 0 L 7.297 0 L 2.375 -14.938 L 0.516 -14.938 L 0.516 -16.609 L 8.031 -16.609 L 8.031 -14.938 L 5.344 -14.938 L 9.063 -3.641 L 13.344 -16.609 Z M 15.359 -16.609"/></g></g><g transform="matrix(1 0 0 1 802.1446 295.7266)"><g><path fill="#000000" stroke="none" d="M 12.734 -5.219 L 12.734 -8.734 L 9.031 -8.734 C 7.602 -8.734 6.539 -8.426 5.844 -7.813 C 5.145 -7.195 4.797 -6.254 4.797 -4.984 C 4.797 -3.828 5.148 -2.91 5.859 -2.234 C 6.566 -1.555 7.523 -1.219 8.734 -1.219 C 9.93 -1.219 10.895 -1.586 11.625 -2.328 C 12.363 -3.066 12.734 -4.031 12.734 -5.219 Z M 15.609 -10.375 L 15.609 -1.656 L 18.172 -1.656 L 18.172 0 L 12.734 0 L 12.734 -1.797 C 12.098 -1.023 11.363 -0.457 10.531 -0.094 C 9.695 0.27 8.723 0.453 7.609 0.453 C 5.766 0.453 4.301 -0.035 3.219 -1.016 C 2.133 -1.992 1.594 -3.316 1.594 -4.984 C 1.594 -6.703 2.211 -8.035 3.453 -8.984 C 4.691 -9.93 6.441 -10.406 8.703 -10.406 L 12.734 -10.406 L 12.734 -11.547 C 12.734 -12.805 12.348 -13.781 11.578 -14.469 C 10.816 -15.164 9.742 -15.516 8.359 -15.516 C 7.211 -15.516 6.301 -15.254 5.625 -14.734 C 4.945 -14.211 4.523 -13.441 4.359 -12.422 L 2.875 -12.422 L 2.875 -15.781 C 3.875 -16.207 4.844 -16.523 5.781 -16.734 C 6.727 -16.953 7.648 -17.063 8.547 -17.063 C 10.848 -17.063 12.598 -16.488 13.797 -15.344 C 15.004 -14.207 15.609 -12.551 15.609 -10.375 Z M 15.609 -10.375"/></g></g><g transform="matrix(1 0 0 1 821.1446 295.7266)"><g><path fill="#000000" stroke="none" d="M 15.297 -16.641 L 15.297 -12.484 L 13.641 -12.484 C 13.586 -13.305 13.359 -13.922 12.953 -14.328 C 12.547 -14.734 11.953 -14.938 11.172 -14.938 C 9.754 -14.938 8.664 -14.445 7.906 -13.469 C 7.156 -12.488 6.781 -11.082 6.781 -9.25 L 6.781 -1.656 L 10.109 -1.656 L 10.109 0 L 1.313 0 L 1.313 -1.656 L 3.906 -1.656 L 3.906 -14.969 L 1.156 -14.969 L 1.156 -16.609 L 6.781 -16.609 L 6.781 -13.656 C 7.344 -14.813 8.066 -15.664 8.953 -16.219 C 9.836 -16.781 10.914 -17.063 12.188 -17.063 C 12.656 -17.063 13.145 -17.023 13.656 -16.953 C 14.176 -16.879 14.723 -16.773 15.297 -16.641 Z M 15.297 -16.641"/></g></g><g transform="matrix(1 0 0 1 836.1446 295.7266)"><g><path fill="#000000" stroke="none" d="M 16.797 -1.656 L 19.547 -1.656 L 19.547 0 L 13.922 0 L 13.922 -2.594 C 13.359 -1.551 12.641 -0.781 11.766 -0.281 C 10.898 0.207 9.828 0.453 8.547 0.453 C 6.504 0.453 4.832 -0.352 3.531 -1.969 C 2.238 -3.594 1.594 -5.707 1.594 -8.313 C 1.594 -10.914 2.238 -13.023 3.531 -14.641 C 4.82 -16.254 6.492 -17.063 8.547 -17.063 C 9.828 -17.063 10.898 -16.813 11.766 -16.313 C 12.641 -15.82 13.359 -15.055 13.922 -14.016 L 13.922 -22.656 L 11.203 -22.656 L 11.203 -24.313 L 16.797 -24.313 Z M 13.922 -7.484 L 13.922 -9.125 C 13.922 -11.113 13.535 -12.633 12.766 -13.688 C 12.004 -14.738 10.895 -15.266 9.438 -15.266 C 7.957 -15.266 6.836 -14.68 6.078 -13.516 C 5.328 -12.348 4.953 -10.613 4.953 -8.313 C 4.953 -6.02 5.328 -4.285 6.078 -3.109 C 6.836 -1.93 7.957 -1.344 9.438 -1.344 C 10.895 -1.344 12.004 -1.863 12.766 -2.906 C 13.535 -3.957 13.922 -5.484 13.922 -7.484 Z M 13.922 -7.484"/></g></g></g><g transform="matrix(1 0 0 1 -19.6821 -1721.6976)"><path fill="none" stroke="#000000" stroke-miterlimit="10" stroke-width="3.736" d="M 181.354 2040.241 C 229.651 2040.577 277.877 2040.881 416.991 2042.202 M 182.76 2041.401 C 252.706 2038.135 322.155 2039.096 416.874 2042.526"/></g><g transform="matrix(1 0 0 1 -19.6821 -1721.6976)"><path fill="none" stroke="#000000" stroke-miterlimit="10" stroke-width="3.736" d="M 402.897 2050.08 C 406.538 2049.28 409.952 2047.592 416.995 2042.202 M 404.299 2051.233 C 408.643 2048.323 412.315 2046.362 416.877 2042.526 M 418.362 2043.1 C 413.46 2039.577 408.225 2034.186 404.694 2032.377 M 418.194 2042.397 C 412.616 2038.948 408.01 2035.666 403.971 2033.135"/></g><path fill="#f4c111" stroke="none" d="M 79.895 259.941 C 87.695 255.953 99.91 255.742 109.023 256.582 C 118.137 257.422 126.984 259.926 134.57 264.98 C 142.156 270.031 149.852 278.637 154.535 286.902 C 159.219 295.168 162.41 305.211 162.664 314.566 C 162.914 323.926 160.285 334.555 156.051 343.051 C 151.816 351.547 144.969 360.035 137.254 365.547 C 129.543 371.055 119.074 374.773 109.77 376.105 C 100.465 377.438 90.141 376.746 81.43 373.539 C 72.723 370.336 63.496 364.07 57.512 356.875 C 51.527 349.68 47.629 339.355 45.535 330.359 C 43.438 321.363 42.965 311.906 44.941 302.895 C 46.918 293.883 50.355 283.996 57.395 276.293 C 64.434 268.586 80.852 259.859 87.176 256.656 C 93.504 253.453 95.027 255.984 95.352 257.066 M 103.582 254.953 C 112.445 254.527 123.695 259.227 131.941 263.711 C 140.191 268.191 148.402 274.328 153.066 281.848 C 157.727 289.363 159.355 299.633 159.914 308.816 C 160.469 317.996 159.523 328.211 156.406 336.941 C 153.285 345.676 147.809 354.969 141.207 361.211 C 134.609 367.453 125.977 372.211 116.809 374.391 C 107.645 376.57 95.539 376.723 86.215 374.297 C 76.887 371.871 67.41 366.09 60.859 359.832 C 54.309 353.574 50.023 345.613 46.902 336.742 C 43.785 327.867 41.25 315.949 42.148 306.594 C 43.043 297.238 46.98 288.32 52.285 280.617 C 57.594 272.914 65.434 264.523 73.992 260.375 C 82.551 256.223 98.949 256.527 103.648 255.715 C 108.348 254.902 102.07 254.391 102.188 255.504"/><g clip-path="url(#iPRwwSCgclip-2)"><g transform="matrix(1 0 0 1 102.15 315.8248)"><path fill="none" stroke="#000000" stroke-miterlimit="10" stroke-width="4" d="M 9.643 -60.559 C 18.245 -59.86 28.491 -53.165 35.913 -47.208 C 43.338 -41.247 50.182 -33.188 54.182 -24.805 C 58.182 -16.419 60.385 -6.329 59.92 3.101 C 59.455 12.527 56.084 23.558 51.393 31.769 C 46.698 39.98 39.506 47.558 31.764 52.363 C 24.022 57.167 14.135 60.21 4.936 60.597 C -4.259 60.988 -14.826 58.425 -23.416 54.687 C -32.005 50.949 -40.716 45.46 -46.607 38.163 C -52.502 30.863 -57.084 20.187 -58.763 10.882 C -60.447 1.581 -59.388 -8.848 -56.697 -17.645 C -54.005 -26.446 -48.982 -35.157 -42.627 -41.911 C -36.271 -48.665 -29.365 -55.68 -18.56 -58.169 C -7.755 -60.657 13.553 -58.426 22.209 -56.837 C 30.866 -55.243 33.674 -49.68 33.373 -48.618 M 10.452 -58.93 C 18.955 -58.481 28.248 -53.747 35.522 -47.915 C 42.795 -42.079 49.862 -32.77 54.088 -23.919 C 58.315 -15.067 61.498 -4.122 60.877 5.187 C 60.26 14.499 55.483 24.281 50.366 31.941 C 45.248 39.601 38.229 46.3 30.178 51.144 C 22.123 55.988 11.17 60.277 2.061 61.011 C -7.052 61.742 -16.248 59.292 -24.49 55.538 C -32.728 51.781 -41.505 46.046 -47.388 38.472 C -53.271 30.902 -58.228 19.578 -59.787 10.097 C -61.345 0.617 -59.595 -9.383 -56.744 -18.403 C -53.892 -27.419 -49.127 -37.637 -42.673 -44.008 C -36.22 -50.376 -27.084 -53.997 -18.025 -56.614 C -8.966 -59.231 6.928 -59.395 11.682 -59.715 C 16.436 -60.036 10.905 -59.426 10.506 -58.536"/></g></g><g><g transform="matrix(1 0 0 1 87.0156 329.043)"><g><path fill="#000000" stroke="none" d="M 14.984 5.625 C 14.234 7.457 13.328 8.754 12.266 9.516 C 11.203 10.285 9.77 10.672 7.969 10.672 C 7.207 10.672 6.359 10.582 5.422 10.406 C 4.484 10.238 3.457 9.988 2.344 9.656 L 2.344 4.453 L 5 4.484 C 5.039 5.68 5.32 6.566 5.844 7.141 C 6.375 7.723 7.16 8.016 8.203 8.016 C 9.223 8.016 10.047 7.738 10.672 7.188 C 11.297 6.633 11.922 5.582 12.547 4.031 L 12.922 3.172 L 2.063 -22.078 L -0.641 -22.078 L -0.641 -24.922 L 13.734 -24.922 L 13.734 -22.078 L 10.766 -22.078 L 17.094 -7.344 L 23 -22.078 L 19.688 -22.078 L 19.688 -24.922 L 29.047 -24.922 L 29.047 -22.078 L 26.016 -22.078 Z M 14.984 5.625"/></g></g></g><g><g transform="matrix(1 0 0 1 447.8047 336.8008)"><g><path fill="#000000" stroke="none" d="M 23.938 -30.594 L 21.672 -30.594 C 21.734 -30.914 21.766 -31.227 21.766 -31.531 C 21.766 -32.25 21.578 -32.828 21.203 -33.266 C 20.672 -33.867 19.785 -34.172 18.547 -34.172 C 16.941 -34.172 15.723 -33.727 14.891 -32.844 C 14.066 -31.969 13.438 -30.395 13 -28.125 L 12.359 -24.922 L 19.328 -24.922 L 18.828 -22.406 L 11.875 -22.406 L 7.234 1.547 C 6.68 4.328 5.547 6.426 3.828 7.844 C 2.109 9.27 -0.148 9.984 -2.953 9.984 L -2.672 7.688 C -1.023 7.688 0.195 7.25 1 6.375 C 1.82 5.438 2.461 3.828 2.922 1.547 L 7.563 -22.406 L 3.438 -22.406 L 3.922 -24.922 L 8.047 -24.922 L 8.656 -28.031 C 9.207 -30.832 10.344 -32.938 12.063 -34.344 C 13.781 -35.758 16.035 -36.469 18.828 -36.469 C 19.879 -36.469 20.906 -36.375 21.906 -36.188 C 22.914 -36 23.906 -35.711 24.875 -35.328 Z M 23.938 -30.594"/></g></g></g><g><g transform="matrix(1 0 0 1 440.086 511.5977)"><g><path fill="#000000" stroke="none" d="M 23.938 -30.594 L 21.672 -30.594 C 21.734 -30.914 21.766 -31.227 21.766 -31.531 C 21.766 -32.25 21.578 -32.828 21.203 -33.266 C 20.672 -33.867 19.785 -34.172 18.547 -34.172 C 16.941 -34.172 15.723 -33.727 14.891 -32.844 C 14.066 -31.969 13.438 -30.395 13 -28.125 L 12.359 -24.922 L 19.328 -24.922 L 18.828 -22.406 L 11.875 -22.406 L 7.234 1.547 C 6.68 4.328 5.547 6.426 3.828 7.844 C 2.109 9.27 -0.148 9.984 -2.953 9.984 L -2.672 7.688 C -1.023 7.688 0.195 7.25 1 6.375 C 1.82 5.438 2.461 3.828 2.922 1.547 L 7.563 -22.406 L 3.438 -22.406 L 3.922 -24.922 L 8.047 -24.922 L 8.656 -28.031 C 9.207 -30.832 10.344 -32.938 12.063 -34.344 C 13.781 -35.758 16.035 -36.469 18.828 -36.469 C 19.879 -36.469 20.906 -36.375 21.906 -36.188 C 22.914 -36 23.906 -35.711 24.875 -35.328 Z M 23.938 -30.594"/></g></g><g transform="matrix(1 0 0 1 458.086 511.5977)"><g/></g><g transform="matrix(1 0 0 1 473.086 511.5977)"><g><path fill="#000000" stroke="none" d="M 8.438 -35 L 8.438 -21.984 L 4.719 -21.984 L 4.719 -35 Z M 8.438 -35"/></g></g></g><g transform="matrix(1 0 0 1 -19.6821 -1721.6976)"><path fill="none" stroke="#000000" stroke-miterlimit="10" stroke-width="3.611" d="M 414.159 2218.616 C 355.944 2222.924 299.967 2221.932 182.698 2222.338 M 412.288 2219.264 C 323.702 2218.17 235.452 2219.608 182.557 2221.647"/></g><g transform="matrix(1 0 0 1 -19.6821 -1721.6976)"><path fill="none" stroke="#000000" stroke-miterlimit="10" stroke-width="3.611" d="M 197.983 2211.112 C 192.647 2215.893 189.44 2216.787 182.698 2222.319 M 196.167 2211.741 C 190.846 2215.338 185.909 2219.659 182.565 2221.651 M 182.752 2222.557 C 186.889 2223.287 191.635 2228.561 197.292 2231.198 M 183.409 2221.776 C 186.678 2225.209 191.987 2228.057 196.604 2231.252"/></g><path fill="#26a169" stroke="none" d="M 79.883 449.625 C 87.652 445.754 99.148 443.668 108.25 444.426 C 117.348 445.18 126.762 449.254 134.484 454.16 C 142.207 459.063 150.121 466.355 154.59 473.855 C 159.055 481.355 161.27 490.789 161.285 499.16 C 161.301 507.531 158.887 516.496 154.684 524.078 C 150.477 531.66 143.668 539.848 136.063 544.664 C 128.453 549.481 118.148 552.027 109.043 552.981 C 99.934 553.93 89.891 553.047 81.414 550.367 C 72.934 547.688 64.164 543.008 58.168 536.906 C 52.172 530.801 47.762 522.133 45.445 513.758 C 43.125 505.379 42.289 494.961 44.262 486.641 C 46.234 478.32 50.645 470.27 57.281 463.832 C 63.922 457.395 79.09 450.703 84.09 448.016 C 89.086 445.328 87.074 447.016 87.27 447.715 M 91.715 444.324 C 100.203 442.285 111.043 444.73 120.063 447.723 C 129.086 450.715 139.535 456.375 145.848 462.277 C 152.16 468.18 155.633 474.895 157.949 483.145 C 160.266 491.398 161.574 503.145 159.746 511.781 C 157.918 520.418 152.57 528.77 146.977 534.973 C 141.383 541.176 134.535 545.973 126.18 549 C 117.824 552.027 106.219 553.746 96.836 553.141 C 87.457 552.535 77.773 550.059 69.887 545.367 C 62 540.672 53.949 532.383 49.516 524.981 C 45.078 517.578 43.328 509.383 43.277 500.949 C 43.23 492.516 45.207 482.043 49.223 474.379 C 53.238 466.715 60.207 459.93 67.379 454.965 C 74.551 450 87.895 446.156 92.254 444.586 C 96.617 443.012 93.469 444.531 93.543 445.535"/><g clip-path="url(#iPRwwSCgclip-3)"><g transform="matrix(1 0 0 1 101.967 499.4588)"><path fill="none" stroke="#000000" stroke-miterlimit="10" stroke-width="4" d="M 12.529 -52.314 C 21.33 -51.346 31.666 -46.81 38.826 -41.572 C 45.986 -36.338 52.049 -28.638 55.49 -20.892 C 58.931 -13.142 60.666 -3.471 59.467 4.912 C 58.263 13.299 53.596 22.135 48.283 29.42 C 42.971 36.705 35.588 44.6 27.588 48.631 C 19.588 52.658 9.428 53.639 0.295 53.592 C -8.838 53.549 -19.225 51.947 -27.217 48.358 C -35.209 44.772 -42.33 38.912 -47.658 32.069 C -52.99 25.225 -57.807 15.608 -59.194 7.291 C -60.58 -1.021 -59.362 -9.756 -55.983 -17.818 C -52.604 -25.885 -45.752 -35.178 -38.916 -41.092 C -32.084 -47.002 -24.717 -51.678 -14.979 -53.287 C -5.244 -54.9 12.654 -51.795 19.498 -50.76 C 26.342 -49.728 26.158 -47.951 26.084 -47.092 M 26.873 -48.013 C 35.088 -45.193 44.51 -37.767 49.951 -30.763 C 55.388 -23.76 58.767 -14.619 59.513 -5.982 C 60.26 2.651 57.896 13.17 54.431 21.037 C 50.963 28.908 45.33 36.096 38.717 41.233 C 32.103 46.365 23.76 49.916 14.748 51.846 C 5.732 53.779 -6.162 54.725 -15.362 52.815 C -24.561 50.904 -33.799 46.186 -40.451 40.381 C -47.104 34.576 -52.026 26.092 -55.268 17.983 C -58.51 9.873 -61.264 -0.146 -59.912 -8.271 C -58.557 -16.396 -52.436 -24.045 -47.151 -30.771 C -41.869 -37.498 -36.108 -44.713 -28.209 -48.627 C -20.311 -52.545 -9.135 -54.357 0.24 -54.267 C 9.615 -54.174 23.467 -49.49 28.041 -48.068 C 32.615 -46.65 28.068 -46.584 27.685 -45.74"/></g></g><g transform="matrix(1 0 0 1 -19.6821 -1721.6976)"><path fill="none" stroke="#000000" stroke-miterlimit="10" stroke-width="3.611" d="M 418.202 2223.287 C 372.807 2261.776 329.002 2295.26 236.592 2368.213 M 416.331 2223.94 C 346.085 2277.698 277.057 2333.573 236.452 2367.522"/></g><g transform="matrix(1 0 0 1 -19.6821 -1721.6976)"><path fill="none" stroke="#000000" stroke-miterlimit="10" stroke-width="3.611" d="M 243.268 2350.545 C 240.069 2356.842 238.963 2359.307 236.592 2368.194 M 241.452 2351.178 C 239.401 2357.342 237.784 2364.147 236.459 2367.526 M 236.647 2368.436 C 241.506 2365.815 247.096 2367.772 253.842 2366.655 M 237.303 2367.651 C 241.268 2367.643 247.459 2367.026 253.155 2366.709"/></g><path fill="#26a169" stroke="none" d="M 120.383 657.418 C 124.121 649.582 131.895 640.856 139.531 635.844 C 147.168 630.836 157.094 628.246 166.203 627.356 C 175.309 626.461 186.035 627.332 194.176 630.488 C 202.316 633.648 209.875 639.719 215.043 646.309 C 220.211 652.895 223.828 661.445 225.188 670.008 C 226.547 678.574 226.223 689.219 223.195 697.703 C 220.168 706.184 213.617 714.539 207.027 720.898 C 200.434 727.258 191.977 732.746 183.645 735.859 C 175.313 738.973 165.516 740.684 157.035 739.57 C 148.551 738.453 139.734 734.34 132.75 729.168 C 125.762 723.992 118.688 716.301 115.113 708.527 C 111.543 700.754 110.059 691.695 111.324 682.531 C 112.59 673.371 120.422 658.754 122.703 653.559 C 124.988 648.359 124.445 650.93 125.027 651.359 M 126.441 645.949 C 131.875 639.117 141.922 634.367 150.875 631.168 C 159.824 627.969 171.543 625.988 180.156 626.754 C 188.77 627.516 195.641 630.668 202.547 635.742 C 209.453 640.816 217.723 649.266 221.602 657.199 C 225.48 665.133 226.414 675.008 225.824 683.344 C 225.238 691.676 222.797 699.672 218.078 707.207 C 213.359 714.738 205.273 723.238 197.508 728.543 C 189.742 733.844 180.59 737.856 171.48 739.016 C 162.375 740.176 150.926 738.606 142.871 735.504 C 134.816 732.402 128.387 727.023 123.156 720.41 C 117.922 713.793 113.027 704.32 111.469 695.809 C 109.914 687.293 111.223 677.656 113.816 669.328 C 116.41 660.996 124.559 649.746 127.027 645.824 C 129.496 641.898 127.949 645.035 128.625 645.781"/><g clip-path="url(#iPRwwSCgclip-4)"><g transform="matrix(0.788 -0.616 0.616 0.788 168.482 683.0818)"><path fill="none" stroke="#000000" stroke-miterlimit="10" stroke-width="4" d="M 12.529 -52.314 C 21.333 -51.345 31.665 -46.813 38.826 -41.572 C 45.986 -36.336 52.051 -28.641 55.491 -20.891 C 58.93 -13.146 60.666 -3.471 59.464 4.914 C 58.263 13.3 53.597 22.134 48.283 29.421 C 42.971 36.705 35.586 44.598 27.588 48.628 C 19.59 52.657 9.427 53.64 0.293 53.593 C -8.838 53.549 -19.225 51.948 -27.216 48.358 C -35.209 44.772 -42.332 38.911 -47.661 32.069 C -52.987 25.223 -57.807 15.606 -59.196 7.293 C -60.582 -1.023 -59.362 -9.756 -55.982 -17.821 C -52.604 -25.883 -45.752 -35.181 -38.917 -41.09 C -32.085 -47.002 -24.717 -51.677 -14.982 -53.287 C -5.244 -54.9 12.653 -51.795 19.499 -50.762 C 26.342 -49.73 26.159 -47.949 26.083 -47.092 M 26.875 -48.015 C 35.088 -45.193 44.509 -37.769 49.949 -30.765 C 55.387 -23.758 58.766 -14.618 59.512 -5.984 C 60.261 2.652 57.899 13.169 54.431 21.036 C 50.963 28.909 45.331 36.096 38.718 41.232 C 32.102 46.366 23.759 49.917 14.747 51.845 C 5.736 53.778 -6.162 54.724 -15.363 52.815 C -24.562 50.904 -33.801 46.185 -40.452 40.381 C -47.103 34.577 -52.026 26.093 -55.268 17.982 C -58.512 9.874 -61.262 -0.147 -59.912 -8.272 C -58.556 -16.398 -52.435 -24.046 -47.152 -30.772 C -41.869 -37.498 -36.106 -44.712 -28.208 -48.626 C -20.308 -52.543 -9.134 -54.357 0.239 -54.267 C 9.616 -54.175 23.467 -49.489 28.042 -48.069 C 32.614 -46.651 28.065 -46.583 27.685 -45.741"/></g></g><g clip-path="url(#iPRwwSCgclip-5)"><g transform="matrix(1 0 0 1 -19.6821 -1721.6976)"><path fill="none" stroke="#000000" stroke-miterlimit="10" stroke-width="5.545" d="M 873.51 2221.319 C 790.303 2218.912 703.948 2218.237 534.741 2215.83 M 874.35 2220.811 C 757.272 2218.096 641.182 2216.245 533.831 2216.627"/></g></g><g transform="matrix(1 0 0 1 -19.6821 -1721.6976)"><path fill="none" stroke="#000000" stroke-miterlimit="10" stroke-width="5.545" d="M 549.737 2206.416 C 547.545 2209.92 540.815 2213.162 534.881 2215.268 M 550.995 2205.655 C 544.733 2209.694 539.745 2212.776 533.518 2216.463 M 534.471 2218.729 C 539.799 2218.541 543.354 2221.842 549.502 2229.643 M 534.635 2217.096 C 537.96 2218.752 541.358 2222.377 550.553 2228.022"/></g><g transform="matrix(1 0 0 1 -19.6821 -1721.6976)"><path fill="none" stroke="#000000" stroke-miterlimit="10" stroke-width="3.736" d="M 229.186 1880.092 C 268.35 1906.17 309.038 1932.069 427.557 2008.616 M 230.596 1881.252 C 287.51 1916.123 345.889 1954.663 427.44 2008.94"/></g><g transform="matrix(1 0 0 1 -19.6821 -1721.6976)"><path fill="none" stroke="#000000" stroke-miterlimit="10" stroke-width="3.736" d="M 410.67 2007.549 C 414.741 2008.545 418.721 2008.666 427.561 2008.616 M 412.073 2008.698 C 417.081 2008.397 421.581 2009.092 427.444 2008.936 M 428.928 2009.51 C 426.475 2003.924 423.795 1996.405 422.456 1992.788 M 428.76 2008.811 C 425.764 2003.217 423.624 1997.877 421.733 1993.545"/></g><path fill="#f4c111" stroke="none" d="M 172.996 64.82 C 181.719 65.656 192.129 72.051 199.359 77.66 C 206.59 83.27 212.703 90.141 216.379 98.484 C 220.055 106.824 221.914 118.219 221.414 127.707 C 220.914 137.191 218.203 147.375 213.383 155.402 C 208.563 163.426 200.625 170.973 192.484 175.855 C 184.344 180.738 174.004 184.211 164.539 184.707 C 155.07 185.199 144.246 182.703 135.688 178.82 C 127.125 174.938 118.797 168.797 113.176 161.41 C 107.559 154.023 103.152 143.781 101.98 134.492 C 100.809 125.207 103.074 114.406 106.148 105.695 C 109.223 96.984 113.91 88.758 120.422 82.223 C 126.938 75.691 135.156 69.207 145.234 66.5 C 155.316 63.789 173.848 65.266 180.902 65.969 C 187.961 66.672 187.883 69.625 187.574 70.711 M 195.648 73.359 C 203.348 77.77 210.309 87.785 214.848 96 C 219.387 104.215 223.012 113.809 222.895 122.652 C 222.781 131.5 218.633 141.031 214.16 149.07 C 209.688 157.113 203.395 165.211 196.07 170.895 C 188.742 176.578 179.125 181.465 170.203 183.176 C 161.281 184.891 151.445 184.254 142.543 181.16 C 133.645 178.07 123.355 171.684 116.801 164.621 C 110.246 157.559 105.367 147.59 103.211 138.789 C 101.055 129.988 101.723 120.973 103.867 111.813 C 106.012 102.656 110.289 91.242 116.078 83.84 C 121.867 76.438 129.984 71.035 138.602 67.395 C 147.219 63.758 158.34 60.902 167.789 62.008 C 177.238 63.117 190.898 72.191 195.297 74.035 C 199.695 75.879 194.68 72.074 194.18 73.074"/><g clip-path="url(#iPRwwSCgclip-6)"><g transform="matrix(0.843 0.538 -0.538 0.843 161.694 123.9038)"><path fill="none" stroke="#000000" stroke-miterlimit="10" stroke-width="4" d="M 9.643 -60.556 C 18.249 -59.858 28.493 -53.166 35.914 -47.207 C 43.338 -41.246 50.18 -33.189 54.183 -24.804 C 58.181 -16.42 60.385 -6.33 59.92 3.1 C 59.453 12.526 56.083 23.56 51.391 31.767 C 46.698 39.98 39.503 47.556 31.764 52.361 C 24.021 57.168 14.133 60.211 4.937 60.599 C -4.259 60.986 -14.827 58.426 -23.418 54.687 C -32.008 50.948 -40.717 45.464 -46.609 38.163 C -52.5 30.863 -57.081 20.186 -58.763 10.884 C -60.445 1.583 -59.387 -8.847 -56.699 -17.647 C -54.006 -26.446 -48.982 -35.157 -42.626 -41.911 C -36.269 -48.664 -29.367 -55.682 -18.559 -58.169 C -7.756 -60.657 13.555 -58.428 22.212 -56.836 C 30.864 -55.244 33.674 -49.679 33.374 -48.617 M 10.453 -58.932 C 18.955 -58.483 28.247 -53.746 35.521 -47.911 C 42.794 -42.076 49.86 -32.768 54.086 -23.917 C 58.315 -15.069 61.498 -4.121 60.879 5.19 C 60.259 14.5 55.483 24.281 50.366 31.94 C 45.251 39.601 38.228 46.298 30.177 51.145 C 22.123 55.988 11.169 60.278 2.06 61.012 C -7.052 61.744 -16.247 59.295 -24.488 55.537 C -32.729 51.779 -41.508 46.047 -47.39 38.472 C -53.273 30.901 -58.225 19.577 -59.785 10.096 C -61.344 0.618 -59.596 -9.385 -56.741 -18.403 C -53.89 -27.419 -49.127 -37.641 -42.675 -44.006 C -36.222 -50.376 -27.084 -53.993 -18.025 -56.614 C -8.964 -59.232 6.926 -59.397 11.684 -59.718 C 16.439 -60.037 10.905 -59.429 10.506 -58.535"/></g></g><g><g transform="matrix(1 0 0 1 146.2213 138.3281)"><g><path fill="#000000" stroke="none" d="M 16.766 -15.984 L 21.141 -22.203 L 18.063 -22.188 L 18.031 -25.031 L 27.734 -25.094 L 27.766 -22.25 L 24.469 -22.219 L 18.156 -13.313 L 25.625 -3 L 28.938 -3.016 L 28.953 -0.172 L 13.109 -0.078 L 13.094 -2.922 L 16.297 -2.938 L 11.563 -9.469 L 6.906 -2.891 L 10.25 -2.906 L 10.266 -0.063 L 0 0 L -0.016 -2.844 L 3.547 -2.859 L 10.094 -12.203 L 2.906 -22.094 L 0.109 -22.078 L 0.078 -24.922 L 15.297 -25.016 L 15.328 -22.172 L 12.297 -22.156 Z M 16.766 -15.984"/></g></g></g><g><g transform="matrix(1 0 0 1 67.6016 511.9024)"><g><path fill="#000000" stroke="none" d="M 20.609 -11.234 L 20.609 -13.688 C 20.609 -16.594 20.234 -18.691 19.484 -19.984 C 18.734 -21.285 17.535 -21.938 15.891 -21.938 C 14.172 -21.938 12.961 -21.254 12.266 -19.891 C 11.578 -18.523 11.234 -16.051 11.234 -12.469 C 11.234 -8.895 11.582 -6.422 12.281 -5.047 C 12.988 -3.672 14.191 -2.984 15.891 -2.984 C 17.535 -2.984 18.734 -3.629 19.484 -4.922 C 20.234 -6.223 20.609 -8.328 20.609 -11.234 Z M 28.906 -2.844 L 32.438 -2.844 L 32.438 0 L 20.609 0 L 20.609 -3.172 C 19.898 -1.867 18.945 -0.898 17.75 -0.266 C 16.563 0.367 15.094 0.688 13.344 0.688 C 9.813 0.688 7.031 -0.484 5 -2.828 C 2.977 -5.18 1.969 -8.395 1.969 -12.469 C 1.969 -16.563 2.977 -19.77 5 -22.094 C 7.031 -24.426 9.813 -25.594 13.344 -25.594 C 15.094 -25.594 16.563 -25.273 17.75 -24.641 C 18.945 -24.016 19.898 -23.051 20.609 -21.75 L 20.609 -33.656 L 17.047 -33.656 L 17.047 -36.469 L 28.906 -36.469 Z M 28.906 -2.844"/></g></g><g transform="matrix(1 0 0 1 101.6016 511.9024)"><g><path fill="#000000" stroke="none" d="M 14.984 5.625 C 14.234 7.457 13.328 8.754 12.266 9.516 C 11.203 10.285 9.77 10.672 7.969 10.672 C 7.207 10.672 6.359 10.582 5.422 10.406 C 4.484 10.238 3.457 9.988 2.344 9.656 L 2.344 4.453 L 5 4.484 C 5.039 5.68 5.32 6.566 5.844 7.141 C 6.375 7.723 7.16 8.016 8.203 8.016 C 9.223 8.016 10.047 7.738 10.672 7.188 C 11.297 6.633 11.922 5.582 12.547 4.031 L 12.922 3.172 L 2.063 -22.078 L -0.641 -22.078 L -0.641 -24.922 L 13.734 -24.922 L 13.734 -22.078 L 10.766 -22.078 L 17.094 -7.344 L 23 -22.078 L 19.688 -22.078 L 19.688 -24.922 L 29.047 -24.922 L 29.047 -22.078 L 26.016 -22.078 Z M 14.984 5.625"/></g></g></g><g><g transform="matrix(1 0 0 1 134.2539 700.8672)"><g><path fill="#000000" stroke="none" d="M 20.609 -11.234 L 20.609 -13.688 C 20.609 -16.594 20.234 -18.691 19.484 -19.984 C 18.734 -21.285 17.535 -21.938 15.891 -21.938 C 14.172 -21.938 12.961 -21.254 12.266 -19.891 C 11.578 -18.523 11.234 -16.051 11.234 -12.469 C 11.234 -8.895 11.582 -6.422 12.281 -5.047 C 12.988 -3.672 14.191 -2.984 15.891 -2.984 C 17.535 -2.984 18.734 -3.629 19.484 -4.922 C 20.234 -6.223 20.609 -8.328 20.609 -11.234 Z M 28.906 -2.844 L 32.438 -2.844 L 32.438 0 L 20.609 0 L 20.609 -3.172 C 19.898 -1.867 18.945 -0.898 17.75 -0.266 C 16.563 0.367 15.094 0.688 13.344 0.688 C 9.813 0.688 7.031 -0.484 5 -2.828 C 2.977 -5.18 1.969 -8.395 1.969 -12.469 C 1.969 -16.563 2.977 -19.77 5 -22.094 C 7.031 -24.426 9.813 -25.594 13.344 -25.594 C 15.094 -25.594 16.563 -25.273 17.75 -24.641 C 18.945 -24.016 19.898 -23.051 20.609 -21.75 L 20.609 -33.656 L 17.047 -33.656 L 17.047 -36.469 L 28.906 -36.469 Z M 28.906 -2.844"/></g></g><g transform="matrix(1 0 0 1 168.2539 700.8672)"><g><path fill="#000000" stroke="none" d="M 16.859 -15.891 L 21.266 -22.078 L 18.188 -22.078 L 18.188 -24.922 L 27.891 -24.922 L 27.891 -22.078 L 24.594 -22.078 L 18.234 -13.203 L 25.641 -2.844 L 28.953 -2.844 L 28.953 0 L 13.109 0 L 13.109 -2.844 L 16.313 -2.844 L 11.625 -9.406 L 6.922 -2.844 L 10.266 -2.844 L 10.266 0 L 0 0 L 0 -2.844 L 3.563 -2.844 L 10.172 -12.141 L 3.031 -22.078 L 0.234 -22.078 L 0.234 -24.922 L 15.453 -24.922 L 15.453 -22.078 L 12.422 -22.078 Z M 16.859 -15.891"/></g></g></g><g clip-path="url(#iPRwwSCgclip-7)"><g transform="matrix(1 0 0 1 -19.6821 -1721.6976)"><path fill="none" stroke="#98c0f0" stroke-miterlimit="10" stroke-width="8" d="M 45.811 2127.483 L 904.577 2127.366"/></g></g><g><g transform="matrix(1 0 0 1 698.8086 479.2305)"><g><path fill="#000000" stroke="none" d="M 3.688 -1.656 L 3.688 -22.656 L 0.922 -22.656 L 0.922 -24.313 L 6.563 -24.313 L 6.563 -14.016 C 7.125 -15.055 7.836 -15.82 8.703 -16.313 C 9.578 -16.813 10.656 -17.063 11.938 -17.063 C 13.977 -17.063 15.645 -16.254 16.938 -14.641 C 18.227 -13.023 18.875 -10.914 18.875 -8.313 C 18.875 -5.707 18.227 -3.594 16.938 -1.969 C 15.645 -0.352 13.977 0.453 11.938 0.453 C 10.656 0.453 9.578 0.207 8.703 -0.281 C 7.836 -0.781 7.125 -1.551 6.563 -2.594 L 6.563 0 L 0.922 0 L 0.922 -1.656 Z M 6.563 -7.484 C 6.563 -5.484 6.941 -3.957 7.703 -2.906 C 8.473 -1.863 9.586 -1.344 11.047 -1.344 C 12.516 -1.344 13.625 -1.93 14.375 -3.109 C 15.133 -4.285 15.516 -6.02 15.516 -8.313 C 15.516 -10.613 15.133 -12.348 14.375 -13.516 C 13.625 -14.68 12.516 -15.266 11.047 -15.266 C 9.586 -15.266 8.473 -14.738 7.703 -13.688 C 6.941 -12.633 6.563 -11.113 6.563 -9.125 Z M 6.563 -7.484"/></g></g><g transform="matrix(1 0 0 1 718.8086 479.2305)"><g><path fill="#000000" stroke="none" d="M 12.734 -5.219 L 12.734 -8.734 L 9.031 -8.734 C 7.602 -8.734 6.539 -8.426 5.844 -7.813 C 5.145 -7.195 4.797 -6.254 4.797 -4.984 C 4.797 -3.828 5.148 -2.91 5.859 -2.234 C 6.566 -1.555 7.523 -1.219 8.734 -1.219 C 9.93 -1.219 10.895 -1.586 11.625 -2.328 C 12.363 -3.066 12.734 -4.031 12.734 -5.219 Z M 15.609 -10.375 L 15.609 -1.656 L 18.172 -1.656 L 18.172 0 L 12.734 0 L 12.734 -1.797 C 12.098 -1.023 11.363 -0.457 10.531 -0.094 C 9.695 0.27 8.723 0.453 7.609 0.453 C 5.766 0.453 4.301 -0.035 3.219 -1.016 C 2.133 -1.992 1.594 -3.316 1.594 -4.984 C 1.594 -6.703 2.211 -8.035 3.453 -8.984 C 4.691 -9.93 6.441 -10.406 8.703 -10.406 L 12.734 -10.406 L 12.734 -11.547 C 12.734 -12.805 12.348 -13.781 11.578 -14.469 C 10.816 -15.164 9.742 -15.516 8.359 -15.516 C 7.211 -15.516 6.301 -15.254 5.625 -14.734 C 4.945 -14.211 4.523 -13.441 4.359 -12.422 L 2.875 -12.422 L 2.875 -15.781 C 3.875 -16.207 4.844 -16.523 5.781 -16.734 C 6.727 -16.953 7.648 -17.063 8.547 -17.063 C 10.848 -17.063 12.598 -16.488 13.797 -15.344 C 15.004 -14.207 15.609 -12.551 15.609 -10.375 Z M 15.609 -10.375"/></g></g><g transform="matrix(1 0 0 1 737.8086 479.2305)"><g><path fill="#000000" stroke="none" d="M 16.453 -4.984 C 16.047 -3.211 15.266 -1.863 14.109 -0.938 C 12.953 -0.008 11.457 0.453 9.625 0.453 C 7.207 0.453 5.266 -0.344 3.797 -1.938 C 2.328 -3.539 1.594 -5.664 1.594 -8.313 C 1.594 -10.969 2.328 -13.086 3.797 -14.672 C 5.266 -16.266 7.207 -17.063 9.625 -17.063 C 10.676 -17.063 11.723 -16.938 12.766 -16.688 C 13.805 -16.445 14.852 -16.078 15.906 -15.578 L 15.906 -11.328 L 14.234 -11.328 C 14.016 -12.785 13.535 -13.848 12.797 -14.516 C 12.066 -15.18 11.02 -15.516 9.656 -15.516 C 8.102 -15.516 6.93 -14.91 6.141 -13.703 C 5.348 -12.504 4.953 -10.707 4.953 -8.313 C 4.953 -5.914 5.344 -4.113 6.125 -2.906 C 6.914 -1.695 8.094 -1.094 9.656 -1.094 C 10.895 -1.094 11.883 -1.414 12.625 -2.063 C 13.363 -2.707 13.867 -3.68 14.141 -4.984 Z M 16.453 -4.984"/></g></g><g transform="matrix(1 0 0 1 755.8086 479.2305)"><g><path fill="#000000" stroke="none" d="M 9.156 0 L 1.094 0 L 1.094 -1.656 L 3.688 -1.656 L 3.688 -22.656 L 0.922 -22.656 L 0.922 -24.313 L 6.563 -24.313 L 6.563 -8.484 L 13.563 -14.938 L 11.172 -14.938 L 11.172 -16.609 L 18.688 -16.609 L 18.688 -14.938 L 15.844 -14.938 L 10.906 -10.375 L 17.219 -1.656 L 19.609 -1.656 L 19.609 0 L 11.422 0 L 11.422 -1.656 L 13.797 -1.656 L 8.828 -8.484 L 6.563 -6.375 L 6.563 -1.656 L 9.156 -1.656 Z M 9.156 0"/></g></g><g transform="matrix(1 0 0 1 774.8086 479.2305)"><g><path fill="#000000" stroke="none" d="M 15.359 -16.609 L 19.609 -3.641 L 23.359 -14.938 L 20.953 -14.938 L 20.953 -16.609 L 26.969 -16.609 L 26.969 -14.938 L 25.125 -14.938 L 20.188 0 L 17.797 0 L 13.703 -12.422 L 9.594 0 L 7.297 0 L 2.375 -14.938 L 0.516 -14.938 L 0.516 -16.609 L 8.031 -16.609 L 8.031 -14.938 L 5.344 -14.938 L 9.063 -3.641 L 13.344 -16.609 Z M 15.359 -16.609"/></g></g><g transform="matrix(1 0 0 1 801.8086 479.2305)"><g><path fill="#000000" stroke="none" d="M 12.734 -5.219 L 12.734 -8.734 L 9.031 -8.734 C 7.602 -8.734 6.539 -8.426 5.844 -7.813 C 5.145 -7.195 4.797 -6.254 4.797 -4.984 C 4.797 -3.828 5.148 -2.91 5.859 -2.234 C 6.566 -1.555 7.523 -1.219 8.734 -1.219 C 9.93 -1.219 10.895 -1.586 11.625 -2.328 C 12.363 -3.066 12.734 -4.031 12.734 -5.219 Z M 15.609 -10.375 L 15.609 -1.656 L 18.172 -1.656 L 18.172 0 L 12.734 0 L 12.734 -1.797 C 12.098 -1.023 11.363 -0.457 10.531 -0.094 C 9.695 0.27 8.723 0.453 7.609 0.453 C 5.766 0.453 4.301 -0.035 3.219 -1.016 C 2.133 -1.992 1.594 -3.316 1.594 -4.984 C 1.594 -6.703 2.211 -8.035 3.453 -8.984 C 4.691 -9.93 6.441 -10.406 8.703 -10.406 L 12.734 -10.406 L 12.734 -11.547 C 12.734 -12.805 12.348 -13.781 11.578 -14.469 C 10.816 -15.164 9.742 -15.516 8.359 -15.516 C 7.211 -15.516 6.301 -15.254 5.625 -14.734 C 4.945 -14.211 4.523 -13.441 4.359 -12.422 L 2.875 -12.422 L 2.875 -15.781 C 3.875 -16.207 4.844 -16.523 5.781 -16.734 C 6.727 -16.953 7.648 -17.063 8.547 -17.063 C 10.848 -17.063 12.598 -16.488 13.797 -15.344 C 15.004 -14.207 15.609 -12.551 15.609 -10.375 Z M 15.609 -10.375"/></g></g><g transform="matrix(1 0 0 1 820.8086 479.2305)"><g><path fill="#000000" stroke="none" d="M 15.297 -16.641 L 15.297 -12.484 L 13.641 -12.484 C 13.586 -13.305 13.359 -13.922 12.953 -14.328 C 12.547 -14.734 11.953 -14.938 11.172 -14.938 C 9.754 -14.938 8.664 -14.445 7.906 -13.469 C 7.156 -12.488 6.781 -11.082 6.781 -9.25 L 6.781 -1.656 L 10.109 -1.656 L 10.109 0 L 1.313 0 L 1.313 -1.656 L 3.906 -1.656 L 3.906 -14.969 L 1.156 -14.969 L 1.156 -16.609 L 6.781 -16.609 L 6.781 -13.656 C 7.344 -14.813 8.066 -15.664 8.953 -16.219 C 9.836 -16.781 10.914 -17.063 12.188 -17.063 C 12.656 -17.063 13.145 -17.023 13.656 -16.953 C 14.176 -16.879 14.723 -16.773 15.297 -16.641 Z M 15.297 -16.641"/></g></g><g transform="matrix(1 0 0 1 835.8086 479.2305)"><g><path fill="#000000" stroke="none" d="M 16.797 -1.656 L 19.547 -1.656 L 19.547 0 L 13.922 0 L 13.922 -2.594 C 13.359 -1.551 12.641 -0.781 11.766 -0.281 C 10.898 0.207 9.828 0.453 8.547 0.453 C 6.504 0.453 4.832 -0.352 3.531 -1.969 C 2.238 -3.594 1.594 -5.707 1.594 -8.313 C 1.594 -10.914 2.238 -13.023 3.531 -14.641 C 4.82 -16.254 6.492 -17.063 8.547 -17.063 C 9.828 -17.063 10.898 -16.813 11.766 -16.313 C 12.641 -15.82 13.359 -15.055 13.922 -14.016 L 13.922 -22.656 L 11.203 -22.656 L 11.203 -24.313 L 16.797 -24.313 Z M 13.922 -7.484 L 13.922 -9.125 C 13.922 -11.113 13.535 -12.633 12.766 -13.688 C 12.004 -14.738 10.895 -15.266 9.438 -15.266 C 7.957 -15.266 6.836 -14.68 6.078 -13.516 C 5.328 -12.348 4.953 -10.613 4.953 -8.313 C 4.953 -6.02 5.328 -4.285 6.078 -3.109 C 6.836 -1.93 7.957 -1.344 9.438 -1.344 C 10.895 -1.344 12.004 -1.863 12.766 -2.906 C 13.535 -3.957 13.922 -5.484 13.922 -7.484 Z M 13.922 -7.484"/></g></g></g><g><g transform="matrix(1 0 0 1 305.8555 683.9688)"><g><path fill="#000000" stroke="none" d="M 15.313 7.484 C 11.508 5.773 8.641 3.07 6.703 -0.625 C 4.766 -4.32 3.797 -8.941 3.797 -14.484 C 3.797 -20.047 4.766 -24.676 6.703 -28.375 C 8.641 -32.07 11.508 -34.77 15.313 -36.469 L 15.313 -34.172 C 12.906 -32.516 11.176 -30.18 10.125 -27.172 C 9.082 -24.172 8.563 -19.941 8.563 -14.484 C 8.563 -9.047 9.082 -4.82 10.125 -1.813 C 11.176 1.195 12.906 3.531 15.313 5.188 Z M 15.313 7.484"/></g></g><g transform="matrix(1 0 0 1 324.8555 683.9688)"><g><path fill="#000000" stroke="none" d="M 25.203 -2.484 L 29.328 -2.484 L 29.328 0 L 20.891 0 L 20.891 -3.891 C 20.047 -2.328 18.969 -1.172 17.656 -0.422 C 16.352 0.316 14.742 0.688 12.828 0.688 C 9.766 0.688 7.258 -0.523 5.313 -2.953 C 3.363 -5.391 2.391 -8.563 2.391 -12.469 C 2.391 -16.375 3.359 -19.535 5.297 -21.953 C 7.234 -24.379 9.742 -25.594 12.828 -25.594 C 14.742 -25.594 16.352 -25.223 17.656 -24.484 C 18.969 -23.742 20.047 -22.594 20.891 -21.031 L 20.891 -33.984 L 16.813 -33.984 L 16.813 -36.469 L 25.203 -36.469 Z M 20.891 -11.234 L 20.891 -13.688 C 20.891 -16.676 20.313 -18.957 19.156 -20.531 C 18.008 -22.113 16.344 -22.906 14.156 -22.906 C 11.938 -22.906 10.258 -22.031 9.125 -20.281 C 8 -18.531 7.438 -15.926 7.438 -12.469 C 7.438 -9.031 8 -6.426 9.125 -4.656 C 10.258 -2.895 11.938 -2.016 14.156 -2.016 C 16.344 -2.016 18.008 -2.801 19.156 -4.375 C 20.313 -5.945 20.891 -8.234 20.891 -11.234 Z M 20.891 -11.234"/></g></g><g transform="matrix(1 0 0 1 355.8555 683.9688)"><g><path fill="#000000" stroke="none" d="M 13.969 -15.219 L 19.203 -22.406 L 15.844 -22.406 L 15.844 -24.922 L 25.438 -24.922 L 25.438 -22.406 L 22.125 -22.406 L 15.453 -13.203 L 23.234 -2.484 L 26.484 -2.484 L 26.484 0 L 14.984 0 L 14.984 -2.484 L 18.141 -2.484 L 12.734 -9.938 L 7.297 -2.484 L 10.531 -2.484 L 10.531 0 L 1.063 0 L 1.063 -2.484 L 4.359 -2.484 L 11.234 -11.953 L 3.656 -22.406 L 0.594 -22.406 L 0.594 -24.922 L 11.719 -24.922 L 11.719 -22.406 L 8.75 -22.406 Z M 13.969 -15.219"/></g></g><g transform="matrix(1 0 0 1 382.8555 683.9688)"><g><path fill="#000000" stroke="none" d="M 1.734 4.672 C 3.203 3.586 4.281 2.313 4.969 0.844 C 5.656 -0.613 6 -2.379 6 -4.453 L 6 -5.328 L 10.625 -5.328 C 10.5 -2.648 9.867 -0.352 8.734 1.563 C 7.598 3.477 5.891 5.141 3.609 6.547 Z M 1.734 4.672"/></g></g><g transform="matrix(1 0 0 1 397.8555 683.9688)"><g/></g><g transform="matrix(1 0 0 1 412.8555 683.9688)"><g><path fill="#000000" stroke="none" d="M 25.203 -2.484 L 29.328 -2.484 L 29.328 0 L 20.891 0 L 20.891 -3.891 C 20.047 -2.328 18.969 -1.172 17.656 -0.422 C 16.352 0.316 14.742 0.688 12.828 0.688 C 9.766 0.688 7.258 -0.523 5.313 -2.953 C 3.363 -5.391 2.391 -8.563 2.391 -12.469 C 2.391 -16.375 3.359 -19.535 5.297 -21.953 C 7.234 -24.379 9.742 -25.594 12.828 -25.594 C 14.742 -25.594 16.352 -25.223 17.656 -24.484 C 18.969 -23.742 20.047 -22.594 20.891 -21.031 L 20.891 -33.984 L 16.813 -33.984 L 16.813 -36.469 L 25.203 -36.469 Z M 20.891 -11.234 L 20.891 -13.688 C 20.891 -16.676 20.313 -18.957 19.156 -20.531 C 18.008 -22.113 16.344 -22.906 14.156 -22.906 C 11.938 -22.906 10.258 -22.031 9.125 -20.281 C 8 -18.531 7.438 -15.926 7.438 -12.469 C 7.438 -9.031 8 -6.426 9.125 -4.656 C 10.258 -2.895 11.938 -2.016 14.156 -2.016 C 16.344 -2.016 18.008 -2.801 19.156 -4.375 C 20.313 -5.945 20.891 -8.234 20.891 -11.234 Z M 20.891 -11.234"/></g></g><g transform="matrix(1 0 0 1 443.8555 683.9688)"><g><path fill="#000000" stroke="none" d="M 10.359 4.578 L 12 0.422 L 2.703 -22.406 L -0.141 -22.406 L -0.141 -24.922 L 11.328 -24.922 L 11.328 -22.406 L 7.344 -22.406 L 14.344 -5.281 L 21.359 -22.406 L 17.625 -22.406 L 17.625 -24.922 L 26.984 -24.922 L 26.984 -22.406 L 24.188 -22.406 L 12.781 5.625 C 12 7.563 11.129 8.883 10.172 9.594 C 9.223 10.313 7.879 10.672 6.141 10.672 C 5.41 10.672 4.656 10.609 3.875 10.484 C 3.102 10.359 2.328 10.176 1.547 9.938 L 1.547 5.188 L 3.75 5.188 C 3.844 6.25 4.113 7.008 4.563 7.469 C 5.008 7.926 5.703 8.156 6.641 8.156 C 7.492 8.156 8.18 7.914 8.703 7.438 C 9.234 6.969 9.785 6.016 10.359 4.578 Z M 10.359 4.578"/></g></g><g transform="matrix(1 0 0 1 470.8555 683.9688)"><g><path fill="#000000" stroke="none" d="M 3.406 7.484 L 3.406 5.188 C 5.813 3.531 7.539 1.195 8.594 -1.813 C 9.645 -4.82 10.172 -9.047 10.172 -14.484 C 10.172 -19.941 9.645 -24.172 8.594 -27.172 C 7.539 -30.18 5.813 -32.516 3.406 -34.172 L 3.406 -36.469 C 7.219 -34.77 10.094 -32.07 12.031 -28.375 C 13.969 -24.676 14.938 -20.047 14.938 -14.484 C 14.938 -8.941 13.969 -4.32 12.031 -0.625 C 10.094 3.07 7.219 5.773 3.406 7.484 Z M 3.406 7.484"/></g></g><g transform="matrix(1 0 0 1 489.8555 683.9688)"><g/></g><g transform="matrix(1 0 0 1 504.8555 683.9688)"><g><path fill="#000000" stroke="none" d="M 37.484 -17.422 L 37.484 -13.625 L 7.297 -13.625 L 11.813 -5.719 L 11.563 -5.719 L 1.781 -15.406 L 1.781 -15.641 L 11.563 -25.313 L 11.813 -25.313 L 7.297 -17.422 Z M 37.484 -17.422"/></g></g><g transform="matrix(1 0 0 1 544.8555 683.9688)"><g/></g></g><g><g transform="matrix(1 0 0 1 559.8555 683.9688)"><g><path fill="#000000" stroke="none" d="M 23.938 -30.594 L 21.672 -30.594 C 21.734 -30.914 21.766 -31.227 21.766 -31.531 C 21.766 -32.25 21.578 -32.828 21.203 -33.266 C 20.672 -33.867 19.785 -34.172 18.547 -34.172 C 16.941 -34.172 15.723 -33.727 14.891 -32.844 C 14.066 -31.969 13.438 -30.395 13 -28.125 L 12.359 -24.922 L 19.328 -24.922 L 18.828 -22.406 L 11.875 -22.406 L 7.234 1.547 C 6.68 4.328 5.547 6.426 3.828 7.844 C 2.109 9.27 -0.148 9.984 -2.953 9.984 L -2.672 7.688 C -1.023 7.688 0.195 7.25 1 6.375 C 1.82 5.438 2.461 3.828 2.922 1.547 L 7.563 -22.406 L 3.438 -22.406 L 3.922 -24.922 L 8.047 -24.922 L 8.656 -28.031 C 9.207 -30.832 10.344 -32.938 12.063 -34.344 C 13.781 -35.758 16.035 -36.469 18.828 -36.469 C 19.879 -36.469 20.906 -36.375 21.906 -36.188 C 22.914 -36 23.906 -35.711 24.875 -35.328 Z M 23.938 -30.594"/></g></g><g transform="matrix(1 0 0 1 577.8555 683.9688)"><g/></g><g transform="matrix(1 0 0 1 592.8555 683.9688)"><g><path fill="#000000" stroke="none" d="M 8.438 -35 L 8.438 -21.984 L 4.719 -21.984 L 4.719 -35 Z M 8.438 -35"/></g></g></g><g><g transform="matrix(1 0 0 1 400.7031 197.1758)"><g><path fill="#000000" stroke="none" d="M 23.938 -30.594 L 21.672 -30.594 C 21.734 -30.914 21.766 -31.227 21.766 -31.531 C 21.766 -32.25 21.578 -32.828 21.203 -33.266 C 20.672 -33.867 19.785 -34.172 18.547 -34.172 C 16.941 -34.172 15.723 -33.727 14.891 -32.844 C 14.066 -31.969 13.438 -30.395 13 -28.125 L 12.359 -24.922 L 19.328 -24.922 L 18.828 -22.406 L 11.875 -22.406 L 7.234 1.547 C 6.68 4.328 5.547 6.426 3.828 7.844 C 2.109 9.27 -0.148 9.984 -2.953 9.984 L -2.672 7.688 C -1.023 7.688 0.195 7.25 1 6.375 C 1.82 5.438 2.461 3.828 2.922 1.547 L 7.563 -22.406 L 3.438 -22.406 L 3.922 -24.922 L 8.047 -24.922 L 8.656 -28.031 C 9.207 -30.832 10.344 -32.938 12.063 -34.344 C 13.781 -35.758 16.035 -36.469 18.828 -36.469 C 19.879 -36.469 20.906 -36.375 21.906 -36.188 C 22.914 -36 23.906 -35.711 24.875 -35.328 Z M 23.938 -30.594"/></g></g></g><g><g transform="matrix(1 0 0 1 418.7031 197.1758)"><g/></g><g transform="matrix(1 0 0 1 433.7031 197.1758)"><g><path fill="#000000" stroke="none" d="M 5.094 -21.703 L 35.141 -21.703 L 35.141 -17.953 L 5.094 -17.953 Z M 5.094 -12.141 L 35.141 -12.141 L 35.141 -8.391 L 5.094 -8.391 Z M 5.094 -12.141"/></g></g><g transform="matrix(1 0 0 1 473.7031 197.1758)"><g/></g></g><g><g transform="matrix(1 0 0 1 488.7031 197.1758)"><g><path fill="#000000" stroke="none" d="M 26.281 -20.063 C 27.469 -21.895 28.797 -23.273 30.266 -24.203 C 31.734 -25.129 33.328 -25.594 35.047 -25.594 C 37.648 -25.594 39.438 -24.781 40.406 -23.156 C 40.988 -22.188 41.281 -20.914 41.281 -19.344 C 41.281 -18.313 41.156 -17.145 40.906 -15.844 L 38.297 -2.484 L 42.188 -2.484 L 41.719 0 L 33.516 0 L 36.5 -15.359 C 36.727 -16.578 36.844 -17.625 36.844 -18.5 C 36.844 -19.469 36.703 -20.234 36.422 -20.797 C 35.891 -21.867 34.758 -22.406 33.031 -22.406 C 31.102 -22.406 29.492 -21.676 28.203 -20.219 C 26.922 -18.77 26.004 -16.656 25.453 -13.875 L 22.766 0 L 18.453 0 L 21.469 -15.516 C 21.688 -16.691 21.797 -17.703 21.797 -18.547 C 21.797 -19.516 21.656 -20.27 21.375 -20.813 C 20.832 -21.875 19.691 -22.406 17.953 -22.406 C 16.035 -22.406 14.43 -21.676 13.141 -20.219 C 11.848 -18.77 10.93 -16.656 10.391 -13.875 L 7.688 0 L 3.375 0 L 7.734 -22.453 L 3.609 -22.453 L 4.078 -24.922 L 12.516 -24.922 L 11.672 -20.484 C 12.785 -22.141 14.047 -23.406 15.453 -24.281 C 16.859 -25.156 18.344 -25.594 19.906 -25.594 C 21.844 -25.594 23.363 -25.113 24.469 -24.156 C 25.582 -23.195 26.188 -21.832 26.281 -20.063 Z M 26.281 -20.063"/></g></g><g transform="matrix(1 0 0 1 534.7031 197.1758)"><g><path fill="#000000" stroke="none" d="M 23.234 -24.922 L 27.547 -24.922 L 23.188 -2.484 L 27.266 -2.484 L 26.797 0 L 18.406 0 L 19.25 -4.406 C 18.125 -2.75 16.844 -1.484 15.406 -0.609 C 13.977 0.254 12.43 0.688 10.766 0.688 C 7.992 0.688 6.109 -0.102 5.109 -1.688 C 4.504 -2.625 4.203 -3.898 4.203 -5.516 C 4.203 -6.555 4.332 -7.742 4.594 -9.078 L 7.172 -22.406 L 3.281 -22.406 L 3.781 -24.922 L 12 -24.922 L 9.188 -10.406 C 8.875 -8.801 8.719 -7.469 8.719 -6.406 C 8.719 -5.445 8.844 -4.703 9.094 -4.172 C 9.613 -3.047 10.828 -2.484 12.734 -2.484 C 14.734 -2.484 16.398 -3.219 17.734 -4.688 C 19.066 -6.156 20 -8.289 20.531 -11.094 Z M 23.234 -24.922"/></g></g><g transform="matrix(1 0 0 1 565.7031 197.1758)"><g><path fill="#000000" stroke="none" d="M 6.781 -2.484 L 10.859 -2.484 L 10.391 0 L 2 0 L 8.609 -33.984 L 4.453 -33.984 L 4.922 -36.469 L 13.391 -36.469 Z M 6.781 -2.484"/></g></g></g><g><g transform="matrix(1 0 0 1 580.7031 197.1758)"><g><path fill="#000000" stroke="none" d="M 15.313 7.484 C 11.508 5.773 8.641 3.07 6.703 -0.625 C 4.766 -4.32 3.797 -8.941 3.797 -14.484 C 3.797 -20.047 4.766 -24.676 6.703 -28.375 C 8.641 -32.07 11.508 -34.77 15.313 -36.469 L 15.313 -34.172 C 12.906 -32.516 11.176 -30.18 10.125 -27.172 C 9.082 -24.172 8.563 -19.941 8.563 -14.484 C 8.563 -9.047 9.082 -4.82 10.125 -1.813 C 11.176 1.195 12.906 3.531 15.313 5.188 Z M 15.313 7.484"/></g></g></g><g><g transform="matrix(1 0 0 1 599.7031 197.1758)"><g><path fill="#000000" stroke="none" d="M 16.859 -15.891 L 21.266 -22.078 L 18.188 -22.078 L 18.188 -24.922 L 27.891 -24.922 L 27.891 -22.078 L 24.594 -22.078 L 18.234 -13.203 L 25.641 -2.844 L 28.953 -2.844 L 28.953 0 L 13.109 0 L 13.109 -2.844 L 16.313 -2.844 L 11.625 -9.406 L 6.922 -2.844 L 10.266 -2.844 L 10.266 0 L 0 0 L 0 -2.844 L 3.563 -2.844 L 10.172 -12.141 L 3.031 -22.078 L 0.234 -22.078 L 0.234 -24.922 L 15.453 -24.922 L 15.453 -22.078 L 12.422 -22.078 Z M 16.859 -15.891"/></g></g></g><g><g transform="matrix(1 0 0 1 628.7031 197.1758)"><g><path fill="#000000" stroke="none" d="M 1.734 4.672 C 3.203 3.586 4.281 2.313 4.969 0.844 C 5.656 -0.613 6 -2.379 6 -4.453 L 6 -5.328 L 10.625 -5.328 C 10.5 -2.648 9.867 -0.352 8.734 1.563 C 7.598 3.477 5.891 5.141 3.609 6.547 Z M 1.734 4.672"/></g></g><g transform="matrix(1 0 0 1 643.7031 197.1758)"><g/></g></g><g><g transform="matrix(1 0 0 1 658.7031 197.1758)"><g><path fill="#000000" stroke="none" d="M 14.984 5.625 C 14.234 7.457 13.328 8.754 12.266 9.516 C 11.203 10.285 9.77 10.672 7.969 10.672 C 7.207 10.672 6.359 10.582 5.422 10.406 C 4.484 10.238 3.457 9.988 2.344 9.656 L 2.344 4.453 L 5 4.484 C 5.039 5.68 5.32 6.566 5.844 7.141 C 6.375 7.723 7.16 8.016 8.203 8.016 C 9.223 8.016 10.047 7.738 10.672 7.188 C 11.297 6.633 11.922 5.582 12.547 4.031 L 12.922 3.172 L 2.063 -22.078 L -0.641 -22.078 L -0.641 -24.922 L 13.734 -24.922 L 13.734 -22.078 L 10.766 -22.078 L 17.094 -7.344 L 23 -22.078 L 19.688 -22.078 L 19.688 -24.922 L 29.047 -24.922 L 29.047 -22.078 L 26.016 -22.078 Z M 14.984 5.625"/></g></g></g><g><g transform="matrix(1 0 0 1 686.7031 197.1758)"><g><path fill="#000000" stroke="none" d="M 3.406 7.484 L 3.406 5.188 C 5.813 3.531 7.539 1.195 8.594 -1.813 C 9.645 -4.82 10.172 -9.047 10.172 -14.484 C 10.172 -19.941 9.645 -24.172 8.594 -27.172 C 7.539 -30.18 5.813 -32.516 3.406 -34.172 L 3.406 -36.469 C 7.219 -34.77 10.094 -32.07 12.031 -28.375 C 13.969 -24.676 14.938 -20.047 14.938 -14.484 C 14.938 -8.941 13.969 -4.32 12.031 -0.625 C 10.094 3.07 7.219 5.773 3.406 7.484 Z M 3.406 7.484"/></g></g></g></g></g></svg>
</svg>