<?xml version="1.0" standalone="no"?>
<svg height="588.894" preserveAspectRatio="none" viewBox="0.000 0.000 903.836 588.894" width="903.836" x="0.000" xmlns="http://www.w3.org/2000/svg" xmlns:svg="http://www.w3.org/2000/svg" xmlns:xlink="http://www.w3.org/1999/xlink" y="0.000">
<svg width="903.836" height="588.894" viewBox="16.474 11.786 903.836 588.894" preserveAspectRatio="none" xmlns="http://www.w3.org/2000/svg"><defs><clipPath id="jpRv5cgnclipPath1"><path fill="#000000" stroke="none" d="M 0 0 L 903.836 0 L 903.836 588.894 L 0 588.894 Z"/></clipPath><clipPath id="jpRv5cgnclip-0"><path fill="#000000" stroke="none" d="M 457 132 L 883.836 132 L 883.836 248 L 457 248 Z M 457 132"/></clipPath><clipPath id="jpRv5cgnclip-1"><path fill="#000000" stroke="none" d="M 789 123 L 883.836 123 L 883.836 258 L 789 258 Z M 789 123"/></clipPath><clipPath id="jpRv5cgnclip-2"><path fill="#000000" stroke="none" d="M 20 69 L 220 69 L 220 304 L 20 304 Z M 20 69"/></clipPath><clipPath id="jpRv5cgnclip-3"><path fill="#000000" stroke="none" d="M 20 253 L 223 253 L 223 476 L 20 476 Z M 20 253"/></clipPath><clipPath id="jpRv5cgnclip-4"><path fill="#000000" stroke="none" d="M 450 297 L 883.836 297 L 883.836 431 L 450 431 Z M 450 297"/></clipPath></defs><g transform="matrix(1 0 0 1 16.474 11.786)"><g clip-path="url(#jpRv5cgnclipPath1)"><path fill="#98c0f0" stroke="none" d="M 577.582 336.879 C 576.656 354.188 569.414 371.652 562.871 387.016 C 556.328 402.375 547.746 417.309 538.316 429.055 C 528.883 440.801 517.535 450.324 506.277 457.488 C 495.023 464.652 483.129 470.195 470.777 472.043 C 458.426 473.891 444.59 472.152 432.16 468.574 C 419.734 464.992 407.152 459.145 396.207 450.563 C 385.266 441.98 375.316 430.195 366.492 417.082 C 357.672 403.969 349.313 388.32 343.277 371.875 C 337.242 355.434 332.727 336.461 330.277 318.426 C 327.824 300.391 327.09 281.734 328.57 263.656 C 330.051 245.582 334.082 226.473 339.164 209.965 C 344.246 193.461 351.188 177.957 359.063 164.629 C 366.934 151.301 375.969 139.508 386.406 130.004 C 396.844 120.504 409.523 112.262 421.695 107.617 C 433.863 102.973 446.91 101.219 459.422 102.141 C 471.934 103.059 484.977 106.875 496.762 113.137 C 508.547 119.402 520.281 128.758 530.141 139.727 C 539.996 150.695 548.453 164.184 555.91 178.949 C 563.363 193.711 570.574 210.977 574.867 228.309 C 579.16 245.645 581.356 263.402 581.668 282.949 C 581.984 302.496 578.305 334.199 576.746 345.598 C 575.191 356.996 574.332 352.445 572.32 351.336 M 581.75 266.977 C 585.586 283.98 582.93 303.859 580.539 321.672 C 578.148 339.48 573.141 357.949 567.41 373.84 C 561.68 389.73 554.531 403.941 546.152 417.016 C 537.77 430.09 527.781 443.828 517.129 452.285 C 506.477 460.746 494.531 464.746 482.242 467.766 C 469.953 470.785 455.66 472.293 443.391 470.406 C 431.121 468.52 419.855 463.344 408.621 456.453 C 397.391 449.559 386.012 440.75 375.988 429.059 C 365.965 417.371 355.625 401.809 348.484 386.313 C 341.344 370.816 336.328 353.52 333.145 336.086 C 329.961 318.652 329.27 299.91 329.379 281.719 C 329.488 263.527 330.184 244.27 333.797 226.934 C 337.41 209.598 343.535 192.281 351.055 177.691 C 358.57 163.105 369.145 150.238 378.898 139.402 C 388.652 128.566 398.293 118.672 409.574 112.68 C 420.859 106.691 434.051 104.016 446.598 103.461 C 459.145 102.91 472.664 104.723 484.859 109.363 C 497.051 114.004 509.172 121.75 519.75 131.313 C 530.328 140.875 539.754 153.195 548.32 166.738 C 556.887 180.281 566.039 195.891 571.145 212.574 C 576.25 229.258 577.731 257.629 578.961 266.844 C 580.188 276.059 580.215 267.84 578.516 267.859"/><g transform="matrix(0.027 1 -1 0.027 455.127 287.275)"><path fill="none" stroke="#000000" stroke-miterlimit="10" stroke-width="4" d="M -19.553 -125.424 C -2.808 -128.55 17.724 -125.535 35.636 -123.149 C 53.548 -120.759 71.914 -116.795 87.924 -111.105 C 103.934 -105.411 118.893 -97.663 131.698 -88.993 C 144.499 -80.323 156.264 -70.021 164.746 -59.077 C 173.228 -48.137 179.255 -35.674 182.59 -23.338 C 185.924 -11.001 186.916 2.603 184.752 14.932 C 182.591 27.256 177.289 39.136 169.62 50.617 C 161.951 62.097 150.716 74.419 138.732 83.81 C 126.752 93.202 113.089 100.68 97.731 106.965 C 82.37 113.249 64.249 118.342 46.577 121.517 C 28.901 124.696 9.882 126.425 -8.307 126.036 C -26.495 125.642 -45.382 123.327 -62.555 119.172 C -79.728 115.013 -96.879 108.441 -111.344 101.086 C -125.806 93.734 -138.843 84.992 -149.344 75.056 C -159.842 65.124 -168.435 53.251 -174.34 41.482 C -180.241 29.714 -184.135 16.964 -184.762 4.439 C -185.389 -8.082 -182.874 -21.654 -178.105 -33.647 C -173.336 -45.639 -165.928 -57.107 -156.152 -67.507 C -146.375 -77.903 -133.472 -87.918 -119.444 -96.028 C -105.416 -104.137 -91.985 -111.142 -71.994 -116.161 C -51.999 -121.183 -15.145 -125.032 0.51 -126.148 C 16.165 -127.261 21.702 -125.002 21.933 -122.847 M 71.439 -114.979 C 88.379 -111.913 104.436 -102.729 118.66 -94.97 C 132.884 -87.215 146.942 -78.488 156.78 -68.437 C 166.622 -58.386 173.169 -46.526 177.7 -34.665 C 182.235 -22.808 184.488 -9.743 183.98 2.712 C 183.472 15.171 180.257 28.318 174.659 40.077 C 169.056 51.84 160.921 63.07 150.379 73.277 C 139.834 83.485 125.766 93.82 111.391 101.33 C 97.013 108.844 81.179 114.264 64.116 118.346 C 47.048 122.429 27.421 125.41 9.003 125.831 C -9.41 126.248 -28.906 124.077 -46.378 120.859 C -63.854 117.645 -80.275 112.686 -95.831 106.543 C -111.388 100.401 -127.267 93.023 -139.719 84.003 C -152.175 74.983 -163.001 63.933 -170.557 52.416 C -178.114 40.904 -183.068 27.337 -185.06 14.912 C -187.049 2.487 -185.767 -9.838 -182.509 -22.137 C -179.248 -34.435 -173.997 -47.899 -165.494 -58.88 C -156.987 -69.858 -144.345 -79.294 -131.477 -88.005 C -118.609 -96.716 -103.986 -105.169 -88.282 -111.143 C -72.578 -117.122 -55.363 -121.61 -37.251 -123.867 C -19.143 -126.128 2.09 -125.797 20.377 -124.706 C 38.66 -123.614 63.82 -119.115 72.459 -117.327 C 81.099 -115.543 73.644 -116.217 72.213 -113.986"/></g><path fill="#26a169" stroke="none" d="M 466.797 290.492 C 474.902 291.227 482.926 298.168 489.613 304.719 C 496.305 311.27 502.859 320.102 506.945 329.801 C 511.031 339.5 513.77 351.965 514.137 362.91 C 514.5 373.855 512.543 385.285 509.145 395.473 C 505.746 405.664 500.016 416.719 493.746 424.039 C 487.477 431.359 479.789 436.793 471.527 439.395 C 463.262 441.992 452.695 441.699 444.168 439.641 C 435.641 437.578 427.313 433.488 420.363 427.031 C 413.41 420.574 406.551 410.613 402.461 400.891 C 398.367 391.168 395.914 379.711 395.805 368.695 C 395.695 357.68 398.363 345.004 401.801 334.801 C 405.242 324.598 409.922 314.57 416.438 307.477 C 422.957 300.383 431.785 294.859 440.902 292.234 C 450.02 289.609 465.508 291.082 471.137 291.73 C 476.766 292.383 475.094 294.871 474.676 296.145 M 477.414 295.926 C 485.293 298.781 494.477 306.984 500.313 315.25 C 506.145 323.512 510.426 335.25 512.414 345.508 C 514.402 355.766 513.461 366.004 512.234 376.793 C 511.008 387.578 509.582 401.281 505.059 410.23 C 500.535 419.176 492.914 425.344 485.09 430.473 C 477.266 435.598 466.84 440.211 458.113 440.988 C 449.387 441.77 440.547 439.164 432.727 435.145 C 424.902 431.129 416.848 425.008 411.176 416.883 C 405.508 408.762 401.027 396.926 398.707 386.418 C 396.387 375.91 395.828 364.449 397.266 353.836 C 398.703 343.223 402.344 331.77 407.324 322.742 C 412.309 313.719 419.918 305.047 427.164 299.688 C 434.406 294.328 442.387 291.098 450.785 290.586 C 459.184 290.074 473.277 295.449 477.547 296.617 C 481.82 297.781 476.852 296.352 476.418 297.586"/><g transform="matrix(1 0 0 1 455.402 365.703)"><path fill="none" stroke="#000000" stroke-miterlimit="10" stroke-width="4" d="M -22.242 -68.84 C -15.031 -73.82 -5.691 -76.203 2.887 -75.656 C 11.469 -75.109 21.625 -70.734 29.243 -65.566 C 36.864 -60.394 43.7 -53.492 48.606 -44.644 C 53.512 -35.797 57.508 -23.242 58.672 -12.469 C 59.836 -1.695 58.149 9.383 55.586 20 C 53.02 30.617 48.864 42.836 43.286 51.238 C 37.703 59.641 29.727 66.238 22.106 70.414 C 14.485 74.59 6.008 77.094 -2.445 76.289 C -10.894 75.485 -21.183 70.836 -28.605 65.594 C -36.031 60.352 -42.015 53.5 -46.984 44.836 C -51.953 36.176 -56.785 24.602 -58.414 13.621 C -60.043 2.641 -59.027 -10.516 -56.754 -21.051 C -54.484 -31.59 -52.117 -40.805 -44.793 -49.601 C -37.465 -58.394 -19.785 -69.648 -12.804 -73.82 C -5.82 -77.996 -3.195 -75.887 -2.902 -74.637 M -0.449 -76.855 C 7.711 -78.254 16.567 -74.625 24.02 -70.086 C 31.473 -65.547 38.59 -58.492 44.27 -49.621 C 49.95 -40.746 56.063 -27.918 58.098 -16.848 C 60.133 -5.777 58.125 6.16 56.477 16.805 C 54.825 27.453 53.399 38.723 48.196 47.027 C 42.996 55.332 33.219 61.891 25.27 66.633 C 17.321 71.375 8.754 75.149 0.5 75.488 C -7.75 75.824 -16.386 73.254 -24.242 68.668 C -32.101 64.082 -41.109 56.117 -46.644 47.965 C -52.175 39.813 -55.847 30.219 -57.445 19.758 C -59.039 9.297 -57.804 -4.031 -56.215 -14.797 C -54.629 -25.566 -53.05 -36.277 -47.918 -44.851 C -42.789 -53.426 -33.257 -61.226 -25.437 -66.238 C -17.617 -71.25 -4.965 -73.543 -0.992 -74.918 C 2.985 -76.289 -1.386 -75.668 -1.59 -74.484"/></g><path fill="#f4c111" stroke="none" d="M 471.309 129.473 C 479.492 130.926 487.523 138.105 494.156 145.281 C 500.789 152.457 507.82 162.898 511.105 172.527 C 514.391 182.152 515.082 192.547 513.871 203.039 C 512.66 213.531 508.918 226.734 503.84 235.48 C 498.762 244.227 491.09 250.777 483.391 255.512 C 475.695 260.242 466.355 263.832 457.648 263.875 C 448.941 263.914 439.059 260.77 431.152 255.758 C 423.242 250.746 415.34 242.598 410.199 233.805 C 405.059 225.012 401.535 213.426 400.305 203 C 399.074 192.57 399.625 181.063 402.816 171.234 C 406.004 161.406 412.777 151.105 419.438 144.035 C 426.094 136.965 433.266 130.766 442.766 128.813 C 452.266 126.859 469.855 131.074 476.434 132.32 C 483.012 133.563 482.613 135.32 482.234 136.277 M 468.988 129.805 C 477.285 131.133 485.906 137.484 492.98 144.23 C 500.055 150.98 507.762 160.668 511.438 170.297 C 515.113 179.922 516.199 191.656 515.031 201.992 C 513.867 212.328 509.379 223.629 504.438 232.309 C 499.492 240.984 493.145 248.723 485.367 254.055 C 477.594 259.387 466.766 263.949 457.785 264.305 C 448.805 264.66 439.145 260.734 431.488 256.184 C 423.828 251.629 417.219 245.246 411.828 236.988 C 406.441 228.73 400.711 217.047 399.152 206.633 C 397.59 196.219 399.375 184.703 402.469 174.504 C 405.566 164.305 411.477 152.664 417.727 145.434 C 423.977 138.207 431.523 134.082 439.969 131.141 C 448.414 128.199 463.371 128.07 468.391 127.785 C 473.406 127.504 470.375 127.988 470.07 129.438"/><g transform="matrix(1 0 0 1 456.958 195.722)"><path fill="none" stroke="#000000" stroke-miterlimit="10" stroke-width="4" d="M 7.714 -67.87 C 16.335 -67.23 26.644 -60.441 33.972 -53.992 C 41.3 -47.538 47.71 -38.597 51.687 -29.163 C 55.667 -19.73 58.124 -7.835 57.839 2.61 C 57.55 13.055 54.483 24.356 49.964 33.508 C 45.444 42.665 38.312 51.649 30.722 57.536 C 23.128 63.423 13.093 67.93 4.413 68.833 C -4.271 69.739 -13.364 67.282 -21.376 62.962 C -29.392 58.641 -37.88 51.126 -43.665 42.915 C -49.446 34.704 -54.134 23.774 -56.071 13.696 C -58.009 3.618 -57.731 -7.456 -55.286 -17.554 C -52.841 -27.648 -47.595 -39.062 -41.399 -46.882 C -35.204 -54.699 -26.646 -61.085 -18.126 -64.468 C -9.606 -67.851 4.757 -67.12 9.726 -67.171 C 14.69 -67.222 11.929 -65.788 11.683 -64.777 M 16.378 -64.956 C 24.706 -63.347 33.929 -57.242 40.112 -50.23 C 46.3 -43.218 50.48 -32.812 53.495 -22.878 C 56.507 -12.945 59.253 -1.32 58.198 9.372 C 57.147 20.063 52.901 32.567 47.179 41.262 C 41.456 49.962 31.765 56.919 23.862 61.559 C 15.956 66.2 8.585 69.216 -0.251 69.11 C -9.083 69.001 -21.138 66.216 -29.142 60.923 C -37.149 55.63 -43.446 46.516 -48.282 37.348 C -53.118 28.176 -57.536 16.477 -58.157 5.907 C -58.778 -4.66 -55.392 -16.589 -52.009 -26.054 C -48.622 -35.523 -44.497 -44.015 -37.841 -50.898 C -31.188 -57.785 -20.806 -64.73 -12.079 -67.363 C -3.349 -69.995 9.78 -67.171 14.53 -66.695 C 19.276 -66.222 16.593 -65.761 16.409 -64.511"/></g><g clip-path="url(#jpRv5cgnclip-0)"><g transform="matrix(1 0 0 1 -16.474 -11.786)"><path fill="none" stroke="#000000" stroke-miterlimit="10" stroke-width="4" d="M 530.665 201.454 C 623.322 201.497 717.599 200.735 877.29 201.86 M 530.134 201.864 C 651.47 203.313 772.466 203.29 878.615 202.817"/></g></g><g clip-path="url(#jpRv5cgnclip-1)"><g transform="matrix(1 0 0 1 -16.474 -11.786)"><path fill="none" stroke="#000000" stroke-miterlimit="10" stroke-width="4" d="M 865.486 211.849 C 867.224 208.825 871.271 204.946 876.962 201.731 M 864.783 212.388 C 869.294 208.708 873.357 204.962 878.712 202.997 M 877.892 203.27 C 875.372 198.22 871.99 196.075 862.49 191.688 M 878.267 202.989 C 871.845 197.622 866.556 195.126 863.853 191.911"/></g></g><g><g transform="matrix(1 0 0 1 729.1446 166.1914)"><g><path fill="#000000" stroke="none" d="M 13.766 -20.391 L 12.25 -20.391 C 12.238 -21.172 12.016 -21.766 11.578 -22.172 C 11.148 -22.578 10.523 -22.781 9.703 -22.781 C 8.629 -22.781 7.875 -22.484 7.438 -21.891 C 7 -21.305 6.781 -20.258 6.781 -18.75 L 6.781 -16.609 L 11.422 -16.609 L 11.422 -14.938 L 6.781 -14.938 L 6.781 -1.656 L 10.469 -1.656 L 10.469 0 L 1.156 0 L 1.156 -1.656 L 3.906 -1.656 L 3.906 -14.938 L 1.156 -14.938 L 1.156 -16.609 L 3.906 -16.609 L 3.906 -18.688 C 3.906 -20.539 4.383 -21.941 5.344 -22.891 C 6.313 -23.836 7.727 -24.313 9.594 -24.313 C 10.289 -24.313 10.988 -24.25 11.688 -24.125 C 12.383 -24 13.078 -23.805 13.766 -23.547 Z M 13.766 -20.391"/></g></g><g transform="matrix(1 0 0 1 741.1446 166.1914)"><g><path fill="#000000" stroke="none" d="M 9.625 -1.094 C 11.164 -1.094 12.328 -1.703 13.109 -2.922 C 13.898 -4.141 14.297 -5.938 14.297 -8.313 C 14.297 -10.688 13.898 -12.477 13.109 -13.688 C 12.328 -14.906 11.164 -15.516 9.625 -15.516 C 8.082 -15.516 6.914 -14.906 6.125 -13.688 C 5.344 -12.477 4.953 -10.688 4.953 -8.313 C 4.953 -5.938 5.348 -4.141 6.141 -2.922 C 6.93 -1.703 8.094 -1.094 9.625 -1.094 Z M 9.625 0.453 C 7.207 0.453 5.266 -0.344 3.797 -1.938 C 2.328 -3.539 1.594 -5.664 1.594 -8.313 C 1.594 -10.957 2.32 -13.078 3.781 -14.672 C 5.25 -16.266 7.195 -17.063 9.625 -17.063 C 12.051 -17.063 13.992 -16.266 15.453 -14.672 C 16.922 -13.078 17.656 -10.957 17.656 -8.313 C 17.656 -5.664 16.922 -3.539 15.453 -1.938 C 13.992 -0.344 12.051 0.453 9.625 0.453 Z M 9.625 0.453"/></g></g><g transform="matrix(1 0 0 1 760.1446 166.1914)"><g><path fill="#000000" stroke="none" d="M 15.297 -16.641 L 15.297 -12.484 L 13.641 -12.484 C 13.586 -13.305 13.359 -13.922 12.953 -14.328 C 12.547 -14.734 11.953 -14.938 11.172 -14.938 C 9.754 -14.938 8.664 -14.445 7.906 -13.469 C 7.156 -12.488 6.781 -11.082 6.781 -9.25 L 6.781 -1.656 L 10.109 -1.656 L 10.109 0 L 1.313 0 L 1.313 -1.656 L 3.906 -1.656 L 3.906 -14.969 L 1.156 -14.969 L 1.156 -16.609 L 6.781 -16.609 L 6.781 -13.656 C 7.344 -14.813 8.066 -15.664 8.953 -16.219 C 9.836 -16.781 10.914 -17.063 12.188 -17.063 C 12.656 -17.063 13.145 -17.023 13.656 -16.953 C 14.176 -16.879 14.723 -16.773 15.297 -16.641 Z M 15.297 -16.641"/></g></g><g transform="matrix(1 0 0 1 775.1446 166.1914)"><g><path fill="#000000" stroke="none" d="M 15.359 -16.609 L 19.609 -3.641 L 23.359 -14.938 L 20.953 -14.938 L 20.953 -16.609 L 26.969 -16.609 L 26.969 -14.938 L 25.125 -14.938 L 20.188 0 L 17.797 0 L 13.703 -12.422 L 9.594 0 L 7.297 0 L 2.375 -14.938 L 0.516 -14.938 L 0.516 -16.609 L 8.031 -16.609 L 8.031 -14.938 L 5.344 -14.938 L 9.063 -3.641 L 13.344 -16.609 Z M 15.359 -16.609"/></g></g><g transform="matrix(1 0 0 1 802.1446 166.1914)"><g><path fill="#000000" stroke="none" d="M 12.734 -5.219 L 12.734 -8.734 L 9.031 -8.734 C 7.602 -8.734 6.539 -8.426 5.844 -7.813 C 5.145 -7.195 4.797 -6.254 4.797 -4.984 C 4.797 -3.828 5.148 -2.91 5.859 -2.234 C 6.566 -1.555 7.523 -1.219 8.734 -1.219 C 9.93 -1.219 10.895 -1.586 11.625 -2.328 C 12.363 -3.066 12.734 -4.031 12.734 -5.219 Z M 15.609 -10.375 L 15.609 -1.656 L 18.172 -1.656 L 18.172 0 L 12.734 0 L 12.734 -1.797 C 12.098 -1.023 11.363 -0.457 10.531 -0.094 C 9.695 0.27 8.723 0.453 7.609 0.453 C 5.766 0.453 4.301 -0.035 3.219 -1.016 C 2.133 -1.992 1.594 -3.316 1.594 -4.984 C 1.594 -6.703 2.211 -8.035 3.453 -8.984 C 4.691 -9.93 6.441 -10.406 8.703 -10.406 L 12.734 -10.406 L 12.734 -11.547 C 12.734 -12.805 12.348 -13.781 11.578 -14.469 C 10.816 -15.164 9.742 -15.516 8.359 -15.516 C 7.211 -15.516 6.301 -15.254 5.625 -14.734 C 4.945 -14.211 4.523 -13.441 4.359 -12.422 L 2.875 -12.422 L 2.875 -15.781 C 3.875 -16.207 4.844 -16.523 5.781 -16.734 C 6.727 -16.953 7.648 -17.063 8.547 -17.063 C 10.848 -17.063 12.598 -16.488 13.797 -15.344 C 15.004 -14.207 15.609 -12.551 15.609 -10.375 Z M 15.609 -10.375"/></g></g><g transform="matrix(1 0 0 1 821.1446 166.1914)"><g><path fill="#000000" stroke="none" d="M 15.297 -16.641 L 15.297 -12.484 L 13.641 -12.484 C 13.586 -13.305 13.359 -13.922 12.953 -14.328 C 12.547 -14.734 11.953 -14.938 11.172 -14.938 C 9.754 -14.938 8.664 -14.445 7.906 -13.469 C 7.156 -12.488 6.781 -11.082 6.781 -9.25 L 6.781 -1.656 L 10.109 -1.656 L 10.109 0 L 1.313 0 L 1.313 -1.656 L 3.906 -1.656 L 3.906 -14.969 L 1.156 -14.969 L 1.156 -16.609 L 6.781 -16.609 L 6.781 -13.656 C 7.344 -14.813 8.066 -15.664 8.953 -16.219 C 9.836 -16.781 10.914 -17.063 12.188 -17.063 C 12.656 -17.063 13.145 -17.023 13.656 -16.953 C 14.176 -16.879 14.723 -16.773 15.297 -16.641 Z M 15.297 -16.641"/></g></g><g transform="matrix(1 0 0 1 836.1446 166.1914)"><g><path fill="#000000" stroke="none" d="M 16.797 -1.656 L 19.547 -1.656 L 19.547 0 L 13.922 0 L 13.922 -2.594 C 13.359 -1.551 12.641 -0.781 11.766 -0.281 C 10.898 0.207 9.828 0.453 8.547 0.453 C 6.504 0.453 4.832 -0.352 3.531 -1.969 C 2.238 -3.594 1.594 -5.707 1.594 -8.313 C 1.594 -10.914 2.238 -13.023 3.531 -14.641 C 4.82 -16.254 6.492 -17.063 8.547 -17.063 C 9.828 -17.063 10.898 -16.813 11.766 -16.313 C 12.641 -15.82 13.359 -15.055 13.922 -14.016 L 13.922 -22.656 L 11.203 -22.656 L 11.203 -24.313 L 16.797 -24.313 Z M 13.922 -7.484 L 13.922 -9.125 C 13.922 -11.113 13.535 -12.633 12.766 -13.688 C 12.004 -14.738 10.895 -15.266 9.438 -15.266 C 7.957 -15.266 6.836 -14.68 6.078 -13.516 C 5.328 -12.348 4.953 -10.613 4.953 -8.313 C 4.953 -6.02 5.328 -4.285 6.078 -3.109 C 6.836 -1.93 7.957 -1.344 9.438 -1.344 C 10.895 -1.344 12.004 -1.863 12.766 -2.906 C 13.535 -3.957 13.922 -5.484 13.922 -7.484 Z M 13.922 -7.484"/></g></g></g><g transform="matrix(1 0 0 1 -16.474 -11.786)"><path fill="none" stroke="#000000" stroke-miterlimit="10" stroke-width="3.736" d="M 178.142 200.794 C 226.443 201.13 274.669 201.434 413.783 202.755 M 179.552 201.954 C 249.497 198.688 318.947 199.649 413.665 203.079"/></g><g transform="matrix(1 0 0 1 -16.474 -11.786)"><path fill="none" stroke="#000000" stroke-miterlimit="10" stroke-width="3.736" d="M 399.689 210.634 C 403.329 209.833 406.744 208.145 413.787 202.755 M 401.091 211.786 C 405.435 208.876 409.107 206.915 413.669 203.079 M 415.154 203.653 C 410.251 200.13 405.017 194.739 401.486 192.931 M 414.982 202.95 C 409.408 199.501 404.802 196.22 400.763 193.688"/></g><path fill="#f4c111" stroke="none" d="M 79.895 130.406 C 87.695 126.418 99.91 126.207 109.023 127.047 C 118.137 127.887 126.984 130.391 134.57 135.441 C 142.156 140.496 149.852 149.102 154.535 157.367 C 159.219 165.633 162.41 175.676 162.664 185.031 C 162.914 194.391 160.285 205.02 156.051 213.516 C 151.816 222.012 144.969 230.5 137.254 236.008 C 129.543 241.52 119.074 245.238 109.77 246.57 C 100.465 247.902 90.141 247.207 81.43 244.004 C 72.723 240.797 63.496 234.535 57.512 227.34 C 51.527 220.141 47.629 209.82 45.535 200.824 C 43.438 191.824 42.965 182.367 44.941 173.359 C 46.918 164.348 50.355 154.461 57.395 146.754 C 64.434 139.051 80.852 130.324 87.176 127.121 C 93.504 123.914 95.027 126.449 95.352 127.527 M 103.582 125.418 C 112.445 124.992 123.695 129.691 131.941 134.176 C 140.191 138.656 148.402 144.793 153.066 152.313 C 157.727 159.828 159.355 170.098 159.914 179.277 C 160.469 188.461 159.523 198.672 156.406 207.406 C 153.285 216.141 147.809 225.434 141.207 231.676 C 134.609 237.918 125.977 242.676 116.809 244.855 C 107.645 247.035 95.539 247.188 86.215 244.762 C 76.887 242.336 67.41 236.555 60.859 230.297 C 54.309 224.035 50.023 216.078 46.902 207.207 C 43.785 198.332 41.25 186.414 42.148 177.059 C 43.043 167.703 46.98 158.785 52.285 151.078 C 57.594 143.375 65.434 134.988 73.992 130.836 C 82.551 126.688 98.949 126.988 103.648 126.18 C 108.348 125.367 102.07 124.855 102.188 125.965"/><g clip-path="url(#jpRv5cgnclip-2)"><g transform="matrix(1 0 0 1 102.15 186.289)"><path fill="none" stroke="#000000" stroke-miterlimit="10" stroke-width="4" d="M 9.643 -60.559 C 18.245 -59.859 28.491 -53.164 35.913 -47.207 C 43.338 -41.246 50.182 -33.187 54.182 -24.805 C 58.182 -16.418 60.385 -6.328 59.92 3.098 C 59.455 12.527 56.084 23.559 51.393 31.77 C 46.698 39.977 39.506 47.555 31.764 52.363 C 24.022 57.168 14.135 60.211 4.936 60.598 C -4.259 60.984 -14.826 58.426 -23.416 54.688 C -32.005 50.945 -40.716 45.461 -46.607 38.16 C -52.502 30.863 -57.084 20.184 -58.763 10.883 C -60.447 1.582 -59.388 -8.848 -56.697 -17.648 C -54.005 -26.445 -48.982 -35.156 -42.627 -41.91 C -36.271 -48.664 -29.365 -55.68 -18.56 -58.168 C -7.755 -60.656 13.553 -58.426 22.209 -56.836 C 30.866 -55.242 33.674 -49.68 33.373 -48.617 M 10.452 -58.93 C 18.955 -58.48 28.248 -53.75 35.522 -47.914 C 42.795 -42.078 49.862 -32.769 54.088 -23.918 C 58.315 -15.066 61.498 -4.121 60.877 5.188 C 60.26 14.5 55.483 24.281 50.366 31.941 C 45.248 39.602 38.229 46.297 30.178 51.145 C 22.123 55.988 11.17 60.277 2.061 61.012 C -7.052 61.742 -16.248 59.293 -24.49 55.535 C -32.728 51.781 -41.505 46.047 -47.388 38.473 C -53.271 30.899 -58.228 19.578 -59.787 10.098 C -61.345 0.617 -59.595 -9.387 -56.744 -18.402 C -53.892 -27.418 -49.127 -37.641 -42.673 -44.008 C -36.22 -50.375 -27.084 -53.996 -18.025 -56.613 C -8.966 -59.23 6.928 -59.398 11.682 -59.719 C 16.436 -60.039 10.905 -59.426 10.506 -58.535"/></g></g><g><g transform="matrix(1 0 0 1 397.3164 66)"><g><path fill="#000000" stroke="none" d="M 23.938 -30.594 L 21.672 -30.594 C 21.734 -30.914 21.766 -31.227 21.766 -31.531 C 21.766 -32.25 21.578 -32.828 21.203 -33.266 C 20.672 -33.867 19.785 -34.172 18.547 -34.172 C 16.941 -34.172 15.723 -33.727 14.891 -32.844 C 14.066 -31.969 13.438 -30.395 13 -28.125 L 12.359 -24.922 L 19.328 -24.922 L 18.828 -22.406 L 11.875 -22.406 L 7.234 1.547 C 6.68 4.328 5.547 6.426 3.828 7.844 C 2.109 9.27 -0.148 9.984 -2.953 9.984 L -2.672 7.688 C -1.023 7.688 0.195 7.25 1 6.375 C 1.82 5.438 2.461 3.828 2.922 1.547 L 7.563 -22.406 L 3.438 -22.406 L 3.922 -24.922 L 8.047 -24.922 L 8.656 -28.031 C 9.207 -30.832 10.344 -32.938 12.063 -34.344 C 13.781 -35.758 16.035 -36.469 18.828 -36.469 C 19.879 -36.469 20.906 -36.375 21.906 -36.188 C 22.914 -36 23.906 -35.711 24.875 -35.328 Z M 23.938 -30.594"/></g></g></g><g><g transform="matrix(1 0 0 1 415.3164 66)"><g/></g><g transform="matrix(1 0 0 1 430.3164 66)"><g><path fill="#000000" stroke="none" d="M 5.094 -21.703 L 35.141 -21.703 L 35.141 -17.953 L 5.094 -17.953 Z M 5.094 -12.141 L 35.141 -12.141 L 35.141 -8.391 L 5.094 -8.391 Z M 5.094 -12.141"/></g></g><g transform="matrix(1 0 0 1 470.3164 66)"><g/></g></g><g><g transform="matrix(1 0 0 1 485.3164 66)"><g><path fill="#000000" stroke="none" d="M 7.578 -32.656 C 7.711 -33.375 8.094 -34 8.719 -34.531 C 9.344 -35.063 10.023 -35.328 10.766 -35.328 C 11.484 -35.328 12.051 -35.063 12.469 -34.531 C 12.801 -34.125 12.969 -33.672 12.969 -33.172 C 12.969 -32.992 12.941 -32.82 12.891 -32.656 C 12.754 -31.914 12.375 -31.285 11.75 -30.766 C 11.133 -30.254 10.457 -30 9.719 -30 C 8.988 -30 8.414 -30.258 8 -30.781 C 7.688 -31.164 7.531 -31.609 7.531 -32.109 C 7.531 -32.285 7.547 -32.469 7.578 -32.656 Z M 7.219 -2.484 L 11.297 -2.484 L 10.828 0 L 2.438 0 L 6.781 -22.406 L 2.656 -22.406 L 3.141 -24.922 L 11.578 -24.922 Z M 7.219 -2.484"/></g></g><g transform="matrix(1 0 0 1 500.3164 66)"><g><path fill="#000000" stroke="none" d="M 28.813 -36.469 L 21.734 0 L 17.422 0 L 18.172 -3.891 C 17.016 -2.328 15.711 -1.172 14.266 -0.422 C 12.816 0.316 11.133 0.688 9.219 0.688 C 6.156 0.688 3.891 -0.523 2.422 -2.953 C 1.43 -4.566 0.938 -6.5 0.938 -8.75 C 0.938 -9.906 1.07 -11.145 1.344 -12.469 C 2.102 -16.375 3.688 -19.535 6.094 -21.953 C 8.5 -24.379 11.242 -25.594 14.328 -25.594 C 16.242 -25.594 17.781 -25.223 18.938 -24.484 C 20.094 -23.742 20.945 -22.594 21.5 -21.031 L 24 -33.984 L 19.922 -33.984 L 20.422 -36.469 Z M 19.594 -11.234 L 20.063 -13.688 C 20.301 -14.906 20.422 -16.008 20.422 -17 C 20.422 -18.414 20.172 -19.594 19.672 -20.531 C 18.836 -22.113 17.328 -22.906 15.141 -22.906 C 12.922 -22.906 11.07 -22.031 9.594 -20.281 C 8.125 -18.531 7.051 -15.926 6.375 -12.469 C 6.063 -10.895 5.906 -9.5 5.906 -8.281 C 5.906 -6.82 6.125 -5.617 6.563 -4.672 C 7.344 -2.898 8.844 -2.016 11.063 -2.016 C 13.25 -2.016 15.066 -2.801 16.516 -4.375 C 17.973 -5.945 19 -8.234 19.594 -11.234 Z M 19.594 -11.234"/></g></g></g><g><g transform="matrix(1 0 0 1 531.3164 66)"><g><path fill="#000000" stroke="none" d="M 15.313 7.484 C 11.508 5.773 8.641 3.07 6.703 -0.625 C 4.766 -4.32 3.797 -8.941 3.797 -14.484 C 3.797 -20.047 4.766 -24.676 6.703 -28.375 C 8.641 -32.07 11.508 -34.77 15.313 -36.469 L 15.313 -34.172 C 12.906 -32.516 11.176 -30.18 10.125 -27.172 C 9.082 -24.172 8.563 -19.941 8.563 -14.484 C 8.563 -9.047 9.082 -4.82 10.125 -1.813 C 11.176 1.195 12.906 3.531 15.313 5.188 Z M 15.313 7.484"/></g></g></g><g><g transform="matrix(1 0 0 1 550.3164 66)"><g><path fill="#000000" stroke="none" d="M 16.859 -15.891 L 21.266 -22.078 L 18.188 -22.078 L 18.188 -24.922 L 27.891 -24.922 L 27.891 -22.078 L 24.594 -22.078 L 18.234 -13.203 L 25.641 -2.844 L 28.953 -2.844 L 28.953 0 L 13.109 0 L 13.109 -2.844 L 16.313 -2.844 L 11.625 -9.406 L 6.922 -2.844 L 10.266 -2.844 L 10.266 0 L 0 0 L 0 -2.844 L 3.563 -2.844 L 10.172 -12.141 L 3.031 -22.078 L 0.234 -22.078 L 0.234 -24.922 L 15.453 -24.922 L 15.453 -22.078 L 12.422 -22.078 Z M 16.859 -15.891"/></g></g></g><g><g transform="matrix(1 0 0 1 579.3164 66)"><g><path fill="#000000" stroke="none" d="M 3.406 7.484 L 3.406 5.188 C 5.813 3.531 7.539 1.195 8.594 -1.813 C 9.645 -4.82 10.172 -9.047 10.172 -14.484 C 10.172 -19.941 9.645 -24.172 8.594 -27.172 C 7.539 -30.18 5.813 -32.516 3.406 -34.172 L 3.406 -36.469 C 7.219 -34.77 10.094 -32.07 12.031 -28.375 C 13.969 -24.676 14.938 -20.047 14.938 -14.484 C 14.938 -8.941 13.969 -4.32 12.031 -0.625 C 10.094 3.07 7.219 5.773 3.406 7.484 Z M 3.406 7.484"/></g></g></g><g transform="matrix(1 0 0 1 -16.474 -11.786)"><path fill="none" stroke="#000000" stroke-miterlimit="10" stroke-width="3.816" d="M 417.615 375.974 C 359.037 380.325 302.685 379.388 184.63 379.88 M 415.751 376.622 C 326.572 375.595 237.732 377.099 184.49 379.192"/></g><g transform="matrix(1 0 0 1 -16.474 -11.786)"><path fill="none" stroke="#000000" stroke-miterlimit="10" stroke-width="3.816" d="M 200.247 368.407 C 194.794 373.302 191.517 374.216 184.63 379.876 M 198.392 369.052 C 192.954 372.731 187.912 377.153 184.494 379.192 M 184.685 380.122 C 188.915 380.864 193.771 386.251 199.56 388.942 M 185.357 379.321 C 188.701 382.825 194.13 385.735 198.857 388.997"/></g><path fill="#26a169" stroke="none" d="M 83.637 314.875 C 91.406 311.004 102.902 308.918 112.004 309.672 C 121.102 310.426 130.516 314.504 138.238 319.406 C 145.961 324.313 153.875 331.602 158.344 339.102 C 162.809 346.602 165.023 356.039 165.039 364.41 C 165.055 372.781 162.641 381.742 158.438 389.328 C 154.23 396.91 147.422 405.094 139.816 409.91 C 132.207 414.73 121.902 417.277 112.797 418.227 C 103.688 419.18 93.645 418.297 85.168 415.617 C 76.688 412.938 67.918 408.254 61.922 402.152 C 55.926 396.051 51.516 387.383 49.199 379.004 C 46.879 370.629 46.043 360.211 48.016 351.891 C 49.988 343.566 54.398 335.516 61.035 329.078 C 67.676 322.641 82.844 315.949 87.844 313.262 C 92.84 310.578 90.828 312.266 91.023 312.961 M 95.469 309.57 C 103.957 307.535 114.797 309.98 123.816 312.973 C 132.84 315.965 143.289 321.621 149.602 327.527 C 155.914 333.43 159.387 340.145 161.703 348.395 C 164.02 356.645 165.328 368.391 163.5 377.031 C 161.672 385.668 156.324 394.02 150.73 400.223 C 145.137 406.426 138.289 411.223 129.934 414.25 C 121.578 417.277 109.973 418.992 100.59 418.387 C 91.211 417.781 81.527 415.309 73.641 410.613 C 65.754 405.922 57.703 397.633 53.27 390.23 C 48.832 382.824 47.082 374.633 47.031 366.199 C 46.984 357.766 48.961 347.289 52.977 339.625 C 56.992 331.961 63.961 325.18 71.133 320.211 C 78.305 315.246 91.648 311.402 96.008 309.832 C 100.371 308.262 97.223 309.781 97.297 310.785"/><g clip-path="url(#jpRv5cgnclip-3)"><g transform="matrix(1 0 0 1 105.721 364.707)"><path fill="none" stroke="#000000" stroke-miterlimit="10" stroke-width="4" d="M 12.529 -52.316 C 21.334 -51.344 31.666 -46.812 38.826 -41.574 C 45.986 -36.336 52.049 -28.641 55.49 -20.891 C 58.931 -13.145 60.666 -3.473 59.467 4.914 C 58.263 13.301 53.595 22.133 48.283 29.418 C 42.97 36.707 35.588 44.602 27.588 48.629 C 19.592 52.66 9.427 53.641 0.295 53.594 C -8.838 53.547 -19.225 51.945 -27.217 48.359 C -35.209 44.77 -42.33 38.914 -47.659 32.066 C -52.991 25.223 -57.807 15.606 -59.194 7.293 C -60.58 -1.023 -59.362 -9.758 -55.983 -17.82 C -52.604 -25.883 -45.752 -35.18 -38.916 -41.09 C -32.084 -47 -24.717 -51.676 -14.979 -53.289 C -5.244 -54.898 12.654 -51.793 19.498 -50.762 C 26.342 -49.727 26.158 -47.949 26.084 -47.094 M 26.877 -48.012 C 35.088 -45.191 44.509 -37.77 49.951 -30.762 C 55.388 -23.758 58.767 -14.617 59.513 -5.984 C 60.259 2.648 57.896 13.168 54.431 21.039 C 50.967 28.906 45.33 36.098 38.717 41.231 C 32.103 46.367 23.759 49.918 14.748 51.848 C 5.732 53.777 -6.162 54.727 -15.362 52.816 C -24.561 50.902 -33.799 46.188 -40.451 40.383 C -47.104 34.578 -52.026 26.094 -55.268 17.984 C -58.51 9.875 -61.264 -0.148 -59.912 -8.273 C -58.557 -16.398 -52.436 -24.043 -47.151 -30.77 C -41.869 -37.496 -36.108 -44.711 -28.209 -48.629 C -20.311 -52.543 -9.135 -54.359 0.24 -54.266 C 9.615 -54.172 23.467 -49.492 28.041 -48.07 C 32.615 -46.648 28.068 -46.582 27.685 -45.738"/></g></g><g clip-path="url(#jpRv5cgnclip-4)"><g transform="matrix(1 0 0 1 -16.474 -11.786)"><path fill="none" stroke="#000000" stroke-miterlimit="10" stroke-width="4.629" d="M 868.958 376.352 C 786.529 374.958 700.958 375.294 533.408 374.891 M 869.802 375.841 C 753.861 374.513 638.876 374.044 532.494 375.692"/></g></g><g transform="matrix(1 0 0 1 -16.474 -11.786)"><path fill="none" stroke="#000000" stroke-miterlimit="10" stroke-width="4.629" d="M 547.025 366.173 C 545.04 369.434 538.896 372.454 533.513 374.477 M 548.177 365.474 C 542.474 369.243 537.943 372.134 532.263 375.575 M 533.134 377.653 C 538.056 377.438 541.345 380.427 547.048 387.485 M 533.287 376.153 C 536.369 377.63 539.517 380.915 548.017 386.001"/></g><g><g transform="matrix(1 0 0 1 350.8985 556.8946)"><g><path fill="#000000" stroke="none" d="M 15.313 7.484 C 11.508 5.773 8.641 3.07 6.703 -0.625 C 4.766 -4.32 3.797 -8.941 3.797 -14.484 C 3.797 -20.047 4.766 -24.676 6.703 -28.375 C 8.641 -32.07 11.508 -34.77 15.313 -36.469 L 15.313 -34.172 C 12.906 -32.516 11.176 -30.18 10.125 -27.172 C 9.082 -24.172 8.563 -19.941 8.563 -14.484 C 8.563 -9.047 9.082 -4.82 10.125 -1.813 C 11.176 1.195 12.906 3.531 15.313 5.188 Z M 15.313 7.484"/></g></g><g transform="matrix(1 0 0 1 369.8985 556.8946)"><g><path fill="#000000" stroke="none" d="M 25.203 -2.484 L 29.328 -2.484 L 29.328 0 L 20.891 0 L 20.891 -3.891 C 20.047 -2.328 18.969 -1.172 17.656 -0.422 C 16.352 0.316 14.742 0.688 12.828 0.688 C 9.766 0.688 7.258 -0.523 5.313 -2.953 C 3.363 -5.391 2.391 -8.563 2.391 -12.469 C 2.391 -16.375 3.359 -19.535 5.297 -21.953 C 7.234 -24.379 9.742 -25.594 12.828 -25.594 C 14.742 -25.594 16.352 -25.223 17.656 -24.484 C 18.969 -23.742 20.047 -22.594 20.891 -21.031 L 20.891 -33.984 L 16.813 -33.984 L 16.813 -36.469 L 25.203 -36.469 Z M 20.891 -11.234 L 20.891 -13.688 C 20.891 -16.676 20.313 -18.957 19.156 -20.531 C 18.008 -22.113 16.344 -22.906 14.156 -22.906 C 11.938 -22.906 10.258 -22.031 9.125 -20.281 C 8 -18.531 7.438 -15.926 7.438 -12.469 C 7.438 -9.031 8 -6.426 9.125 -4.656 C 10.258 -2.895 11.938 -2.016 14.156 -2.016 C 16.344 -2.016 18.008 -2.801 19.156 -4.375 C 20.313 -5.945 20.891 -8.234 20.891 -11.234 Z M 20.891 -11.234"/></g></g><g transform="matrix(1 0 0 1 400.8985 556.8946)"><g><path fill="#000000" stroke="none" d="M 13.969 -15.219 L 19.203 -22.406 L 15.844 -22.406 L 15.844 -24.922 L 25.438 -24.922 L 25.438 -22.406 L 22.125 -22.406 L 15.453 -13.203 L 23.234 -2.484 L 26.484 -2.484 L 26.484 0 L 14.984 0 L 14.984 -2.484 L 18.141 -2.484 L 12.734 -9.938 L 7.297 -2.484 L 10.531 -2.484 L 10.531 0 L 1.063 0 L 1.063 -2.484 L 4.359 -2.484 L 11.234 -11.953 L 3.656 -22.406 L 0.594 -22.406 L 0.594 -24.922 L 11.719 -24.922 L 11.719 -22.406 L 8.75 -22.406 Z M 13.969 -15.219"/></g></g><g transform="matrix(1 0 0 1 427.8985 556.8946)"><g><path fill="#000000" stroke="none" d="M 3.406 7.484 L 3.406 5.188 C 5.813 3.531 7.539 1.195 8.594 -1.813 C 9.645 -4.82 10.172 -9.047 10.172 -14.484 C 10.172 -19.941 9.645 -24.172 8.594 -27.172 C 7.539 -30.18 5.813 -32.516 3.406 -34.172 L 3.406 -36.469 C 7.219 -34.77 10.094 -32.07 12.031 -28.375 C 13.969 -24.676 14.938 -20.047 14.938 -14.484 C 14.938 -8.941 13.969 -4.32 12.031 -0.625 C 10.094 3.07 7.219 5.773 3.406 7.484 Z M 3.406 7.484"/></g></g><g transform="matrix(1 0 0 1 446.8985 556.8946)"><g/></g><g transform="matrix(1 0 0 1 461.8985 556.8946)"><g><path fill="#000000" stroke="none" d="M 37.484 -17.422 L 37.484 -13.625 L 7.297 -13.625 L 11.813 -5.719 L 11.563 -5.719 L 1.781 -15.406 L 1.781 -15.641 L 11.563 -25.313 L 11.813 -25.313 L 7.297 -17.422 Z M 37.484 -17.422"/></g></g><g transform="matrix(1 0 0 1 501.8985 556.8946)"><g/></g></g><g><g transform="matrix(1 0 0 1 516.8985 556.8946)"><g><path fill="#000000" stroke="none" d="M 23.938 -30.594 L 21.672 -30.594 C 21.734 -30.914 21.766 -31.227 21.766 -31.531 C 21.766 -32.25 21.578 -32.828 21.203 -33.266 C 20.672 -33.867 19.785 -34.172 18.547 -34.172 C 16.941 -34.172 15.723 -33.727 14.891 -32.844 C 14.066 -31.969 13.438 -30.395 13 -28.125 L 12.359 -24.922 L 19.328 -24.922 L 18.828 -22.406 L 11.875 -22.406 L 7.234 1.547 C 6.68 4.328 5.547 6.426 3.828 7.844 C 2.109 9.27 -0.148 9.984 -2.953 9.984 L -2.672 7.688 C -1.023 7.688 0.195 7.25 1 6.375 C 1.82 5.438 2.461 3.828 2.922 1.547 L 7.563 -22.406 L 3.438 -22.406 L 3.922 -24.922 L 8.047 -24.922 L 8.656 -28.031 C 9.207 -30.832 10.344 -32.938 12.063 -34.344 C 13.781 -35.758 16.035 -36.469 18.828 -36.469 C 19.879 -36.469 20.906 -36.375 21.906 -36.188 C 22.914 -36 23.906 -35.711 24.875 -35.328 Z M 23.938 -30.594"/></g></g><g transform="matrix(1 0 0 1 534.8985 556.8946)"><g/></g><g transform="matrix(1 0 0 1 549.8985 556.8946)"><g><path fill="#000000" stroke="none" d="M 8.438 -35 L 8.438 -21.984 L 4.719 -21.984 L 4.719 -35 Z M 8.438 -35"/></g></g></g><g><g transform="matrix(1 0 0 1 86.2266 200.3984)"><g><path fill="#000000" stroke="none" d="M 16.859 -15.891 L 21.266 -22.078 L 18.188 -22.078 L 18.188 -24.922 L 27.891 -24.922 L 27.891 -22.078 L 24.594 -22.078 L 18.234 -13.203 L 25.641 -2.844 L 28.953 -2.844 L 28.953 0 L 13.109 0 L 13.109 -2.844 L 16.313 -2.844 L 11.625 -9.406 L 6.922 -2.844 L 10.266 -2.844 L 10.266 0 L 0 0 L 0 -2.844 L 3.563 -2.844 L 10.172 -12.141 L 3.031 -22.078 L 0.234 -22.078 L 0.234 -24.922 L 15.453 -24.922 L 15.453 -22.078 L 12.422 -22.078 Z M 16.859 -15.891"/></g></g></g><g><g transform="matrix(1 0 0 1 85.6836 386.5977)"><g><path fill="#000000" stroke="none" d="M 0.297 -0.313 L 0.406 -0.469 L 0.328 -0.469 L 0.328 -0.516 L 0.531 -0.516 L 0.531 -0.469 L 0.469 -0.469 L 0.328 -0.281 L 0.484 -0.047 L 0.547 -0.047 L 0.547 0 L 0.313 0 L 0.313 -0.047 L 0.375 -0.047 L 0.266 -0.203 L 0.156 -0.047 L 0.219 -0.047 L 0.219 0 L 0.016 0 L 0.016 -0.047 L 0.094 -0.047 L 0.234 -0.25 L 0.078 -0.469 L 0.016 -0.469 L 0.016 -0.516 L 0.25 -0.516 L 0.25 -0.469 L 0.188 -0.469 Z M 0.297 -0.313"/></g></g></g><g><g transform="matrix(1 0 0 1 74.0547 379.4492)"><g><path fill="#000000" stroke="none" d="M 20.609 -11.234 L 20.609 -13.688 C 20.609 -16.594 20.234 -18.691 19.484 -19.984 C 18.734 -21.285 17.535 -21.938 15.891 -21.938 C 14.172 -21.938 12.961 -21.254 12.266 -19.891 C 11.578 -18.523 11.234 -16.051 11.234 -12.469 C 11.234 -8.895 11.582 -6.422 12.281 -5.047 C 12.988 -3.672 14.191 -2.984 15.891 -2.984 C 17.535 -2.984 18.734 -3.629 19.484 -4.922 C 20.234 -6.223 20.609 -8.328 20.609 -11.234 Z M 28.906 -2.844 L 32.438 -2.844 L 32.438 0 L 20.609 0 L 20.609 -3.172 C 19.898 -1.867 18.945 -0.898 17.75 -0.266 C 16.563 0.367 15.094 0.688 13.344 0.688 C 9.813 0.688 7.031 -0.484 5 -2.828 C 2.977 -5.18 1.969 -8.395 1.969 -12.469 C 1.969 -16.563 2.977 -19.77 5 -22.094 C 7.031 -24.426 9.813 -25.594 13.344 -25.594 C 15.094 -25.594 16.563 -25.273 17.75 -24.641 C 18.945 -24.016 19.898 -23.051 20.609 -21.75 L 20.609 -33.656 L 17.047 -33.656 L 17.047 -36.469 L 28.906 -36.469 Z M 28.906 -2.844"/></g></g><g transform="matrix(1 0 0 1 108.0547 379.4492)"><g><path fill="#000000" stroke="none" d="M 16.859 -15.891 L 21.266 -22.078 L 18.188 -22.078 L 18.188 -24.922 L 27.891 -24.922 L 27.891 -22.078 L 24.594 -22.078 L 18.234 -13.203 L 25.641 -2.844 L 28.953 -2.844 L 28.953 0 L 13.109 0 L 13.109 -2.844 L 16.313 -2.844 L 11.625 -9.406 L 6.922 -2.844 L 10.266 -2.844 L 10.266 0 L 0 0 L 0 -2.844 L 3.563 -2.844 L 10.172 -12.141 L 3.031 -22.078 L 0.234 -22.078 L 0.234 -24.922 L 15.453 -24.922 L 15.453 -22.078 L 12.422 -22.078 Z M 16.859 -15.891"/></g></g></g><g><g transform="matrix(1 0 0 1 444.293 210.5469)"><g><path fill="#000000" stroke="none" d="M 23.938 -30.594 L 21.672 -30.594 C 21.734 -30.914 21.766 -31.227 21.766 -31.531 C 21.766 -32.25 21.578 -32.828 21.203 -33.266 C 20.672 -33.867 19.785 -34.172 18.547 -34.172 C 16.941 -34.172 15.723 -33.727 14.891 -32.844 C 14.066 -31.969 13.438 -30.395 13 -28.125 L 12.359 -24.922 L 19.328 -24.922 L 18.828 -22.406 L 11.875 -22.406 L 7.234 1.547 C 6.68 4.328 5.547 6.426 3.828 7.844 C 2.109 9.27 -0.148 9.984 -2.953 9.984 L -2.672 7.688 C -1.023 7.688 0.195 7.25 1 6.375 C 1.82 5.438 2.461 3.828 2.922 1.547 L 7.563 -22.406 L 3.438 -22.406 L 3.922 -24.922 L 8.047 -24.922 L 8.656 -28.031 C 9.207 -30.832 10.344 -32.938 12.063 -34.344 C 13.781 -35.758 16.035 -36.469 18.828 -36.469 C 19.879 -36.469 20.906 -36.375 21.906 -36.188 C 22.914 -36 23.906 -35.711 24.875 -35.328 Z M 23.938 -30.594"/></g></g></g><g><g transform="matrix(1 0 0 1 438.5078 381.7813)"><g><path fill="#000000" stroke="none" d="M 23.938 -30.594 L 21.672 -30.594 C 21.734 -30.914 21.766 -31.227 21.766 -31.531 C 21.766 -32.25 21.578 -32.828 21.203 -33.266 C 20.672 -33.867 19.785 -34.172 18.547 -34.172 C 16.941 -34.172 15.723 -33.727 14.891 -32.844 C 14.066 -31.969 13.438 -30.395 13 -28.125 L 12.359 -24.922 L 19.328 -24.922 L 18.828 -22.406 L 11.875 -22.406 L 7.234 1.547 C 6.68 4.328 5.547 6.426 3.828 7.844 C 2.109 9.27 -0.148 9.984 -2.953 9.984 L -2.672 7.688 C -1.023 7.688 0.195 7.25 1 6.375 C 1.82 5.438 2.461 3.828 2.922 1.547 L 7.563 -22.406 L 3.438 -22.406 L 3.922 -24.922 L 8.047 -24.922 L 8.656 -28.031 C 9.207 -30.832 10.344 -32.938 12.063 -34.344 C 13.781 -35.758 16.035 -36.469 18.828 -36.469 C 19.879 -36.469 20.906 -36.375 21.906 -36.188 C 22.914 -36 23.906 -35.711 24.875 -35.328 Z M 23.938 -30.594"/></g></g><g transform="matrix(1 0 0 1 456.5078 381.7813)"><g/></g><g transform="matrix(1 0 0 1 471.5078 381.7813)"><g><path fill="#000000" stroke="none" d="M 8.438 -35 L 8.438 -21.984 L 4.719 -21.984 L 4.719 -35 Z M 8.438 -35"/></g></g></g><g><g transform="matrix(1 0 0 1 693.3242 344.0664)"><g><path fill="#000000" stroke="none" d="M 3.688 -1.656 L 3.688 -22.656 L 0.922 -22.656 L 0.922 -24.313 L 6.563 -24.313 L 6.563 -14.016 C 7.125 -15.055 7.836 -15.82 8.703 -16.313 C 9.578 -16.813 10.656 -17.063 11.938 -17.063 C 13.977 -17.063 15.645 -16.254 16.938 -14.641 C 18.227 -13.023 18.875 -10.914 18.875 -8.313 C 18.875 -5.707 18.227 -3.594 16.938 -1.969 C 15.645 -0.352 13.977 0.453 11.938 0.453 C 10.656 0.453 9.578 0.207 8.703 -0.281 C 7.836 -0.781 7.125 -1.551 6.563 -2.594 L 6.563 0 L 0.922 0 L 0.922 -1.656 Z M 6.563 -7.484 C 6.563 -5.484 6.941 -3.957 7.703 -2.906 C 8.473 -1.863 9.586 -1.344 11.047 -1.344 C 12.516 -1.344 13.625 -1.93 14.375 -3.109 C 15.133 -4.285 15.516 -6.02 15.516 -8.313 C 15.516 -10.613 15.133 -12.348 14.375 -13.516 C 13.625 -14.68 12.516 -15.266 11.047 -15.266 C 9.586 -15.266 8.473 -14.738 7.703 -13.688 C 6.941 -12.633 6.563 -11.113 6.563 -9.125 Z M 6.563 -7.484"/></g></g><g transform="matrix(1 0 0 1 713.3242 344.0664)"><g><path fill="#000000" stroke="none" d="M 12.734 -5.219 L 12.734 -8.734 L 9.031 -8.734 C 7.602 -8.734 6.539 -8.426 5.844 -7.813 C 5.145 -7.195 4.797 -6.254 4.797 -4.984 C 4.797 -3.828 5.148 -2.91 5.859 -2.234 C 6.566 -1.555 7.523 -1.219 8.734 -1.219 C 9.93 -1.219 10.895 -1.586 11.625 -2.328 C 12.363 -3.066 12.734 -4.031 12.734 -5.219 Z M 15.609 -10.375 L 15.609 -1.656 L 18.172 -1.656 L 18.172 0 L 12.734 0 L 12.734 -1.797 C 12.098 -1.023 11.363 -0.457 10.531 -0.094 C 9.695 0.27 8.723 0.453 7.609 0.453 C 5.766 0.453 4.301 -0.035 3.219 -1.016 C 2.133 -1.992 1.594 -3.316 1.594 -4.984 C 1.594 -6.703 2.211 -8.035 3.453 -8.984 C 4.691 -9.93 6.441 -10.406 8.703 -10.406 L 12.734 -10.406 L 12.734 -11.547 C 12.734 -12.805 12.348 -13.781 11.578 -14.469 C 10.816 -15.164 9.742 -15.516 8.359 -15.516 C 7.211 -15.516 6.301 -15.254 5.625 -14.734 C 4.945 -14.211 4.523 -13.441 4.359 -12.422 L 2.875 -12.422 L 2.875 -15.781 C 3.875 -16.207 4.844 -16.523 5.781 -16.734 C 6.727 -16.953 7.648 -17.063 8.547 -17.063 C 10.848 -17.063 12.598 -16.488 13.797 -15.344 C 15.004 -14.207 15.609 -12.551 15.609 -10.375 Z M 15.609 -10.375"/></g></g><g transform="matrix(1 0 0 1 732.3242 344.0664)"><g><path fill="#000000" stroke="none" d="M 16.453 -4.984 C 16.047 -3.211 15.266 -1.863 14.109 -0.938 C 12.953 -0.008 11.457 0.453 9.625 0.453 C 7.207 0.453 5.266 -0.344 3.797 -1.938 C 2.328 -3.539 1.594 -5.664 1.594 -8.313 C 1.594 -10.969 2.328 -13.086 3.797 -14.672 C 5.266 -16.266 7.207 -17.063 9.625 -17.063 C 10.676 -17.063 11.723 -16.938 12.766 -16.688 C 13.805 -16.445 14.852 -16.078 15.906 -15.578 L 15.906 -11.328 L 14.234 -11.328 C 14.016 -12.785 13.535 -13.848 12.797 -14.516 C 12.066 -15.18 11.02 -15.516 9.656 -15.516 C 8.102 -15.516 6.93 -14.91 6.141 -13.703 C 5.348 -12.504 4.953 -10.707 4.953 -8.313 C 4.953 -5.914 5.344 -4.113 6.125 -2.906 C 6.914 -1.695 8.094 -1.094 9.656 -1.094 C 10.895 -1.094 11.883 -1.414 12.625 -2.063 C 13.363 -2.707 13.867 -3.68 14.141 -4.984 Z M 16.453 -4.984"/></g></g><g transform="matrix(1 0 0 1 750.3242 344.0664)"><g><path fill="#000000" stroke="none" d="M 9.156 0 L 1.094 0 L 1.094 -1.656 L 3.688 -1.656 L 3.688 -22.656 L 0.922 -22.656 L 0.922 -24.313 L 6.563 -24.313 L 6.563 -8.484 L 13.563 -14.938 L 11.172 -14.938 L 11.172 -16.609 L 18.688 -16.609 L 18.688 -14.938 L 15.844 -14.938 L 10.906 -10.375 L 17.219 -1.656 L 19.609 -1.656 L 19.609 0 L 11.422 0 L 11.422 -1.656 L 13.797 -1.656 L 8.828 -8.484 L 6.563 -6.375 L 6.563 -1.656 L 9.156 -1.656 Z M 9.156 0"/></g></g><g transform="matrix(1 0 0 1 769.3242 344.0664)"><g><path fill="#000000" stroke="none" d="M 15.359 -16.609 L 19.609 -3.641 L 23.359 -14.938 L 20.953 -14.938 L 20.953 -16.609 L 26.969 -16.609 L 26.969 -14.938 L 25.125 -14.938 L 20.188 0 L 17.797 0 L 13.703 -12.422 L 9.594 0 L 7.297 0 L 2.375 -14.938 L 0.516 -14.938 L 0.516 -16.609 L 8.031 -16.609 L 8.031 -14.938 L 5.344 -14.938 L 9.063 -3.641 L 13.344 -16.609 Z M 15.359 -16.609"/></g></g><g transform="matrix(1 0 0 1 796.3242 344.0664)"><g><path fill="#000000" stroke="none" d="M 12.734 -5.219 L 12.734 -8.734 L 9.031 -8.734 C 7.602 -8.734 6.539 -8.426 5.844 -7.813 C 5.145 -7.195 4.797 -6.254 4.797 -4.984 C 4.797 -3.828 5.148 -2.91 5.859 -2.234 C 6.566 -1.555 7.523 -1.219 8.734 -1.219 C 9.93 -1.219 10.895 -1.586 11.625 -2.328 C 12.363 -3.066 12.734 -4.031 12.734 -5.219 Z M 15.609 -10.375 L 15.609 -1.656 L 18.172 -1.656 L 18.172 0 L 12.734 0 L 12.734 -1.797 C 12.098 -1.023 11.363 -0.457 10.531 -0.094 C 9.695 0.27 8.723 0.453 7.609 0.453 C 5.766 0.453 4.301 -0.035 3.219 -1.016 C 2.133 -1.992 1.594 -3.316 1.594 -4.984 C 1.594 -6.703 2.211 -8.035 3.453 -8.984 C 4.691 -9.93 6.441 -10.406 8.703 -10.406 L 12.734 -10.406 L 12.734 -11.547 C 12.734 -12.805 12.348 -13.781 11.578 -14.469 C 10.816 -15.164 9.742 -15.516 8.359 -15.516 C 7.211 -15.516 6.301 -15.254 5.625 -14.734 C 4.945 -14.211 4.523 -13.441 4.359 -12.422 L 2.875 -12.422 L 2.875 -15.781 C 3.875 -16.207 4.844 -16.523 5.781 -16.734 C 6.727 -16.953 7.648 -17.063 8.547 -17.063 C 10.848 -17.063 12.598 -16.488 13.797 -15.344 C 15.004 -14.207 15.609 -12.551 15.609 -10.375 Z M 15.609 -10.375"/></g></g><g transform="matrix(1 0 0 1 815.3242 344.0664)"><g><path fill="#000000" stroke="none" d="M 15.297 -16.641 L 15.297 -12.484 L 13.641 -12.484 C 13.586 -13.305 13.359 -13.922 12.953 -14.328 C 12.547 -14.734 11.953 -14.938 11.172 -14.938 C 9.754 -14.938 8.664 -14.445 7.906 -13.469 C 7.156 -12.488 6.781 -11.082 6.781 -9.25 L 6.781 -1.656 L 10.109 -1.656 L 10.109 0 L 1.313 0 L 1.313 -1.656 L 3.906 -1.656 L 3.906 -14.969 L 1.156 -14.969 L 1.156 -16.609 L 6.781 -16.609 L 6.781 -13.656 C 7.344 -14.813 8.066 -15.664 8.953 -16.219 C 9.836 -16.781 10.914 -17.063 12.188 -17.063 C 12.656 -17.063 13.145 -17.023 13.656 -16.953 C 14.176 -16.879 14.723 -16.773 15.297 -16.641 Z M 15.297 -16.641"/></g></g><g transform="matrix(1 0 0 1 830.3242 344.0664)"><g><path fill="#000000" stroke="none" d="M 16.797 -1.656 L 19.547 -1.656 L 19.547 0 L 13.922 0 L 13.922 -2.594 C 13.359 -1.551 12.641 -0.781 11.766 -0.281 C 10.898 0.207 9.828 0.453 8.547 0.453 C 6.504 0.453 4.832 -0.352 3.531 -1.969 C 2.238 -3.594 1.594 -5.707 1.594 -8.313 C 1.594 -10.914 2.238 -13.023 3.531 -14.641 C 4.82 -16.254 6.492 -17.063 8.547 -17.063 C 9.828 -17.063 10.898 -16.813 11.766 -16.313 C 12.641 -15.82 13.359 -15.055 13.922 -14.016 L 13.922 -22.656 L 11.203 -22.656 L 11.203 -24.313 L 16.797 -24.313 Z M 13.922 -7.484 L 13.922 -9.125 C 13.922 -11.113 13.535 -12.633 12.766 -13.688 C 12.004 -14.738 10.895 -15.266 9.438 -15.266 C 7.957 -15.266 6.836 -14.68 6.078 -13.516 C 5.328 -12.348 4.953 -10.613 4.953 -8.313 C 4.953 -6.02 5.328 -4.285 6.078 -3.109 C 6.836 -1.93 7.957 -1.344 9.438 -1.344 C 10.895 -1.344 12.004 -1.863 12.766 -2.906 C 13.535 -3.957 13.922 -5.484 13.922 -7.484 Z M 13.922 -7.484"/></g></g></g></g></g></svg>
</svg>