<?xml version="1.0" standalone="no"?>
<svg height="806.328" preserveAspectRatio="none" viewBox="0.000 0.000 908.894 806.328" width="908.894" x="0.000" xmlns="http://www.w3.org/2000/svg" xmlns:svg="http://www.w3.org/2000/svg" xmlns:xlink="http://www.w3.org/1999/xlink" y="0.000">
<svg width="908.894" height="806.328" viewBox="19.413 858.443 908.894 806.328" preserveAspectRatio="none" xmlns="http://www.w3.org/2000/svg"><defs><clipPath id="HPSpe24QclipPath1"><path fill="#000000" stroke="none" d="M 0 0 L 908.894 0 L 908.894 806.328 L 0 806.328 Z"/></clipPath><clipPath id="HPSpe24Qclip-0"><path fill="#000000" stroke="none" d="M 457 262 L 888.895 262 L 888.895 378 L 457 378 Z M 457 262"/></clipPath><clipPath id="HPSpe24Qclip-1"><path fill="#000000" stroke="none" d="M 789 252 L 888.895 252 L 888.895 387 L 789 387 Z M 789 252"/></clipPath><clipPath id="HPSpe24Qclip-2"><path fill="#000000" stroke="none" d="M 20 198 L 220 198 L 220 434 L 20 434 Z M 20 198"/></clipPath><clipPath id="HPSpe24Qclip-3"><path fill="#000000" stroke="none" d="M 20 388 L 219 388 L 219 610 L 20 610 Z M 20 388"/></clipPath><clipPath id="HPSpe24Qclip-4"><path fill="#000000" stroke="none" d="M 54 569 L 283 569 L 283 786.328 L 54 786.328 Z M 54 569"/></clipPath><clipPath id="HPSpe24Qclip-5"><path fill="#000000" stroke="none" d="M 435 415 L 888.895 415 L 888.895 579 L 435 579 Z M 435 415"/></clipPath><clipPath id="HPSpe24Qclip-6"><path fill="#000000" stroke="none" d="M 44 20 L 278 20 L 278 242 L 44 242 Z M 44 20"/></clipPath><clipPath id="HPSpe24Qclip-7"><path fill="#000000" stroke="none" d="M 20 292 L 888.895 292 L 888.895 519 L 20 519 Z M 20 292"/></clipPath></defs><g transform="matrix(1 0 0 1 19.413 858.4431)"><g clip-path="url(#HPSpe24QclipPath1)"><path fill="#98c0f0" stroke="none" d="M 577.582 466.41 C 576.656 483.719 569.414 501.18 562.871 516.543 C 556.328 531.906 547.746 546.84 538.316 558.586 C 528.883 570.332 517.535 579.856 506.277 587.02 C 495.023 594.184 483.129 599.727 470.777 601.574 C 458.426 603.422 444.59 601.684 432.16 598.102 C 419.734 594.523 407.152 588.676 396.207 580.094 C 385.266 571.512 375.316 559.727 366.492 546.613 C 357.672 533.496 349.313 517.848 343.277 501.406 C 337.242 484.965 332.727 465.992 330.277 447.957 C 327.824 429.918 327.09 411.266 328.57 393.188 C 330.051 375.109 334.082 356 339.164 339.496 C 344.246 322.992 351.188 307.484 359.063 294.16 C 366.934 280.832 375.969 269.035 386.406 259.535 C 396.844 250.031 409.523 241.789 421.695 237.145 C 433.863 232.5 446.91 230.75 459.422 231.668 C 471.934 232.59 484.977 236.402 496.762 242.668 C 508.547 248.934 520.281 258.289 530.141 269.254 C 539.996 280.223 548.453 293.715 555.91 308.477 C 563.363 323.242 570.574 340.504 574.867 357.84 C 579.16 375.172 581.356 392.93 581.668 412.48 C 581.984 432.027 578.305 463.73 576.75 475.129 C 575.191 486.527 574.332 481.977 572.32 480.863 M 581.75 396.508 C 585.586 413.512 582.93 433.391 580.539 451.199 C 578.148 469.012 573.141 487.48 567.41 503.371 C 561.68 519.262 554.531 533.469 546.152 546.543 C 537.77 559.617 527.781 573.356 517.129 581.816 C 506.477 590.273 494.531 594.277 482.242 597.297 C 469.953 600.316 455.66 601.82 443.391 599.934 C 431.121 598.051 419.855 592.871 408.621 585.981 C 397.391 579.09 386.012 570.281 375.988 558.59 C 365.965 546.898 355.625 531.336 348.484 515.84 C 341.344 500.348 336.328 483.047 333.145 465.617 C 329.961 448.184 329.27 429.441 329.379 411.246 C 329.488 393.055 330.184 373.801 333.797 356.465 C 337.41 339.125 343.535 321.813 351.055 307.223 C 358.57 292.633 369.145 279.766 378.898 268.93 C 388.652 258.098 398.293 248.199 409.574 242.211 C 420.859 236.223 434.051 233.547 446.598 232.992 C 459.148 232.438 472.664 234.25 484.859 238.891 C 497.051 243.535 509.172 251.277 519.75 260.84 C 530.328 270.402 539.754 282.723 548.32 296.27 C 556.887 309.813 566.039 325.422 571.145 342.105 C 576.25 358.789 577.731 387.16 578.961 396.375 C 580.188 405.59 580.215 397.371 578.516 397.387"/><g transform="matrix(0.027 1 -1 0.027 455.1272 416.8049)"><path fill="none" stroke="#000000" stroke-miterlimit="10" stroke-width="4" d="M -19.555 -125.424 C -2.807 -128.55 17.721 -125.535 35.637 -123.149 C 53.549 -120.759 71.915 -116.794 87.925 -111.104 C 103.936 -105.41 118.895 -97.663 131.696 -88.993 C 144.501 -80.323 156.261 -70.021 164.743 -59.077 C 173.229 -48.137 179.256 -35.674 182.591 -23.337 C 185.922 -11.001 186.914 2.603 184.753 14.932 C 182.592 27.256 177.291 39.137 169.618 50.617 C 161.948 62.097 150.713 74.419 138.733 83.81 C 126.753 93.202 113.09 100.681 97.729 106.965 C 82.372 113.25 64.25 118.342 46.574 121.517 C 28.903 124.697 9.883 126.425 -8.305 126.036 C -26.494 125.642 -45.385 123.328 -62.554 119.173 C -79.727 115.014 -96.877 108.441 -111.343 101.086 C -125.808 93.734 -138.846 84.992 -149.343 75.056 C -159.844 65.124 -168.434 53.251 -174.339 41.482 C -180.244 29.714 -184.134 16.964 -184.765 4.439 C -185.391 -8.082 -182.873 -21.654 -178.107 -33.647 C -173.338 -45.639 -165.927 -57.111 -156.15 -67.507 C -146.377 -77.903 -133.47 -87.918 -119.446 -96.028 C -105.419 -104.137 -91.984 -111.142 -71.993 -116.16 C -52.002 -121.183 -15.144 -125.032 0.511 -126.148 C 16.162 -127.261 21.703 -125.002 21.934 -122.847 M 71.44 -114.979 C 88.377 -111.912 104.438 -102.729 118.662 -94.97 C 132.882 -87.215 146.939 -78.488 156.781 -68.437 C 166.619 -58.386 173.166 -46.526 177.701 -34.665 C 182.233 -22.808 184.486 -9.743 183.981 2.712 C 183.473 15.171 180.259 28.318 174.656 40.077 C 169.057 51.84 160.922 63.07 150.377 73.277 C 139.832 83.485 125.767 93.82 111.389 101.33 C 97.014 108.844 81.18 114.264 64.113 118.346 C 47.05 122.429 27.418 125.41 9.005 125.831 C -9.413 126.248 -28.905 124.073 -46.381 120.859 C -63.852 117.645 -80.277 112.686 -95.834 106.544 C -111.391 100.401 -127.266 93.023 -139.717 84.003 C -152.173 74.983 -163 63.933 -170.556 52.417 C -178.112 40.904 -183.066 27.337 -185.059 14.912 C -187.052 2.483 -185.77 -9.838 -182.508 -22.137 C -179.246 -34.435 -173.996 -47.899 -165.492 -58.88 C -156.985 -69.858 -144.344 -79.294 -131.476 -88.005 C -118.608 -96.716 -103.985 -105.169 -88.281 -111.143 C -72.576 -117.122 -55.361 -121.61 -37.253 -123.867 C -19.142 -126.128 2.092 -125.797 20.375 -124.706 C 38.662 -123.614 63.821 -119.115 72.461 -117.327 C 81.1 -115.543 73.642 -116.217 72.214 -113.986"/></g><path fill="#26a169" stroke="none" d="M 466.797 420.023 C 474.902 420.754 482.926 427.695 489.613 434.246 C 496.305 440.801 502.859 449.633 506.945 459.332 C 511.031 469.027 513.77 481.492 514.137 492.438 C 514.5 503.383 512.543 514.816 509.145 525.004 C 505.746 535.191 500.016 546.25 493.746 553.57 C 487.477 560.891 479.789 566.324 471.527 568.922 C 463.262 571.523 452.695 571.231 444.168 569.168 C 435.641 567.109 427.313 563.02 420.363 556.563 C 413.41 550.102 406.551 540.145 402.461 530.422 C 398.367 520.699 395.914 509.242 395.805 498.227 C 395.695 487.211 398.363 474.531 401.801 464.328 C 405.242 454.125 409.922 444.102 416.438 437.008 C 422.957 429.914 431.789 424.391 440.902 421.766 C 450.02 419.141 465.508 420.609 471.137 421.262 C 476.766 421.914 475.094 424.402 474.676 425.672 M 477.414 425.457 C 485.293 428.313 494.477 436.516 500.313 444.777 C 506.145 453.043 510.426 464.781 512.414 475.039 C 514.402 485.297 513.461 495.535 512.234 506.32 C 511.008 517.109 509.582 530.813 505.059 539.758 C 500.535 548.707 492.914 554.875 485.09 560 C 477.266 565.129 466.84 569.738 458.113 570.52 C 449.387 571.297 440.547 568.691 432.727 564.676 C 424.902 560.656 416.848 554.535 411.176 546.414 C 405.508 538.293 401.027 526.453 398.707 515.945 C 396.387 505.438 395.828 493.977 397.266 483.367 C 398.703 472.754 402.344 461.297 407.324 452.273 C 412.309 443.25 419.922 434.574 427.164 429.215 C 434.406 423.855 442.387 420.625 450.785 420.113 C 459.184 419.602 473.277 424.977 477.547 426.145 C 481.82 427.313 476.852 425.883 476.418 427.113"/><g transform="matrix(1 0 0 1 455.4022 495.2329)"><path fill="none" stroke="#000000" stroke-miterlimit="10" stroke-width="4" d="M -22.242 -68.842 C -15.031 -73.819 -5.691 -76.202 2.887 -75.659 C 11.469 -75.112 21.625 -70.733 29.242 -65.565 C 36.864 -60.397 43.699 -53.495 48.606 -44.643 C 53.512 -35.795 57.512 -23.241 58.672 -12.467 C 59.836 -1.694 58.149 9.384 55.586 20.002 C 53.02 30.619 48.867 42.837 43.285 51.24 C 37.707 59.642 29.727 66.24 22.106 70.416 C 14.485 74.591 6.008 77.091 -2.445 76.291 C -10.894 75.486 -21.183 70.837 -28.605 65.595 C -36.031 60.353 -42.015 53.498 -46.984 44.837 C -51.953 36.173 -56.785 24.603 -58.414 13.623 C -60.043 2.638 -59.027 -10.514 -56.754 -21.053 C -54.484 -31.588 -52.117 -40.803 -44.793 -49.6 C -37.465 -58.393 -19.785 -69.647 -12.804 -73.823 C -5.82 -77.995 -3.195 -75.885 -2.902 -74.639 M -0.449 -76.854 C 7.711 -78.256 16.567 -74.623 24.02 -70.084 C 31.473 -65.545 38.59 -58.495 44.27 -49.62 C 49.949 -40.748 56.063 -27.92 58.098 -16.846 C 60.133 -5.776 58.125 6.162 56.477 16.806 C 54.824 27.451 53.399 38.72 48.196 47.025 C 42.996 55.33 33.219 61.888 25.27 66.634 C 17.321 71.377 8.754 75.146 0.5 75.486 C -7.75 75.826 -16.386 73.255 -24.242 68.669 C -32.097 64.084 -41.109 56.119 -46.644 47.966 C -52.176 39.814 -55.847 30.216 -57.445 19.755 C -59.039 9.298 -57.804 -4.03 -56.215 -14.799 C -54.629 -25.565 -53.051 -36.28 -47.918 -44.85 C -42.789 -53.424 -33.258 -61.229 -25.437 -66.237 C -17.617 -71.248 -4.965 -73.541 -0.992 -74.916 C 2.985 -76.291 -1.386 -75.666 -1.59 -74.483"/></g><path fill="#f4c111" stroke="none" d="M 471.309 259.004 C 479.492 260.457 487.523 267.633 494.156 274.809 C 500.789 281.984 507.82 292.43 511.105 302.055 C 514.391 311.684 515.082 322.074 513.871 332.566 C 512.66 343.063 508.918 356.266 503.84 365.012 C 498.762 373.754 491.09 380.309 483.395 385.039 C 475.695 389.773 466.355 393.363 457.648 393.402 C 448.941 393.445 439.059 390.301 431.152 385.289 C 423.242 380.277 415.34 372.129 410.199 363.336 C 405.059 354.543 401.535 342.957 400.305 332.527 C 399.074 322.102 399.625 310.59 402.816 300.766 C 406.004 290.938 412.777 280.637 419.438 273.566 C 426.094 266.496 433.266 260.293 442.766 258.344 C 452.266 256.391 469.855 260.605 476.434 261.852 C 483.012 263.094 482.613 264.848 482.234 265.805 M 468.988 259.332 C 477.285 260.664 485.906 267.012 492.98 273.762 C 500.055 280.512 507.762 290.199 511.438 299.824 C 515.113 309.453 516.199 321.188 515.031 331.52 C 513.867 341.855 509.379 353.16 504.438 361.836 C 499.492 370.516 493.145 378.254 485.367 383.586 C 477.594 388.918 466.766 393.48 457.785 393.836 C 448.805 394.191 439.145 390.266 431.488 385.711 C 423.828 381.16 417.219 374.777 411.828 366.52 C 406.441 358.262 400.711 346.578 399.152 336.164 C 397.59 325.75 399.375 314.234 402.473 304.035 C 405.566 293.836 411.477 282.191 417.727 274.965 C 423.977 267.738 431.523 263.613 439.969 260.672 C 448.414 257.73 463.371 257.598 468.391 257.316 C 473.406 257.031 470.375 257.516 470.07 258.969"/><g transform="matrix(1 0 0 1 456.9582 325.2519)"><path fill="none" stroke="#000000" stroke-miterlimit="10" stroke-width="4" d="M 7.718 -67.869 C 16.335 -67.228 26.643 -60.439 33.972 -53.99 C 41.3 -47.537 47.71 -38.596 51.686 -29.166 C 55.667 -19.732 58.124 -7.838 57.839 2.611 C 57.55 13.057 54.483 24.354 49.964 33.51 C 45.444 42.662 38.311 51.65 30.722 57.537 C 23.128 63.424 13.097 67.932 4.413 68.834 C -4.271 69.74 -13.364 67.283 -21.376 62.963 C -29.392 58.643 -37.88 51.123 -43.661 42.912 C -49.446 34.701 -54.134 23.772 -56.071 13.697 C -58.009 3.619 -57.732 -7.455 -55.286 -17.553 C -52.841 -27.65 -47.595 -39.06 -41.4 -46.881 C -35.204 -54.701 -26.646 -61.088 -18.126 -64.467 C -9.607 -67.85 4.757 -67.119 9.725 -67.17 C 14.69 -67.221 11.929 -65.787 11.683 -64.775 M 16.378 -64.955 C 24.706 -63.35 33.929 -57.244 40.116 -50.228 C 46.3 -43.217 50.479 -32.814 53.495 -22.881 C 56.507 -12.947 59.253 -1.318 58.198 9.369 C 57.147 20.061 52.901 32.565 47.179 41.264 C 41.456 49.963 31.765 56.916 23.862 61.557 C 15.956 66.197 8.585 69.213 -0.251 69.108 C -9.083 69.002 -21.138 66.213 -29.142 60.92 C -37.15 55.627 -43.446 46.514 -48.282 37.346 C -53.118 28.178 -57.536 16.475 -58.157 5.908 C -58.778 -4.658 -55.392 -16.588 -52.009 -26.057 C -48.622 -35.521 -44.497 -44.014 -37.841 -50.9 C -31.189 -57.783 -20.806 -64.728 -12.079 -67.361 C -3.349 -69.994 9.78 -67.17 14.53 -66.697 C 19.276 -66.221 16.593 -65.76 16.409 -64.514"/></g><g><g transform="matrix(1 0 0 1 432.3008 515.8164)"><g><path fill="#000000" stroke="none" d="M 0.297 -0.313 L 0.406 -0.469 L 0.328 -0.469 L 0.328 -0.516 L 0.531 -0.516 L 0.531 -0.469 L 0.469 -0.469 L 0.328 -0.281 L 0.484 -0.047 L 0.547 -0.047 L 0.547 0 L 0.313 0 L 0.313 -0.047 L 0.375 -0.047 L 0.266 -0.203 L 0.156 -0.047 L 0.219 -0.047 L 0.219 0 L 0.016 0 L 0.016 -0.047 L 0.094 -0.047 L 0.234 -0.25 L 0.078 -0.469 L 0.016 -0.469 L 0.016 -0.516 L 0.25 -0.516 L 0.25 -0.469 L 0.188 -0.469 Z M 0.297 -0.313"/></g></g></g><g clip-path="url(#HPSpe24Qclip-0)"><g transform="matrix(1 0 0 1 -19.413 -858.4431)"><path fill="none" stroke="#000000" stroke-miterlimit="10" stroke-width="4" d="M 533.604 1177.642 C 626.261 1177.681 720.538 1176.924 880.229 1178.045 M 533.073 1178.052 C 654.409 1179.498 775.405 1179.478 881.554 1179.002"/></g></g><g clip-path="url(#HPSpe24Qclip-1)"><g transform="matrix(1 0 0 1 -19.413 -858.4431)"><path fill="none" stroke="#000000" stroke-miterlimit="10" stroke-width="4" d="M 868.425 1188.033 C 870.163 1185.009 874.21 1181.134 879.905 1177.92 M 867.722 1188.576 C 872.233 1184.892 876.296 1181.15 881.651 1179.181 M 880.831 1179.455 C 878.311 1174.404 874.929 1172.259 865.429 1167.873 M 881.206 1179.177 C 874.784 1173.81 869.495 1171.314 866.796 1168.095"/></g></g><g><g transform="matrix(1 0 0 1 729.1446 295.7227)"><g><path fill="#000000" stroke="none" d="M 13.766 -20.391 L 12.25 -20.391 C 12.238 -21.172 12.016 -21.766 11.578 -22.172 C 11.148 -22.578 10.523 -22.781 9.703 -22.781 C 8.629 -22.781 7.875 -22.484 7.438 -21.891 C 7 -21.305 6.781 -20.258 6.781 -18.75 L 6.781 -16.609 L 11.422 -16.609 L 11.422 -14.938 L 6.781 -14.938 L 6.781 -1.656 L 10.469 -1.656 L 10.469 0 L 1.156 0 L 1.156 -1.656 L 3.906 -1.656 L 3.906 -14.938 L 1.156 -14.938 L 1.156 -16.609 L 3.906 -16.609 L 3.906 -18.688 C 3.906 -20.539 4.383 -21.941 5.344 -22.891 C 6.313 -23.836 7.727 -24.313 9.594 -24.313 C 10.289 -24.313 10.988 -24.25 11.688 -24.125 C 12.383 -24 13.078 -23.805 13.766 -23.547 Z M 13.766 -20.391"/></g></g><g transform="matrix(1 0 0 1 741.1446 295.7227)"><g><path fill="#000000" stroke="none" d="M 9.625 -1.094 C 11.164 -1.094 12.328 -1.703 13.109 -2.922 C 13.898 -4.141 14.297 -5.938 14.297 -8.313 C 14.297 -10.688 13.898 -12.477 13.109 -13.688 C 12.328 -14.906 11.164 -15.516 9.625 -15.516 C 8.082 -15.516 6.914 -14.906 6.125 -13.688 C 5.344 -12.477 4.953 -10.688 4.953 -8.313 C 4.953 -5.938 5.348 -4.141 6.141 -2.922 C 6.93 -1.703 8.094 -1.094 9.625 -1.094 Z M 9.625 0.453 C 7.207 0.453 5.266 -0.344 3.797 -1.938 C 2.328 -3.539 1.594 -5.664 1.594 -8.313 C 1.594 -10.957 2.32 -13.078 3.781 -14.672 C 5.25 -16.266 7.195 -17.063 9.625 -17.063 C 12.051 -17.063 13.992 -16.266 15.453 -14.672 C 16.922 -13.078 17.656 -10.957 17.656 -8.313 C 17.656 -5.664 16.922 -3.539 15.453 -1.938 C 13.992 -0.344 12.051 0.453 9.625 0.453 Z M 9.625 0.453"/></g></g><g transform="matrix(1 0 0 1 760.1446 295.7227)"><g><path fill="#000000" stroke="none" d="M 15.297 -16.641 L 15.297 -12.484 L 13.641 -12.484 C 13.586 -13.305 13.359 -13.922 12.953 -14.328 C 12.547 -14.734 11.953 -14.938 11.172 -14.938 C 9.754 -14.938 8.664 -14.445 7.906 -13.469 C 7.156 -12.488 6.781 -11.082 6.781 -9.25 L 6.781 -1.656 L 10.109 -1.656 L 10.109 0 L 1.313 0 L 1.313 -1.656 L 3.906 -1.656 L 3.906 -14.969 L 1.156 -14.969 L 1.156 -16.609 L 6.781 -16.609 L 6.781 -13.656 C 7.344 -14.813 8.066 -15.664 8.953 -16.219 C 9.836 -16.781 10.914 -17.063 12.188 -17.063 C 12.656 -17.063 13.145 -17.023 13.656 -16.953 C 14.176 -16.879 14.723 -16.773 15.297 -16.641 Z M 15.297 -16.641"/></g></g><g transform="matrix(1 0 0 1 775.1446 295.7227)"><g><path fill="#000000" stroke="none" d="M 15.359 -16.609 L 19.609 -3.641 L 23.359 -14.938 L 20.953 -14.938 L 20.953 -16.609 L 26.969 -16.609 L 26.969 -14.938 L 25.125 -14.938 L 20.188 0 L 17.797 0 L 13.703 -12.422 L 9.594 0 L 7.297 0 L 2.375 -14.938 L 0.516 -14.938 L 0.516 -16.609 L 8.031 -16.609 L 8.031 -14.938 L 5.344 -14.938 L 9.063 -3.641 L 13.344 -16.609 Z M 15.359 -16.609"/></g></g><g transform="matrix(1 0 0 1 802.1446 295.7227)"><g><path fill="#000000" stroke="none" d="M 12.734 -5.219 L 12.734 -8.734 L 9.031 -8.734 C 7.602 -8.734 6.539 -8.426 5.844 -7.813 C 5.145 -7.195 4.797 -6.254 4.797 -4.984 C 4.797 -3.828 5.148 -2.91 5.859 -2.234 C 6.566 -1.555 7.523 -1.219 8.734 -1.219 C 9.93 -1.219 10.895 -1.586 11.625 -2.328 C 12.363 -3.066 12.734 -4.031 12.734 -5.219 Z M 15.609 -10.375 L 15.609 -1.656 L 18.172 -1.656 L 18.172 0 L 12.734 0 L 12.734 -1.797 C 12.098 -1.023 11.363 -0.457 10.531 -0.094 C 9.695 0.27 8.723 0.453 7.609 0.453 C 5.766 0.453 4.301 -0.035 3.219 -1.016 C 2.133 -1.992 1.594 -3.316 1.594 -4.984 C 1.594 -6.703 2.211 -8.035 3.453 -8.984 C 4.691 -9.93 6.441 -10.406 8.703 -10.406 L 12.734 -10.406 L 12.734 -11.547 C 12.734 -12.805 12.348 -13.781 11.578 -14.469 C 10.816 -15.164 9.742 -15.516 8.359 -15.516 C 7.211 -15.516 6.301 -15.254 5.625 -14.734 C 4.945 -14.211 4.523 -13.441 4.359 -12.422 L 2.875 -12.422 L 2.875 -15.781 C 3.875 -16.207 4.844 -16.523 5.781 -16.734 C 6.727 -16.953 7.648 -17.063 8.547 -17.063 C 10.848 -17.063 12.598 -16.488 13.797 -15.344 C 15.004 -14.207 15.609 -12.551 15.609 -10.375 Z M 15.609 -10.375"/></g></g><g transform="matrix(1 0 0 1 821.1446 295.7227)"><g><path fill="#000000" stroke="none" d="M 15.297 -16.641 L 15.297 -12.484 L 13.641 -12.484 C 13.586 -13.305 13.359 -13.922 12.953 -14.328 C 12.547 -14.734 11.953 -14.938 11.172 -14.938 C 9.754 -14.938 8.664 -14.445 7.906 -13.469 C 7.156 -12.488 6.781 -11.082 6.781 -9.25 L 6.781 -1.656 L 10.109 -1.656 L 10.109 0 L 1.313 0 L 1.313 -1.656 L 3.906 -1.656 L 3.906 -14.969 L 1.156 -14.969 L 1.156 -16.609 L 6.781 -16.609 L 6.781 -13.656 C 7.344 -14.813 8.066 -15.664 8.953 -16.219 C 9.836 -16.781 10.914 -17.063 12.188 -17.063 C 12.656 -17.063 13.145 -17.023 13.656 -16.953 C 14.176 -16.879 14.723 -16.773 15.297 -16.641 Z M 15.297 -16.641"/></g></g><g transform="matrix(1 0 0 1 836.1446 295.7227)"><g><path fill="#000000" stroke="none" d="M 16.797 -1.656 L 19.547 -1.656 L 19.547 0 L 13.922 0 L 13.922 -2.594 C 13.359 -1.551 12.641 -0.781 11.766 -0.281 C 10.898 0.207 9.828 0.453 8.547 0.453 C 6.504 0.453 4.832 -0.352 3.531 -1.969 C 2.238 -3.594 1.594 -5.707 1.594 -8.313 C 1.594 -10.914 2.238 -13.023 3.531 -14.641 C 4.82 -16.254 6.492 -17.063 8.547 -17.063 C 9.828 -17.063 10.898 -16.813 11.766 -16.313 C 12.641 -15.82 13.359 -15.055 13.922 -14.016 L 13.922 -22.656 L 11.203 -22.656 L 11.203 -24.313 L 16.797 -24.313 Z M 13.922 -7.484 L 13.922 -9.125 C 13.922 -11.113 13.535 -12.633 12.766 -13.688 C 12.004 -14.738 10.895 -15.266 9.438 -15.266 C 7.957 -15.266 6.836 -14.68 6.078 -13.516 C 5.328 -12.348 4.953 -10.613 4.953 -8.313 C 4.953 -6.02 5.328 -4.285 6.078 -3.109 C 6.836 -1.93 7.957 -1.344 9.438 -1.344 C 10.895 -1.344 12.004 -1.863 12.766 -2.906 C 13.535 -3.957 13.922 -5.484 13.922 -7.484 Z M 13.922 -7.484"/></g></g></g><g transform="matrix(1 0 0 1 -19.413 -858.4431)"><path fill="none" stroke="#000000" stroke-miterlimit="10" stroke-width="3.736" d="M 181.085 1176.982 C 229.382 1177.318 277.608 1177.619 416.722 1178.939 M 182.491 1178.138 C 252.436 1174.873 321.886 1175.838 416.604 1179.267"/></g><g transform="matrix(1 0 0 1 -19.413 -858.4431)"><path fill="none" stroke="#000000" stroke-miterlimit="10" stroke-width="3.736" d="M 402.628 1186.818 C 406.268 1186.021 409.683 1184.334 416.725 1178.943 M 404.03 1187.97 C 408.374 1185.064 412.046 1183.103 416.608 1179.263 M 418.093 1179.838 C 413.19 1176.318 407.956 1170.927 404.425 1169.119 M 417.925 1179.138 C 412.347 1175.685 407.741 1172.404 403.702 1169.873"/></g><path fill="#f4c111" stroke="none" d="M 79.895 259.938 C 87.695 255.949 99.91 255.738 109.023 256.578 C 118.137 257.418 126.984 259.918 134.57 264.973 C 142.156 270.027 149.852 278.633 154.535 286.898 C 159.219 295.16 162.41 305.203 162.664 314.563 C 162.918 323.922 160.285 334.551 156.051 343.047 C 151.816 351.543 144.969 360.031 137.258 365.539 C 129.543 371.047 119.074 374.77 109.77 376.102 C 100.465 377.434 90.141 376.738 81.43 373.535 C 72.723 370.328 63.496 364.066 57.512 356.871 C 51.531 349.672 47.629 339.348 45.535 330.352 C 43.438 321.355 42.965 311.898 44.941 302.887 C 46.918 293.875 50.355 283.992 57.395 276.285 C 64.434 268.578 80.852 259.855 87.176 256.648 C 93.504 253.445 95.027 255.977 95.352 257.059 M 103.582 254.945 C 112.445 254.523 123.695 259.223 131.945 263.703 C 140.191 268.188 148.402 274.324 153.066 281.84 C 157.727 289.359 159.355 299.625 159.914 308.809 C 160.469 317.992 159.523 328.203 156.406 336.938 C 153.285 345.668 147.809 354.965 141.207 361.203 C 134.609 367.445 125.977 372.203 116.809 374.387 C 107.645 376.566 95.539 376.719 86.215 374.289 C 76.887 371.863 67.41 366.086 60.859 359.824 C 54.309 353.566 50.023 345.609 46.902 336.734 C 43.785 327.863 41.25 315.941 42.148 306.59 C 43.047 297.234 46.98 288.313 52.285 280.609 C 57.594 272.906 65.434 264.52 73.992 260.367 C 82.551 256.219 98.949 256.52 103.648 255.707 C 108.348 254.895 102.07 254.387 102.188 255.496"/><g clip-path="url(#HPSpe24Qclip-2)"><g transform="matrix(1 0 0 1 102.1501 315.8189)"><path fill="none" stroke="#000000" stroke-miterlimit="10" stroke-width="4" d="M 9.643 -60.557 C 18.244 -59.858 28.491 -53.167 35.912 -47.206 C 43.338 -41.249 50.182 -33.186 54.182 -24.803 C 58.182 -16.42 60.385 -6.331 59.92 3.099 C 59.455 12.529 56.084 23.556 51.393 31.767 C 46.698 39.978 39.506 47.556 31.764 52.361 C 24.022 57.166 14.135 60.212 4.936 60.599 C -4.259 60.986 -14.826 58.427 -23.416 54.685 C -32.006 50.947 -40.717 45.462 -46.607 38.162 C -52.498 30.861 -57.084 20.185 -58.763 10.884 C -60.447 1.583 -59.388 -8.846 -56.697 -17.647 C -54.006 -26.444 -48.982 -35.159 -42.627 -41.913 C -36.271 -48.667 -29.365 -55.682 -18.56 -58.167 C -7.756 -60.655 13.553 -58.428 22.209 -56.834 C 30.866 -55.245 33.674 -49.682 33.373 -48.62 M 10.451 -58.932 C 18.955 -58.479 28.248 -53.749 35.522 -47.913 C 42.795 -42.077 49.862 -32.768 54.088 -23.917 C 58.315 -15.069 61.498 -4.12 60.877 5.189 C 60.26 14.498 55.483 24.283 50.366 31.939 C 45.248 39.599 38.229 46.298 30.178 51.142 C 22.123 55.99 11.17 60.279 2.061 61.009 C -7.052 61.744 -16.248 59.294 -24.49 55.537 C -32.728 51.783 -41.506 46.048 -47.388 38.474 C -53.271 30.9 -58.228 19.576 -59.787 10.095 C -61.345 0.619 -59.595 -9.385 -56.744 -18.401 C -53.892 -27.42 -49.127 -37.639 -42.674 -44.006 C -36.22 -50.377 -27.084 -53.995 -18.025 -56.612 C -8.967 -59.233 6.928 -59.397 11.682 -59.717 C 16.436 -60.038 10.905 -59.428 10.506 -58.534"/></g></g><g><g transform="matrix(1 0 0 1 87.0156 329.0391)"><g><path fill="#000000" stroke="none" d="M 14.984 5.625 C 14.234 7.457 13.328 8.754 12.266 9.516 C 11.203 10.285 9.77 10.672 7.969 10.672 C 7.207 10.672 6.359 10.582 5.422 10.406 C 4.484 10.238 3.457 9.988 2.344 9.656 L 2.344 4.453 L 5 4.484 C 5.039 5.68 5.32 6.566 5.844 7.141 C 6.375 7.723 7.16 8.016 8.203 8.016 C 9.223 8.016 10.047 7.738 10.672 7.188 C 11.297 6.633 11.922 5.582 12.547 4.031 L 12.922 3.172 L 2.063 -22.078 L -0.641 -22.078 L -0.641 -24.922 L 13.734 -24.922 L 13.734 -22.078 L 10.766 -22.078 L 17.094 -7.344 L 23 -22.078 L 19.688 -22.078 L 19.688 -24.922 L 29.047 -24.922 L 29.047 -22.078 L 26.016 -22.078 Z M 14.984 5.625"/></g></g></g><g><g transform="matrix(1 0 0 1 447.8047 336.793)"><g><path fill="#000000" stroke="none" d="M 23.938 -30.594 L 21.672 -30.594 C 21.734 -30.914 21.766 -31.227 21.766 -31.531 C 21.766 -32.25 21.578 -32.828 21.203 -33.266 C 20.672 -33.867 19.785 -34.172 18.547 -34.172 C 16.941 -34.172 15.723 -33.727 14.891 -32.844 C 14.066 -31.969 13.438 -30.395 13 -28.125 L 12.359 -24.922 L 19.328 -24.922 L 18.828 -22.406 L 11.875 -22.406 L 7.234 1.547 C 6.68 4.328 5.547 6.426 3.828 7.844 C 2.109 9.27 -0.148 9.984 -2.953 9.984 L -2.672 7.688 C -1.023 7.688 0.195 7.25 1 6.375 C 1.82 5.438 2.461 3.828 2.922 1.547 L 7.563 -22.406 L 3.438 -22.406 L 3.922 -24.922 L 8.047 -24.922 L 8.656 -28.031 C 9.207 -30.832 10.344 -32.938 12.063 -34.344 C 13.781 -35.758 16.035 -36.469 18.828 -36.469 C 19.879 -36.469 20.906 -36.375 21.906 -36.188 C 22.914 -36 23.906 -35.711 24.875 -35.328 Z M 23.938 -30.594"/></g></g></g><g><g transform="matrix(1 0 0 1 440.086 511.5938)"><g><path fill="#000000" stroke="none" d="M 23.938 -30.594 L 21.672 -30.594 C 21.734 -30.914 21.766 -31.227 21.766 -31.531 C 21.766 -32.25 21.578 -32.828 21.203 -33.266 C 20.672 -33.867 19.785 -34.172 18.547 -34.172 C 16.941 -34.172 15.723 -33.727 14.891 -32.844 C 14.066 -31.969 13.438 -30.395 13 -28.125 L 12.359 -24.922 L 19.328 -24.922 L 18.828 -22.406 L 11.875 -22.406 L 7.234 1.547 C 6.68 4.328 5.547 6.426 3.828 7.844 C 2.109 9.27 -0.148 9.984 -2.953 9.984 L -2.672 7.688 C -1.023 7.688 0.195 7.25 1 6.375 C 1.82 5.438 2.461 3.828 2.922 1.547 L 7.563 -22.406 L 3.438 -22.406 L 3.922 -24.922 L 8.047 -24.922 L 8.656 -28.031 C 9.207 -30.832 10.344 -32.938 12.063 -34.344 C 13.781 -35.758 16.035 -36.469 18.828 -36.469 C 19.879 -36.469 20.906 -36.375 21.906 -36.188 C 22.914 -36 23.906 -35.711 24.875 -35.328 Z M 23.938 -30.594"/></g></g><g transform="matrix(1 0 0 1 458.086 511.5938)"><g/></g><g transform="matrix(1 0 0 1 473.086 511.5938)"><g><path fill="#000000" stroke="none" d="M 8.438 -35 L 8.438 -21.984 L 4.719 -21.984 L 4.719 -35 Z M 8.438 -35"/></g></g></g><g transform="matrix(1 0 0 1 -19.413 -858.4431)"><path fill="none" stroke="#000000" stroke-miterlimit="10" stroke-width="3.611267" d="M 413.89 1355.353 C 355.675 1359.662 299.698 1358.674 182.429 1359.076 M 412.018 1356.002 C 323.433 1354.908 235.183 1356.345 182.288 1358.388"/></g><g transform="matrix(1 0 0 1 -19.413 -858.4431)"><path fill="none" stroke="#000000" stroke-miterlimit="10" stroke-width="3.611267" d="M 197.714 1347.849 C 192.378 1352.634 189.171 1353.529 182.429 1359.06 M 195.897 1348.482 C 190.577 1352.076 185.64 1356.4 182.296 1358.388 M 182.483 1359.299 C 186.62 1360.029 191.366 1365.302 197.026 1367.939 M 183.14 1358.517 C 186.409 1361.947 191.718 1364.799 196.335 1367.99"/></g><path fill="#26a169" stroke="none" d="M 79.883 449.621 C 87.652 445.75 99.148 443.664 108.25 444.418 C 117.348 445.172 126.762 449.25 134.484 454.152 C 142.207 459.059 150.121 466.348 154.59 473.848 C 159.055 481.348 161.27 490.785 161.285 499.156 C 161.301 507.527 158.887 516.488 154.684 524.07 C 150.477 531.656 143.668 539.84 136.063 544.656 C 128.453 549.473 118.148 552.023 109.043 552.973 C 99.934 553.926 89.891 553.043 81.414 550.363 C 72.934 547.684 64.164 543 58.168 536.898 C 52.172 530.797 47.762 522.129 45.445 513.75 C 43.125 505.375 42.289 494.957 44.262 486.637 C 46.234 478.313 50.645 470.262 57.281 463.824 C 63.922 457.387 79.09 450.695 84.09 448.008 C 89.086 445.324 87.074 447.012 87.27 447.707 M 91.715 444.316 C 100.203 442.281 111.043 444.727 120.063 447.719 C 129.086 450.711 139.535 456.367 145.848 462.27 C 152.16 468.176 155.633 474.891 157.949 483.141 C 160.266 491.391 161.574 503.137 159.746 511.777 C 157.918 520.414 152.57 528.766 146.977 534.969 C 141.383 541.172 134.535 545.969 126.18 548.996 C 117.824 552.023 106.219 553.738 96.836 553.133 C 87.457 552.527 77.773 550.055 69.887 545.359 C 62 540.668 53.949 532.375 49.516 524.973 C 45.078 517.57 43.328 509.379 43.277 500.945 C 43.23 492.512 45.207 482.035 49.223 474.371 C 53.238 466.707 60.207 459.926 67.379 454.957 C 74.551 449.992 87.895 446.148 92.254 444.578 C 96.617 443.008 93.469 444.527 93.543 445.531"/><g clip-path="url(#HPSpe24Qclip-3)"><g transform="matrix(1 0 0 1 101.967 499.4528)"><path fill="none" stroke="#000000" stroke-miterlimit="10" stroke-width="4" d="M 12.529 -52.316 C 21.33 -51.347 31.666 -46.812 38.826 -41.574 C 45.986 -36.336 52.049 -28.64 55.49 -20.89 C 58.931 -13.144 60.666 -3.472 59.467 4.914 C 58.263 13.301 53.596 22.133 48.283 29.418 C 42.971 36.703 35.588 44.602 27.588 48.629 C 19.588 52.657 9.428 53.641 0.295 53.594 C -8.838 53.547 -19.225 51.946 -27.217 48.36 C -35.209 44.77 -42.33 38.91 -47.658 32.067 C -52.99 25.223 -57.807 15.606 -59.194 7.293 C -60.58 -1.023 -59.362 -9.757 -55.983 -17.82 C -52.604 -25.882 -45.752 -35.179 -38.916 -41.09 C -32.084 -47 -24.717 -51.675 -14.979 -53.289 C -5.244 -54.898 12.654 -51.793 19.498 -50.761 C 26.342 -49.726 26.158 -47.949 26.084 -47.093 M 26.873 -48.011 C 35.088 -45.195 44.51 -37.769 49.951 -30.761 C 55.388 -23.757 58.767 -14.617 59.513 -5.984 C 60.26 2.649 57.896 13.168 54.431 21.039 C 50.963 28.907 45.33 36.098 38.717 41.231 C 32.103 46.368 23.76 49.918 14.748 51.848 C 5.732 53.778 -6.162 54.727 -15.362 52.813 C -24.561 50.903 -33.799 46.188 -40.451 40.383 C -47.104 34.575 -52.026 26.094 -55.268 17.985 C -58.51 9.875 -61.264 -0.148 -59.912 -8.273 C -58.557 -16.398 -52.436 -24.047 -47.151 -30.769 C -41.869 -37.496 -36.108 -44.711 -28.209 -48.629 C -20.311 -52.543 -9.135 -54.359 0.24 -54.265 C 9.615 -54.172 23.467 -49.492 28.041 -48.07 C 32.615 -46.648 28.068 -46.582 27.685 -45.738"/></g></g><g transform="matrix(1 0 0 1 -19.413 -858.4431)"><path fill="none" stroke="#000000" stroke-miterlimit="10" stroke-width="3.611" d="M 417.933 1360.029 C 372.538 1398.513 328.733 1432.002 236.323 1504.955 M 416.061 1360.677 C 345.815 1414.439 276.788 1470.31 236.183 1504.263"/></g><g transform="matrix(1 0 0 1 -19.413 -858.4431)"><path fill="none" stroke="#000000" stroke-miterlimit="10" stroke-width="3.611" d="M 242.999 1487.287 C 239.8 1493.58 238.694 1496.049 236.323 1504.935 M 241.183 1487.916 C 239.132 1494.08 237.515 1500.884 236.19 1504.263 M 236.378 1505.174 C 241.237 1502.552 246.827 1504.513 253.573 1503.396 M 237.034 1504.392 C 240.999 1504.381 247.194 1503.767 252.886 1503.447"/></g><path fill="#26a169" stroke="none" d="M 120.383 657.43 C 124.117 649.594 131.887 640.867 139.523 635.856 C 147.156 630.844 157.078 628.254 166.184 627.359 C 175.289 626.465 186.016 627.332 194.156 630.488 C 202.293 633.641 209.852 639.711 215.023 646.293 C 220.191 652.879 223.813 661.426 225.172 669.988 C 226.531 678.551 226.211 689.195 223.188 697.676 C 220.164 706.156 213.617 714.512 207.027 720.871 C 200.441 727.234 191.988 732.723 183.656 735.84 C 175.328 738.953 165.535 740.668 157.055 739.555 C 148.57 738.441 139.758 734.332 132.77 729.16 C 125.781 723.992 118.707 716.301 115.133 708.531 C 111.559 700.762 110.074 691.703 111.336 682.543 C 112.598 673.383 120.422 658.766 122.703 653.57 C 124.988 648.375 124.441 650.945 125.023 651.371 M 126.438 645.961 C 131.867 639.129 141.91 634.379 150.863 631.176 C 159.813 627.973 171.527 625.992 180.137 626.754 C 188.746 627.516 195.617 630.664 202.527 635.738 C 209.434 640.809 217.703 649.254 221.582 657.184 C 225.465 665.113 226.398 674.984 225.813 683.32 C 225.23 691.652 222.793 699.648 218.074 707.18 C 213.359 714.715 205.277 723.215 197.516 728.52 C 189.75 733.82 180.602 737.836 171.496 739 C 162.395 740.16 150.945 738.594 142.891 735.492 C 134.836 732.395 128.41 727.023 123.176 720.41 C 117.941 713.797 113.043 704.328 111.484 695.816 C 109.926 687.305 111.234 677.668 113.824 669.34 C 116.414 661.012 124.559 649.762 127.023 645.836 C 129.488 641.91 127.945 645.047 128.625 645.793"/><g clip-path="url(#HPSpe24Qclip-4)"><g transform="matrix(0.7877 -0.6161 0.6161 0.7877 168.4816 683.0756)"><path fill="none" stroke="#000000" stroke-miterlimit="10" stroke-width="4" d="M 12.529 -52.317 C 21.332 -51.347 31.665 -46.811 38.825 -41.573 C 45.987 -36.337 52.051 -28.638 55.488 -20.891 C 58.931 -13.145 60.667 -3.47 59.466 4.914 C 58.264 13.297 53.595 22.132 48.283 29.418 C 42.97 36.704 35.584 44.6 27.587 48.63 C 19.589 52.66 9.43 53.64 0.295 53.596 C -8.838 53.549 -19.224 51.946 -27.218 48.357 C -35.209 44.77 -42.33 38.911 -47.661 32.069 C -52.988 25.224 -57.806 15.608 -59.192 7.293 C -60.582 -1.024 -59.361 -9.755 -55.984 -17.82 C -52.603 -25.883 -45.753 -35.179 -38.917 -41.09 C -32.082 -47.001 -24.717 -51.675 -14.98 -53.288 C -5.243 -54.901 12.654 -51.792 19.498 -50.759 C 26.344 -49.728 26.158 -47.95 26.084 -47.095 M 26.876 -48.012 C 35.09 -45.193 44.507 -37.767 49.949 -30.763 C 55.389 -23.756 58.768 -14.616 59.514 -5.984 C 60.26 2.649 57.898 13.169 54.43 21.04 C 50.964 28.907 45.331 36.096 38.715 41.231 C 32.102 46.364 23.759 49.916 14.746 51.846 C 5.732 53.777 -6.162 54.724 -15.362 52.815 C -24.564 50.904 -33.803 46.187 -40.45 40.382 C -47.104 34.578 -52.025 26.091 -55.27 17.984 C -58.512 9.873 -61.262 -0.148 -59.912 -8.271 C -58.559 -16.398 -52.434 -24.045 -47.153 -30.77 C -41.867 -37.496 -36.107 -44.709 -28.207 -48.627 C -20.309 -52.542 -9.133 -54.358 0.242 -54.266 C 9.617 -54.173 23.465 -49.491 28.041 -48.068 C 32.614 -46.649 28.07 -46.583 27.686 -45.738"/></g></g><g clip-path="url(#HPSpe24Qclip-5)"><g transform="matrix(1 0 0 1 -19.413 -858.4431)"><path fill="none" stroke="#000000" stroke-miterlimit="10" stroke-width="5.544863" d="M 873.241 1358.06 C 790.034 1355.654 703.679 1354.978 534.472 1352.568 M 874.081 1357.552 C 757.003 1354.834 640.913 1352.982 533.561 1353.365"/></g></g><g transform="matrix(1 0 0 1 -19.413 -858.4431)"><path fill="none" stroke="#000000" stroke-miterlimit="10" stroke-width="5.544863" d="M 549.468 1343.154 C 547.276 1346.662 540.546 1349.9 534.612 1352.009 M 550.725 1342.392 C 544.464 1346.431 539.475 1349.517 533.249 1353.205 M 534.202 1355.47 C 539.53 1355.279 543.085 1358.58 549.229 1366.381 M 534.366 1353.838 C 537.69 1355.494 541.089 1359.119 550.284 1364.763"/></g><g transform="matrix(1 0 0 1 -19.413 -858.4431)"><path fill="none" stroke="#000000" stroke-miterlimit="10" stroke-width="3.736" d="M 228.917 1016.834 C 268.081 1042.912 308.768 1068.81 427.288 1145.353 M 230.327 1017.99 C 287.241 1052.861 345.62 1091.404 427.171 1145.677"/></g><g transform="matrix(1 0 0 1 -19.413 -858.4431)"><path fill="none" stroke="#000000" stroke-miterlimit="10" stroke-width="3.736" d="M 410.401 1144.287 C 414.472 1145.283 418.452 1145.408 427.292 1145.353 M 411.804 1145.439 C 416.811 1145.134 421.311 1145.834 427.175 1145.677 M 428.659 1146.252 C 426.206 1140.662 423.526 1133.142 422.186 1129.529 M 428.491 1145.552 C 425.495 1139.955 423.354 1134.619 421.464 1130.283"/></g><path fill="#f4c111" stroke="none" d="M 172.988 64.816 C 181.711 65.648 192.121 72.043 199.352 77.652 C 206.582 83.262 212.699 90.133 216.375 98.473 C 220.051 106.813 221.91 118.207 221.414 127.691 C 220.914 137.176 218.203 147.359 213.383 155.387 C 208.563 163.41 200.629 170.957 192.492 175.844 C 184.352 180.727 174.012 184.199 164.547 184.695 C 155.082 185.191 144.254 182.695 135.695 178.816 C 127.133 174.934 118.805 168.797 113.184 161.41 C 107.566 154.023 103.156 143.781 101.984 134.496 C 100.813 125.211 103.074 114.41 106.148 105.699 C 109.223 96.984 113.906 88.758 120.418 82.223 C 126.934 75.691 135.148 69.207 145.23 66.496 C 155.309 63.789 173.84 65.262 180.895 65.961 C 187.953 66.664 187.875 69.617 187.566 70.703 M 195.641 73.352 C 203.34 77.758 210.301 87.773 214.84 95.988 C 219.383 104.203 223.008 113.793 222.895 122.641 C 222.777 131.484 218.629 141.016 214.16 149.059 C 209.691 157.098 203.398 165.195 196.074 170.883 C 188.75 176.566 179.129 181.457 170.211 183.168 C 161.289 184.879 151.453 184.246 142.551 181.156 C 133.652 178.063 123.363 171.68 116.809 164.621 C 110.254 157.559 105.371 147.59 103.215 138.789 C 101.059 129.988 101.727 120.973 103.871 111.816 C 106.012 102.656 110.289 91.246 116.074 83.844 C 121.863 76.438 129.977 71.035 138.598 67.395 C 147.215 63.758 158.332 60.898 167.781 62.004 C 177.23 63.109 190.891 72.184 195.289 74.027 C 199.688 75.871 194.672 72.066 194.172 73.063"/><g clip-path="url(#HPSpe24Qclip-6)"><g transform="matrix(0.843 0.5379 -0.5379 0.843 161.6941 123.8976)"><path fill="none" stroke="#000000" stroke-miterlimit="10" stroke-width="4" d="M 9.645 -60.56 C 18.248 -59.858 28.491 -53.165 35.912 -47.205 C 43.337 -41.248 50.18 -33.187 54.18 -24.804 C 58.183 -16.418 60.383 -6.33 59.917 3.1 C 59.455 12.528 56.084 23.556 51.39 31.769 C 46.698 39.979 39.505 47.558 31.764 52.362 C 24.02 57.168 14.132 60.21 4.937 60.6 C -4.26 60.986 -14.825 58.428 -23.416 54.688 C -32.007 50.948 -40.718 45.464 -46.609 38.162 C -52.5 30.861 -57.083 20.185 -58.764 10.883 C -60.445 1.581 -59.388 -8.847 -56.697 -17.644 C -54.005 -26.446 -48.98 -35.157 -42.628 -41.912 C -36.27 -48.665 -29.367 -55.682 -18.558 -58.168 C -7.754 -60.654 13.555 -58.426 22.211 -56.836 C 30.866 -55.245 33.675 -49.68 33.376 -48.617 M 10.453 -58.93 C 18.956 -58.48 28.249 -53.747 35.52 -47.914 C 42.793 -42.078 49.864 -32.767 54.089 -23.916 C 58.315 -15.07 61.499 -4.123 60.879 5.188 C 60.258 14.499 55.486 24.281 50.368 31.939 C 45.252 39.6 38.227 46.297 30.175 51.142 C 22.123 55.988 11.169 60.28 2.057 61.01 C -7.052 61.744 -16.247 59.293 -24.486 55.537 C -32.731 51.781 -41.506 46.045 -47.388 38.474 C -53.273 30.899 -58.227 19.576 -59.784 10.097 C -61.344 0.616 -59.595 -9.382 -56.742 -18.404 C -53.889 -27.419 -49.127 -37.64 -42.673 -44.01 C -36.22 -50.374 -27.084 -53.993 -18.024 -56.613 C -8.965 -59.233 6.927 -59.396 11.685 -59.716 C 16.437 -60.038 10.905 -59.427 10.507 -58.534"/></g></g><g><g transform="matrix(1 0 0 1 146.2382 138.3194)"><g><path fill="#000000" stroke="none" d="M 16.766 -16 L 21.125 -22.219 L 18.047 -22.188 L 18.031 -25.031 L 27.734 -25.094 L 27.75 -22.25 L 24.453 -22.234 L 18.156 -13.313 L 25.625 -3 L 28.938 -3.031 L 28.953 -0.188 L 13.109 -0.078 L 13.094 -2.922 L 16.297 -2.953 L 11.563 -9.484 L 6.906 -2.891 L 10.25 -2.906 L 10.266 -0.063 L 0 0 L -0.016 -2.844 L 3.547 -2.859 L 10.094 -12.203 L 2.891 -22.094 L 0.094 -22.078 L 0.078 -24.922 L 15.297 -25.016 L 15.313 -22.172 L 12.281 -22.156 Z M 16.766 -16"/></g></g></g><g><g transform="matrix(1 0 0 1 67.6016 511.8985)"><g><path fill="#000000" stroke="none" d="M 20.609 -11.234 L 20.609 -13.688 C 20.609 -16.594 20.234 -18.691 19.484 -19.984 C 18.734 -21.285 17.535 -21.938 15.891 -21.938 C 14.172 -21.938 12.961 -21.254 12.266 -19.891 C 11.578 -18.523 11.234 -16.051 11.234 -12.469 C 11.234 -8.895 11.582 -6.422 12.281 -5.047 C 12.988 -3.672 14.191 -2.984 15.891 -2.984 C 17.535 -2.984 18.734 -3.629 19.484 -4.922 C 20.234 -6.223 20.609 -8.328 20.609 -11.234 Z M 28.906 -2.844 L 32.438 -2.844 L 32.438 0 L 20.609 0 L 20.609 -3.172 C 19.898 -1.867 18.945 -0.898 17.75 -0.266 C 16.563 0.367 15.094 0.688 13.344 0.688 C 9.813 0.688 7.031 -0.484 5 -2.828 C 2.977 -5.18 1.969 -8.395 1.969 -12.469 C 1.969 -16.563 2.977 -19.77 5 -22.094 C 7.031 -24.426 9.813 -25.594 13.344 -25.594 C 15.094 -25.594 16.563 -25.273 17.75 -24.641 C 18.945 -24.016 19.898 -23.051 20.609 -21.75 L 20.609 -33.656 L 17.047 -33.656 L 17.047 -36.469 L 28.906 -36.469 Z M 28.906 -2.844"/></g></g><g transform="matrix(1 0 0 1 101.6016 511.8985)"><g><path fill="#000000" stroke="none" d="M 14.984 5.625 C 14.234 7.457 13.328 8.754 12.266 9.516 C 11.203 10.285 9.77 10.672 7.969 10.672 C 7.207 10.672 6.359 10.582 5.422 10.406 C 4.484 10.238 3.457 9.988 2.344 9.656 L 2.344 4.453 L 5 4.484 C 5.039 5.68 5.32 6.566 5.844 7.141 C 6.375 7.723 7.16 8.016 8.203 8.016 C 9.223 8.016 10.047 7.738 10.672 7.188 C 11.297 6.633 11.922 5.582 12.547 4.031 L 12.922 3.172 L 2.063 -22.078 L -0.641 -22.078 L -0.641 -24.922 L 13.734 -24.922 L 13.734 -22.078 L 10.766 -22.078 L 17.094 -7.344 L 23 -22.078 L 19.688 -22.078 L 19.688 -24.922 L 29.047 -24.922 L 29.047 -22.078 L 26.016 -22.078 Z M 14.984 5.625"/></g></g></g><g><g transform="matrix(1 0 0 1 134.2539 700.8633)"><g><path fill="#000000" stroke="none" d="M 20.609 -11.234 L 20.609 -13.688 C 20.609 -16.594 20.234 -18.691 19.484 -19.984 C 18.734 -21.285 17.535 -21.938 15.891 -21.938 C 14.172 -21.938 12.961 -21.254 12.266 -19.891 C 11.578 -18.523 11.234 -16.051 11.234 -12.469 C 11.234 -8.895 11.582 -6.422 12.281 -5.047 C 12.988 -3.672 14.191 -2.984 15.891 -2.984 C 17.535 -2.984 18.734 -3.629 19.484 -4.922 C 20.234 -6.223 20.609 -8.328 20.609 -11.234 Z M 28.906 -2.844 L 32.438 -2.844 L 32.438 0 L 20.609 0 L 20.609 -3.172 C 19.898 -1.867 18.945 -0.898 17.75 -0.266 C 16.563 0.367 15.094 0.688 13.344 0.688 C 9.813 0.688 7.031 -0.484 5 -2.828 C 2.977 -5.18 1.969 -8.395 1.969 -12.469 C 1.969 -16.563 2.977 -19.77 5 -22.094 C 7.031 -24.426 9.813 -25.594 13.344 -25.594 C 15.094 -25.594 16.563 -25.273 17.75 -24.641 C 18.945 -24.016 19.898 -23.051 20.609 -21.75 L 20.609 -33.656 L 17.047 -33.656 L 17.047 -36.469 L 28.906 -36.469 Z M 28.906 -2.844"/></g></g><g transform="matrix(1 0 0 1 168.2539 700.8633)"><g><path fill="#000000" stroke="none" d="M 16.859 -15.891 L 21.266 -22.078 L 18.188 -22.078 L 18.188 -24.922 L 27.891 -24.922 L 27.891 -22.078 L 24.594 -22.078 L 18.234 -13.203 L 25.641 -2.844 L 28.953 -2.844 L 28.953 0 L 13.109 0 L 13.109 -2.844 L 16.313 -2.844 L 11.625 -9.406 L 6.922 -2.844 L 10.266 -2.844 L 10.266 0 L 0 0 L 0 -2.844 L 3.563 -2.844 L 10.172 -12.141 L 3.031 -22.078 L 0.234 -22.078 L 0.234 -24.922 L 15.453 -24.922 L 15.453 -22.078 L 12.422 -22.078 Z M 16.859 -15.891"/></g></g></g><g clip-path="url(#HPSpe24Qclip-7)"><g transform="matrix(1 0 0 1 -19.413 -858.4431)"><path fill="none" stroke="#98c0f0" stroke-miterlimit="10" stroke-width="8" d="M 45.542 1264.224 L 904.308 1264.107"/></g></g><g><g transform="matrix(1 0 0 1 400.7031 197.1719)"><g><path fill="#000000" stroke="none" d="M 23.938 -30.594 L 21.672 -30.594 C 21.734 -30.914 21.766 -31.227 21.766 -31.531 C 21.766 -32.25 21.578 -32.828 21.203 -33.266 C 20.672 -33.867 19.785 -34.172 18.547 -34.172 C 16.941 -34.172 15.723 -33.727 14.891 -32.844 C 14.066 -31.969 13.438 -30.395 13 -28.125 L 12.359 -24.922 L 19.328 -24.922 L 18.828 -22.406 L 11.875 -22.406 L 7.234 1.547 C 6.68 4.328 5.547 6.426 3.828 7.844 C 2.109 9.27 -0.148 9.984 -2.953 9.984 L -2.672 7.688 C -1.023 7.688 0.195 7.25 1 6.375 C 1.82 5.438 2.461 3.828 2.922 1.547 L 7.563 -22.406 L 3.438 -22.406 L 3.922 -24.922 L 8.047 -24.922 L 8.656 -28.031 C 9.207 -30.832 10.344 -32.938 12.063 -34.344 C 13.781 -35.758 16.035 -36.469 18.828 -36.469 C 19.879 -36.469 20.906 -36.375 21.906 -36.188 C 22.914 -36 23.906 -35.711 24.875 -35.328 Z M 23.938 -30.594"/></g></g></g><g><g transform="matrix(1 0 0 1 418.7031 197.1719)"><g/></g><g transform="matrix(1 0 0 1 433.7031 197.1719)"><g><path fill="#000000" stroke="none" d="M 5.094 -21.703 L 35.141 -21.703 L 35.141 -17.953 L 5.094 -17.953 Z M 5.094 -12.141 L 35.141 -12.141 L 35.141 -8.391 L 5.094 -8.391 Z M 5.094 -12.141"/></g></g><g transform="matrix(1 0 0 1 473.7031 197.1719)"><g/></g></g><g><g transform="matrix(1 0 0 1 488.7031 197.1719)"><g><path fill="#000000" stroke="none" d="M 17.438 -3.891 C 15.363 -0.836 12.645 0.688 9.281 0.688 C 6.531 0.688 4.461 -0.242 3.078 -2.109 C 2.109 -3.422 1.625 -5.016 1.625 -6.891 C 1.625 -7.691 1.707 -8.535 1.875 -9.422 C 2.938 -14.941 5.391 -19.125 9.234 -21.969 C 12.504 -24.383 16.113 -25.594 20.063 -25.594 C 22.719 -25.594 24.5 -25.367 25.406 -24.922 L 21.047 -2.484 L 24.75 -2.484 L 24.281 0 L 16.688 0 Z M 6.172 -7.031 C 6.172 -3.688 7.785 -2.016 11.016 -2.016 C 12.984 -2.016 14.633 -2.801 15.969 -4.375 C 17.313 -5.945 18.281 -8.234 18.875 -11.234 L 21.047 -22.531 C 21.047 -22.977 20.422 -23.203 19.172 -23.203 C 16.172 -23.203 13.508 -22.031 11.188 -19.688 C 8.875 -17.332 7.301 -14.016 6.469 -9.734 C 6.27 -8.734 6.172 -7.832 6.172 -7.031 Z M 6.172 -7.031"/></g></g><g transform="matrix(1 0 0 1 517.7031 197.1719)"><g><path fill="#000000" stroke="none" d="M 28.813 -36.469 L 21.734 0 L 17.422 0 L 18.172 -3.891 C 17.016 -2.328 15.711 -1.172 14.266 -0.422 C 12.816 0.316 11.133 0.688 9.219 0.688 C 6.156 0.688 3.891 -0.523 2.422 -2.953 C 1.43 -4.566 0.938 -6.5 0.938 -8.75 C 0.938 -9.906 1.07 -11.145 1.344 -12.469 C 2.102 -16.375 3.688 -19.535 6.094 -21.953 C 8.5 -24.379 11.242 -25.594 14.328 -25.594 C 16.242 -25.594 17.781 -25.223 18.938 -24.484 C 20.094 -23.742 20.945 -22.594 21.5 -21.031 L 24 -33.984 L 19.922 -33.984 L 20.422 -36.469 Z M 19.594 -11.234 L 20.063 -13.688 C 20.301 -14.906 20.422 -16.008 20.422 -17 C 20.422 -18.414 20.172 -19.594 19.672 -20.531 C 18.836 -22.113 17.328 -22.906 15.141 -22.906 C 12.922 -22.906 11.07 -22.031 9.594 -20.281 C 8.125 -18.531 7.051 -15.926 6.375 -12.469 C 6.063 -10.895 5.906 -9.5 5.906 -8.281 C 5.906 -6.82 6.125 -5.617 6.563 -4.672 C 7.344 -2.898 8.844 -2.016 11.063 -2.016 C 13.25 -2.016 15.066 -2.801 16.516 -4.375 C 17.973 -5.945 19 -8.234 19.594 -11.234 Z M 19.594 -11.234"/></g></g><g transform="matrix(1 0 0 1 548.7031 197.1719)"><g><path fill="#000000" stroke="none" d="M 28.813 -36.469 L 21.734 0 L 17.422 0 L 18.172 -3.891 C 17.016 -2.328 15.711 -1.172 14.266 -0.422 C 12.816 0.316 11.133 0.688 9.219 0.688 C 6.156 0.688 3.891 -0.523 2.422 -2.953 C 1.43 -4.566 0.938 -6.5 0.938 -8.75 C 0.938 -9.906 1.07 -11.145 1.344 -12.469 C 2.102 -16.375 3.688 -19.535 6.094 -21.953 C 8.5 -24.379 11.242 -25.594 14.328 -25.594 C 16.242 -25.594 17.781 -25.223 18.938 -24.484 C 20.094 -23.742 20.945 -22.594 21.5 -21.031 L 24 -33.984 L 19.922 -33.984 L 20.422 -36.469 Z M 19.594 -11.234 L 20.063 -13.688 C 20.301 -14.906 20.422 -16.008 20.422 -17 C 20.422 -18.414 20.172 -19.594 19.672 -20.531 C 18.836 -22.113 17.328 -22.906 15.141 -22.906 C 12.922 -22.906 11.07 -22.031 9.594 -20.281 C 8.125 -18.531 7.051 -15.926 6.375 -12.469 C 6.063 -10.895 5.906 -9.5 5.906 -8.281 C 5.906 -6.82 6.125 -5.617 6.563 -4.672 C 7.344 -2.898 8.844 -2.016 11.063 -2.016 C 13.25 -2.016 15.066 -2.801 16.516 -4.375 C 17.973 -5.945 19 -8.234 19.594 -11.234 Z M 19.594 -11.234"/></g></g></g><g><g transform="matrix(1 0 0 1 579.7031 197.1719)"><g><path fill="#000000" stroke="none" d="M 15.313 7.484 C 11.508 5.773 8.641 3.07 6.703 -0.625 C 4.766 -4.32 3.797 -8.941 3.797 -14.484 C 3.797 -20.047 4.766 -24.676 6.703 -28.375 C 8.641 -32.07 11.508 -34.77 15.313 -36.469 L 15.313 -34.172 C 12.906 -32.516 11.176 -30.18 10.125 -27.172 C 9.082 -24.172 8.563 -19.941 8.563 -14.484 C 8.563 -9.047 9.082 -4.82 10.125 -1.813 C 11.176 1.195 12.906 3.531 15.313 5.188 Z M 15.313 7.484"/></g></g></g><g><g transform="matrix(1 0 0 1 598.7031 197.1719)"><g><path fill="#000000" stroke="none" d="M 16.859 -15.891 L 21.266 -22.078 L 18.188 -22.078 L 18.188 -24.922 L 27.891 -24.922 L 27.891 -22.078 L 24.594 -22.078 L 18.234 -13.203 L 25.641 -2.844 L 28.953 -2.844 L 28.953 0 L 13.109 0 L 13.109 -2.844 L 16.313 -2.844 L 11.625 -9.406 L 6.922 -2.844 L 10.266 -2.844 L 10.266 0 L 0 0 L 0 -2.844 L 3.563 -2.844 L 10.172 -12.141 L 3.031 -22.078 L 0.234 -22.078 L 0.234 -24.922 L 15.453 -24.922 L 15.453 -22.078 L 12.422 -22.078 Z M 16.859 -15.891"/></g></g></g><g><g transform="matrix(1 0 0 1 627.7031 197.1719)"><g><path fill="#000000" stroke="none" d="M 1.734 4.672 C 3.203 3.586 4.281 2.313 4.969 0.844 C 5.656 -0.613 6 -2.379 6 -4.453 L 6 -5.328 L 10.625 -5.328 C 10.5 -2.648 9.867 -0.352 8.734 1.563 C 7.598 3.477 5.891 5.141 3.609 6.547 Z M 1.734 4.672"/></g></g><g transform="matrix(1 0 0 1 642.7031 197.1719)"><g/></g></g><g><g transform="matrix(1 0 0 1 657.7031 197.1719)"><g><path fill="#000000" stroke="none" d="M 14.984 5.625 C 14.234 7.457 13.328 8.754 12.266 9.516 C 11.203 10.285 9.77 10.672 7.969 10.672 C 7.207 10.672 6.359 10.582 5.422 10.406 C 4.484 10.238 3.457 9.988 2.344 9.656 L 2.344 4.453 L 5 4.484 C 5.039 5.68 5.32 6.566 5.844 7.141 C 6.375 7.723 7.16 8.016 8.203 8.016 C 9.223 8.016 10.047 7.738 10.672 7.188 C 11.297 6.633 11.922 5.582 12.547 4.031 L 12.922 3.172 L 2.063 -22.078 L -0.641 -22.078 L -0.641 -24.922 L 13.734 -24.922 L 13.734 -22.078 L 10.766 -22.078 L 17.094 -7.344 L 23 -22.078 L 19.688 -22.078 L 19.688 -24.922 L 29.047 -24.922 L 29.047 -22.078 L 26.016 -22.078 Z M 14.984 5.625"/></g></g></g><g><g transform="matrix(1 0 0 1 685.7031 197.1719)"><g><path fill="#000000" stroke="none" d="M 3.406 7.484 L 3.406 5.188 C 5.813 3.531 7.539 1.195 8.594 -1.813 C 9.645 -4.82 10.172 -9.047 10.172 -14.484 C 10.172 -19.941 9.645 -24.172 8.594 -27.172 C 7.539 -30.18 5.813 -32.516 3.406 -34.172 L 3.406 -36.469 C 7.219 -34.77 10.094 -32.07 12.031 -28.375 C 13.969 -24.676 14.938 -20.047 14.938 -14.484 C 14.938 -8.941 13.969 -4.32 12.031 -0.625 C 10.094 3.07 7.219 5.773 3.406 7.484 Z M 3.406 7.484"/></g></g></g><g><g transform="matrix(1 0 0 1 698.8086 479.2266)"><g><path fill="#000000" stroke="none" d="M 3.688 -1.656 L 3.688 -22.656 L 0.922 -22.656 L 0.922 -24.313 L 6.563 -24.313 L 6.563 -14.016 C 7.125 -15.055 7.836 -15.82 8.703 -16.313 C 9.578 -16.813 10.656 -17.063 11.938 -17.063 C 13.977 -17.063 15.645 -16.254 16.938 -14.641 C 18.227 -13.023 18.875 -10.914 18.875 -8.313 C 18.875 -5.707 18.227 -3.594 16.938 -1.969 C 15.645 -0.352 13.977 0.453 11.938 0.453 C 10.656 0.453 9.578 0.207 8.703 -0.281 C 7.836 -0.781 7.125 -1.551 6.563 -2.594 L 6.563 0 L 0.922 0 L 0.922 -1.656 Z M 6.563 -7.484 C 6.563 -5.484 6.941 -3.957 7.703 -2.906 C 8.473 -1.863 9.586 -1.344 11.047 -1.344 C 12.516 -1.344 13.625 -1.93 14.375 -3.109 C 15.133 -4.285 15.516 -6.02 15.516 -8.313 C 15.516 -10.613 15.133 -12.348 14.375 -13.516 C 13.625 -14.68 12.516 -15.266 11.047 -15.266 C 9.586 -15.266 8.473 -14.738 7.703 -13.688 C 6.941 -12.633 6.563 -11.113 6.563 -9.125 Z M 6.563 -7.484"/></g></g><g transform="matrix(1 0 0 1 718.8086 479.2266)"><g><path fill="#000000" stroke="none" d="M 12.734 -5.219 L 12.734 -8.734 L 9.031 -8.734 C 7.602 -8.734 6.539 -8.426 5.844 -7.813 C 5.145 -7.195 4.797 -6.254 4.797 -4.984 C 4.797 -3.828 5.148 -2.91 5.859 -2.234 C 6.566 -1.555 7.523 -1.219 8.734 -1.219 C 9.93 -1.219 10.895 -1.586 11.625 -2.328 C 12.363 -3.066 12.734 -4.031 12.734 -5.219 Z M 15.609 -10.375 L 15.609 -1.656 L 18.172 -1.656 L 18.172 0 L 12.734 0 L 12.734 -1.797 C 12.098 -1.023 11.363 -0.457 10.531 -0.094 C 9.695 0.27 8.723 0.453 7.609 0.453 C 5.766 0.453 4.301 -0.035 3.219 -1.016 C 2.133 -1.992 1.594 -3.316 1.594 -4.984 C 1.594 -6.703 2.211 -8.035 3.453 -8.984 C 4.691 -9.93 6.441 -10.406 8.703 -10.406 L 12.734 -10.406 L 12.734 -11.547 C 12.734 -12.805 12.348 -13.781 11.578 -14.469 C 10.816 -15.164 9.742 -15.516 8.359 -15.516 C 7.211 -15.516 6.301 -15.254 5.625 -14.734 C 4.945 -14.211 4.523 -13.441 4.359 -12.422 L 2.875 -12.422 L 2.875 -15.781 C 3.875 -16.207 4.844 -16.523 5.781 -16.734 C 6.727 -16.953 7.648 -17.063 8.547 -17.063 C 10.848 -17.063 12.598 -16.488 13.797 -15.344 C 15.004 -14.207 15.609 -12.551 15.609 -10.375 Z M 15.609 -10.375"/></g></g><g transform="matrix(1 0 0 1 737.8086 479.2266)"><g><path fill="#000000" stroke="none" d="M 16.453 -4.984 C 16.047 -3.211 15.266 -1.863 14.109 -0.938 C 12.953 -0.008 11.457 0.453 9.625 0.453 C 7.207 0.453 5.266 -0.344 3.797 -1.938 C 2.328 -3.539 1.594 -5.664 1.594 -8.313 C 1.594 -10.969 2.328 -13.086 3.797 -14.672 C 5.266 -16.266 7.207 -17.063 9.625 -17.063 C 10.676 -17.063 11.723 -16.938 12.766 -16.688 C 13.805 -16.445 14.852 -16.078 15.906 -15.578 L 15.906 -11.328 L 14.234 -11.328 C 14.016 -12.785 13.535 -13.848 12.797 -14.516 C 12.066 -15.18 11.02 -15.516 9.656 -15.516 C 8.102 -15.516 6.93 -14.91 6.141 -13.703 C 5.348 -12.504 4.953 -10.707 4.953 -8.313 C 4.953 -5.914 5.344 -4.113 6.125 -2.906 C 6.914 -1.695 8.094 -1.094 9.656 -1.094 C 10.895 -1.094 11.883 -1.414 12.625 -2.063 C 13.363 -2.707 13.867 -3.68 14.141 -4.984 Z M 16.453 -4.984"/></g></g><g transform="matrix(1 0 0 1 755.8086 479.2266)"><g><path fill="#000000" stroke="none" d="M 9.156 0 L 1.094 0 L 1.094 -1.656 L 3.688 -1.656 L 3.688 -22.656 L 0.922 -22.656 L 0.922 -24.313 L 6.563 -24.313 L 6.563 -8.484 L 13.563 -14.938 L 11.172 -14.938 L 11.172 -16.609 L 18.688 -16.609 L 18.688 -14.938 L 15.844 -14.938 L 10.906 -10.375 L 17.219 -1.656 L 19.609 -1.656 L 19.609 0 L 11.422 0 L 11.422 -1.656 L 13.797 -1.656 L 8.828 -8.484 L 6.563 -6.375 L 6.563 -1.656 L 9.156 -1.656 Z M 9.156 0"/></g></g><g transform="matrix(1 0 0 1 774.8086 479.2266)"><g><path fill="#000000" stroke="none" d="M 15.359 -16.609 L 19.609 -3.641 L 23.359 -14.938 L 20.953 -14.938 L 20.953 -16.609 L 26.969 -16.609 L 26.969 -14.938 L 25.125 -14.938 L 20.188 0 L 17.797 0 L 13.703 -12.422 L 9.594 0 L 7.297 0 L 2.375 -14.938 L 0.516 -14.938 L 0.516 -16.609 L 8.031 -16.609 L 8.031 -14.938 L 5.344 -14.938 L 9.063 -3.641 L 13.344 -16.609 Z M 15.359 -16.609"/></g></g><g transform="matrix(1 0 0 1 801.8086 479.2266)"><g><path fill="#000000" stroke="none" d="M 12.734 -5.219 L 12.734 -8.734 L 9.031 -8.734 C 7.602 -8.734 6.539 -8.426 5.844 -7.813 C 5.145 -7.195 4.797 -6.254 4.797 -4.984 C 4.797 -3.828 5.148 -2.91 5.859 -2.234 C 6.566 -1.555 7.523 -1.219 8.734 -1.219 C 9.93 -1.219 10.895 -1.586 11.625 -2.328 C 12.363 -3.066 12.734 -4.031 12.734 -5.219 Z M 15.609 -10.375 L 15.609 -1.656 L 18.172 -1.656 L 18.172 0 L 12.734 0 L 12.734 -1.797 C 12.098 -1.023 11.363 -0.457 10.531 -0.094 C 9.695 0.27 8.723 0.453 7.609 0.453 C 5.766 0.453 4.301 -0.035 3.219 -1.016 C 2.133 -1.992 1.594 -3.316 1.594 -4.984 C 1.594 -6.703 2.211 -8.035 3.453 -8.984 C 4.691 -9.93 6.441 -10.406 8.703 -10.406 L 12.734 -10.406 L 12.734 -11.547 C 12.734 -12.805 12.348 -13.781 11.578 -14.469 C 10.816 -15.164 9.742 -15.516 8.359 -15.516 C 7.211 -15.516 6.301 -15.254 5.625 -14.734 C 4.945 -14.211 4.523 -13.441 4.359 -12.422 L 2.875 -12.422 L 2.875 -15.781 C 3.875 -16.207 4.844 -16.523 5.781 -16.734 C 6.727 -16.953 7.648 -17.063 8.547 -17.063 C 10.848 -17.063 12.598 -16.488 13.797 -15.344 C 15.004 -14.207 15.609 -12.551 15.609 -10.375 Z M 15.609 -10.375"/></g></g><g transform="matrix(1 0 0 1 820.8086 479.2266)"><g><path fill="#000000" stroke="none" d="M 15.297 -16.641 L 15.297 -12.484 L 13.641 -12.484 C 13.586 -13.305 13.359 -13.922 12.953 -14.328 C 12.547 -14.734 11.953 -14.938 11.172 -14.938 C 9.754 -14.938 8.664 -14.445 7.906 -13.469 C 7.156 -12.488 6.781 -11.082 6.781 -9.25 L 6.781 -1.656 L 10.109 -1.656 L 10.109 0 L 1.313 0 L 1.313 -1.656 L 3.906 -1.656 L 3.906 -14.969 L 1.156 -14.969 L 1.156 -16.609 L 6.781 -16.609 L 6.781 -13.656 C 7.344 -14.813 8.066 -15.664 8.953 -16.219 C 9.836 -16.781 10.914 -17.063 12.188 -17.063 C 12.656 -17.063 13.145 -17.023 13.656 -16.953 C 14.176 -16.879 14.723 -16.773 15.297 -16.641 Z M 15.297 -16.641"/></g></g><g transform="matrix(1 0 0 1 835.8086 479.2266)"><g><path fill="#000000" stroke="none" d="M 16.797 -1.656 L 19.547 -1.656 L 19.547 0 L 13.922 0 L 13.922 -2.594 C 13.359 -1.551 12.641 -0.781 11.766 -0.281 C 10.898 0.207 9.828 0.453 8.547 0.453 C 6.504 0.453 4.832 -0.352 3.531 -1.969 C 2.238 -3.594 1.594 -5.707 1.594 -8.313 C 1.594 -10.914 2.238 -13.023 3.531 -14.641 C 4.82 -16.254 6.492 -17.063 8.547 -17.063 C 9.828 -17.063 10.898 -16.813 11.766 -16.313 C 12.641 -15.82 13.359 -15.055 13.922 -14.016 L 13.922 -22.656 L 11.203 -22.656 L 11.203 -24.313 L 16.797 -24.313 Z M 13.922 -7.484 L 13.922 -9.125 C 13.922 -11.113 13.535 -12.633 12.766 -13.688 C 12.004 -14.738 10.895 -15.266 9.438 -15.266 C 7.957 -15.266 6.836 -14.68 6.078 -13.516 C 5.328 -12.348 4.953 -10.613 4.953 -8.313 C 4.953 -6.02 5.328 -4.285 6.078 -3.109 C 6.836 -1.93 7.957 -1.344 9.438 -1.344 C 10.895 -1.344 12.004 -1.863 12.766 -2.906 C 13.535 -3.957 13.922 -5.484 13.922 -7.484 Z M 13.922 -7.484"/></g></g></g><g><g transform="matrix(1 0 0 1 305.8555 683.9649)"><g><path fill="#000000" stroke="none" d="M 15.313 7.484 C 11.508 5.773 8.641 3.07 6.703 -0.625 C 4.766 -4.32 3.797 -8.941 3.797 -14.484 C 3.797 -20.047 4.766 -24.676 6.703 -28.375 C 8.641 -32.07 11.508 -34.77 15.313 -36.469 L 15.313 -34.172 C 12.906 -32.516 11.176 -30.18 10.125 -27.172 C 9.082 -24.172 8.563 -19.941 8.563 -14.484 C 8.563 -9.047 9.082 -4.82 10.125 -1.813 C 11.176 1.195 12.906 3.531 15.313 5.188 Z M 15.313 7.484"/></g></g><g transform="matrix(1 0 0 1 324.8555 683.9649)"><g><path fill="#000000" stroke="none" d="M 25.203 -2.484 L 29.328 -2.484 L 29.328 0 L 20.891 0 L 20.891 -3.891 C 20.047 -2.328 18.969 -1.172 17.656 -0.422 C 16.352 0.316 14.742 0.688 12.828 0.688 C 9.766 0.688 7.258 -0.523 5.313 -2.953 C 3.363 -5.391 2.391 -8.563 2.391 -12.469 C 2.391 -16.375 3.359 -19.535 5.297 -21.953 C 7.234 -24.379 9.742 -25.594 12.828 -25.594 C 14.742 -25.594 16.352 -25.223 17.656 -24.484 C 18.969 -23.742 20.047 -22.594 20.891 -21.031 L 20.891 -33.984 L 16.813 -33.984 L 16.813 -36.469 L 25.203 -36.469 Z M 20.891 -11.234 L 20.891 -13.688 C 20.891 -16.676 20.313 -18.957 19.156 -20.531 C 18.008 -22.113 16.344 -22.906 14.156 -22.906 C 11.938 -22.906 10.258 -22.031 9.125 -20.281 C 8 -18.531 7.438 -15.926 7.438 -12.469 C 7.438 -9.031 8 -6.426 9.125 -4.656 C 10.258 -2.895 11.938 -2.016 14.156 -2.016 C 16.344 -2.016 18.008 -2.801 19.156 -4.375 C 20.313 -5.945 20.891 -8.234 20.891 -11.234 Z M 20.891 -11.234"/></g></g><g transform="matrix(1 0 0 1 355.8555 683.9649)"><g><path fill="#000000" stroke="none" d="M 13.969 -15.219 L 19.203 -22.406 L 15.844 -22.406 L 15.844 -24.922 L 25.438 -24.922 L 25.438 -22.406 L 22.125 -22.406 L 15.453 -13.203 L 23.234 -2.484 L 26.484 -2.484 L 26.484 0 L 14.984 0 L 14.984 -2.484 L 18.141 -2.484 L 12.734 -9.938 L 7.297 -2.484 L 10.531 -2.484 L 10.531 0 L 1.063 0 L 1.063 -2.484 L 4.359 -2.484 L 11.234 -11.953 L 3.656 -22.406 L 0.594 -22.406 L 0.594 -24.922 L 11.719 -24.922 L 11.719 -22.406 L 8.75 -22.406 Z M 13.969 -15.219"/></g></g><g transform="matrix(1 0 0 1 382.8555 683.9649)"><g><path fill="#000000" stroke="none" d="M 1.734 4.672 C 3.203 3.586 4.281 2.313 4.969 0.844 C 5.656 -0.613 6 -2.379 6 -4.453 L 6 -5.328 L 10.625 -5.328 C 10.5 -2.648 9.867 -0.352 8.734 1.563 C 7.598 3.477 5.891 5.141 3.609 6.547 Z M 1.734 4.672"/></g></g><g transform="matrix(1 0 0 1 397.8555 683.9649)"><g/></g><g transform="matrix(1 0 0 1 412.8555 683.9649)"><g><path fill="#000000" stroke="none" d="M 25.203 -2.484 L 29.328 -2.484 L 29.328 0 L 20.891 0 L 20.891 -3.891 C 20.047 -2.328 18.969 -1.172 17.656 -0.422 C 16.352 0.316 14.742 0.688 12.828 0.688 C 9.766 0.688 7.258 -0.523 5.313 -2.953 C 3.363 -5.391 2.391 -8.563 2.391 -12.469 C 2.391 -16.375 3.359 -19.535 5.297 -21.953 C 7.234 -24.379 9.742 -25.594 12.828 -25.594 C 14.742 -25.594 16.352 -25.223 17.656 -24.484 C 18.969 -23.742 20.047 -22.594 20.891 -21.031 L 20.891 -33.984 L 16.813 -33.984 L 16.813 -36.469 L 25.203 -36.469 Z M 20.891 -11.234 L 20.891 -13.688 C 20.891 -16.676 20.313 -18.957 19.156 -20.531 C 18.008 -22.113 16.344 -22.906 14.156 -22.906 C 11.938 -22.906 10.258 -22.031 9.125 -20.281 C 8 -18.531 7.438 -15.926 7.438 -12.469 C 7.438 -9.031 8 -6.426 9.125 -4.656 C 10.258 -2.895 11.938 -2.016 14.156 -2.016 C 16.344 -2.016 18.008 -2.801 19.156 -4.375 C 20.313 -5.945 20.891 -8.234 20.891 -11.234 Z M 20.891 -11.234"/></g></g><g transform="matrix(1 0 0 1 443.8555 683.9649)"><g><path fill="#000000" stroke="none" d="M 10.359 4.578 L 12 0.422 L 2.703 -22.406 L -0.141 -22.406 L -0.141 -24.922 L 11.328 -24.922 L 11.328 -22.406 L 7.344 -22.406 L 14.344 -5.281 L 21.359 -22.406 L 17.625 -22.406 L 17.625 -24.922 L 26.984 -24.922 L 26.984 -22.406 L 24.188 -22.406 L 12.781 5.625 C 12 7.563 11.129 8.883 10.172 9.594 C 9.223 10.313 7.879 10.672 6.141 10.672 C 5.41 10.672 4.656 10.609 3.875 10.484 C 3.102 10.359 2.328 10.176 1.547 9.938 L 1.547 5.188 L 3.75 5.188 C 3.844 6.25 4.113 7.008 4.563 7.469 C 5.008 7.926 5.703 8.156 6.641 8.156 C 7.492 8.156 8.18 7.914 8.703 7.438 C 9.234 6.969 9.785 6.016 10.359 4.578 Z M 10.359 4.578"/></g></g><g transform="matrix(1 0 0 1 470.8555 683.9649)"><g><path fill="#000000" stroke="none" d="M 3.406 7.484 L 3.406 5.188 C 5.813 3.531 7.539 1.195 8.594 -1.813 C 9.645 -4.82 10.172 -9.047 10.172 -14.484 C 10.172 -19.941 9.645 -24.172 8.594 -27.172 C 7.539 -30.18 5.813 -32.516 3.406 -34.172 L 3.406 -36.469 C 7.219 -34.77 10.094 -32.07 12.031 -28.375 C 13.969 -24.676 14.938 -20.047 14.938 -14.484 C 14.938 -8.941 13.969 -4.32 12.031 -0.625 C 10.094 3.07 7.219 5.773 3.406 7.484 Z M 3.406 7.484"/></g></g><g transform="matrix(1 0 0 1 489.8555 683.9649)"><g/></g><g transform="matrix(1 0 0 1 504.8555 683.9649)"><g><path fill="#000000" stroke="none" d="M 37.484 -17.422 L 37.484 -13.625 L 7.297 -13.625 L 11.813 -5.719 L 11.563 -5.719 L 1.781 -15.406 L 1.781 -15.641 L 11.563 -25.313 L 11.813 -25.313 L 7.297 -17.422 Z M 37.484 -17.422"/></g></g><g transform="matrix(1 0 0 1 544.8555 683.9649)"><g/></g></g><g><g transform="matrix(1 0 0 1 559.8555 683.9649)"><g><path fill="#000000" stroke="none" d="M 23.938 -30.594 L 21.672 -30.594 C 21.734 -30.914 21.766 -31.227 21.766 -31.531 C 21.766 -32.25 21.578 -32.828 21.203 -33.266 C 20.672 -33.867 19.785 -34.172 18.547 -34.172 C 16.941 -34.172 15.723 -33.727 14.891 -32.844 C 14.066 -31.969 13.438 -30.395 13 -28.125 L 12.359 -24.922 L 19.328 -24.922 L 18.828 -22.406 L 11.875 -22.406 L 7.234 1.547 C 6.68 4.328 5.547 6.426 3.828 7.844 C 2.109 9.27 -0.148 9.984 -2.953 9.984 L -2.672 7.688 C -1.023 7.688 0.195 7.25 1 6.375 C 1.82 5.438 2.461 3.828 2.922 1.547 L 7.563 -22.406 L 3.438 -22.406 L 3.922 -24.922 L 8.047 -24.922 L 8.656 -28.031 C 9.207 -30.832 10.344 -32.938 12.063 -34.344 C 13.781 -35.758 16.035 -36.469 18.828 -36.469 C 19.879 -36.469 20.906 -36.375 21.906 -36.188 C 22.914 -36 23.906 -35.711 24.875 -35.328 Z M 23.938 -30.594"/></g></g><g transform="matrix(1 0 0 1 577.8555 683.9649)"><g/></g><g transform="matrix(1 0 0 1 592.8555 683.9649)"><g><path fill="#000000" stroke="none" d="M 8.438 -35 L 8.438 -21.984 L 4.719 -21.984 L 4.719 -35 Z M 8.438 -35"/></g></g></g></g></g></svg>
</svg>